<svg id="Capa_1" enable-background="new 0 0 497.211 497.211" height="512" viewBox="0 0 497.211 497.211" width="512" xmlns="http://www.w3.org/2000/svg"><g><path d="m390.543 4.423c-1.353-2.71-4.122-4.423-7.152-4.423h-126.156c-3.03 0-5.799 1.713-7.152 4.423l-14.111 28.267-4.223 21.344 172.906 3.711v-25.055z" fill="#e1d3ce"/><path d="m236.96 292.138h15.87c12.59 0 24.974-3.199 35.989-9.296 1.42-.786 1.981-2.543 1.28-4.007l-4.366-9.109c-.767-1.6-1.165-3.352-1.165-5.126v-47.651-75.51h-86.519v142.376l15.926 8.324h22.985z" fill="#cdbfba"/><path d="m198.048 32.69v-6.159c0-4.753-3.853-8.607-8.607-8.607h-36.013c-5.31 0-10.113 3.155-12.222 8.028l-78.94 182.419c-2.973 6.87-1.031 14.878 4.758 19.624l13.684 11.215 35.555 25.741 81.785-150.165z" fill="#e1d3ce"/><g><path d="m151.317 200.588-18.26 243.218 40.883 14.712h44.779l22.107-201.668c.16-1.46.68-2.86 1.5-4.08l21.94-32.43v-28.827z" fill="#f3eae6"/><g id="XMLID_115_"><path d="m401.497 32.691h-203.45l-72.75 164.55-44.59 41.97-19.218 211.262 17.834 19.063 93.519-1.363 2.015-17.702 21.72-205.2c.87-8.2 7.11-14.82 15.25-16.18l52.44-8.75 137.293-22.92c-.041-.342 14.715-16.75 14.715-16.75v-122.925z" fill="#f9f3f1"/><g><path d="m437.427 51.021v124.89c0 8.96-6.48 16.61-15.32 18.08l-20.61 3.441v-.551-164.19h17.59c10.13 0 18.34 8.21 18.34 18.33z" fill="#f3eae6"/></g><path d="m71.555 460.822 41.307-.525 18.02-198.085c1.415-15.555 8.476-30.053 19.849-40.758l17.996-16.939c5.901-5.554 10.629-12.234 13.906-19.646l67.28-152.178h-51.866l-72.75 164.55-44.59 41.97-19.218 211.262z" fill="#f3eae6"/><g><g id="XMLID_116_"><g><path d="m219.597 450.471-2.5 22.85c-1.49 13.59-12.98 23.89-26.65 23.89h-20.91-82.94c-15.76 0-28.13-13.54-26.7-29.24l1.59-17.5z" fill="#e1d3ce"/></g></g></g></g><path d="m351.255 128.567h-124.215c-5.195 0-9.406-4.211-9.406-9.406v-45.962c0-5.195 4.211-9.406 9.406-9.406h124.215c5.195 0 9.406 4.211 9.406 9.406v45.962c0 5.195-4.212 9.406-9.406 9.406z" fill="#e1d3ce"/><path d="m287.351 108.233c-20.752 0-37.575-16.823-37.575-37.575v-6.865h-22.736c-5.195 0-9.406 4.211-9.406 9.406v45.962c0 5.195 4.211 9.406 9.406 9.406h124.215c5.195 0 9.406-4.211 9.406-9.406v-10.928z" fill="#cdbfba"/><g><path d="m354.862 172.599h-15.463c-4.142 0-7.5-3.358-7.5-7.5s3.358-7.5 7.5-7.5h15.463c4.142 0 7.5 3.358 7.5 7.5s-3.358 7.5-7.5 7.5z" fill="#f3eae6"/></g><g><path d="m313.789 172.599h-96.155c-4.142 0-7.5-3.358-7.5-7.5s3.358-7.5 7.5-7.5h96.155c4.142 0 7.5 3.358 7.5 7.5s-3.358 7.5-7.5 7.5z" fill="#f3eae6"/></g><g fill="#e1d3ce"><path d="m225.227 263.809c-4.142 0-7.5 3.358-7.5 7.5s3.358 7.5 7.5 7.5h13.193l1.644-15z"/><path d="m219.6 311.077c-4.142 0-7.5 3.358-7.5 7.5s3.358 7.5 7.5 7.5h13.638l1.644-15z"/><path d="m229.701 358.346h-15.727c-4.142 0-7.5 3.358-7.5 7.5s3.358 7.5 7.5 7.5h14.083z"/><path d="m224.519 405.613h-16.172c-4.142 0-7.5 3.358-7.5 7.5s3.358 7.5 7.5 7.5h14.527z"/></g></g><path d="m145.575 497.211-12.067-1.703c-13.046-2.696-22.501-14.846-21.241-28.679l1.488-16.358h-52.268l-1.59 17.5c-1.43 15.7 10.94 29.24 26.7 29.24h51.449z" fill="#cdbfba"/></g></svg>