<svg id="Capa_1" enable-background="new 0 0 503.509 503.509" height="512" viewBox="0 0 503.509 503.509" width="512" xmlns="http://www.w3.org/2000/svg"><g><path d="m260.45 95.656h-55.155v-74.827c0-7.361 5.968-13.329 13.329-13.329h28.497c7.361 0 13.329 5.968 13.329 13.329z" fill="#f9f3f1"/><path d="m229.839 58.655c-3.94 0-7.134-3.194-7.134-7.134v-30.692c0-7.361 5.968-13.329 13.329-13.329h-17.41c-7.361 0-13.329 5.968-13.329 13.329v74.826h15.369 2.04 37.745v-37z" fill="#f3eae6"/><path d="m276.86 130.518h-86.974v-39.173c0-7.008 5.681-12.689 12.689-12.689h61.596c7.008 0 12.689 5.681 12.689 12.689z" fill="#f9f3f1"/><path d="m219.56 96.519c-2.362 0-4.271-1.915-4.271-4.278v-.897c0-7.008 5.681-12.689 12.689-12.689h-25.403c-7.008 0-12.689 5.681-12.689 12.689v39.174h86.974v-33.991c-.095-.001-43.364-.006-57.3-.008z" fill="#f3eae6"/><path d="m290.354 170.458h-114.939v-45.107c0-7.64 6.193-13.833 13.833-13.833h87.272c7.64 0 13.833 6.193 13.833 13.833v45.107z" fill="#f9f3f1"/><g id="XMLID_34_"><g><path d="m216.229 137.459c-4.194 0-7.593-3.4-7.593-7.593v-4.515c0-7.64 6.193-13.833 13.833-13.833h-33.221c-7.64 0-13.833 6.193-13.833 13.833v45.106h114.939v-32.947c-.357-.015-74.125-.051-74.125-.051z" fill="#f3eae6"/><path d="m358.113 255.629v-19.05c0-8.24-3.32-16.13-9.2-21.89l-57.489-56.356c-.571-.56-1.34-.874-2.14-.874h-112.823c-.8 0-1.569.314-2.14.874l-57.489 56.356c-5.88 5.76-9.2 13.65-9.2 21.89v19.05l22.535 23.799v154.952l-22.535 15.269v7.77c0 25.455 20.635 46.09 46.09 46.09h158.31c25.449 0 46.08-20.631 46.08-46.08v-7.78l-17.902-11.986v-162.857z" fill="#a7eedc"/></g></g><g><path d="m232.873 47.146c-4.143 0-7.5-3.358-7.5-7.5v-4.925c0-4.142 3.357-7.5 7.5-7.5s7.5 3.358 7.5 7.5v4.925c0 4.142-3.358 7.5-7.5 7.5z" fill="#efe2dd"/></g><path d="m180.615 214.689 57.488-56.356c.572-.56 1.34-.874 2.14-.874h-63.783c-.8 0-1.569.314-2.14.874l-57.489 56.356c-5.88 5.76-9.2 13.65-9.2 21.89v19.05l36.989 36.519v139.342l-36.989 18.16v7.77c0 25.455 20.635 46.09 46.09 46.09h63.783c-25.455 0-46.09-20.635-46.09-46.09v-220.84c.001-8.241 3.321-16.131 9.201-21.891z" fill="#86e8d0"/><g id="XMLID_72_"><g><path d="m107.633 255.629h250.48v194.02h-250.48z" fill="#f3f0f3"/></g></g><path d="m107.633 255.629h63.783v194.02h-63.783z" fill="#f3eae6"/><path d="m291.128 333.216h-33.103c-2.888 0-5.229-2.341-5.229-5.229v-33.103c0-2.888-2.341-5.229-5.229-5.229h-28.389c-2.888 0-5.229 2.341-5.229 5.229v33.103c0 2.888-2.341 5.229-5.229 5.229h-33.103c-2.888 0-5.229 2.341-5.229 5.229v28.389c0 2.888 2.341 5.229 5.229 5.229h33.103c2.888 0 5.229 2.341 5.229 5.229v33.103c0 2.888 2.341 5.229 5.229 5.229h28.389c2.888 0 5.229-2.341 5.229-5.229v-33.103c0-2.888 2.341-5.229 5.229-5.229h33.103c2.888 0 5.229-2.341 5.229-5.229v-28.389c0-2.888-2.341-5.229-5.229-5.229z" fill="#86e8d0"/><g><path d="m319.288 53.924h-7.745c-4.143 0-7.5-3.358-7.5-7.5s3.357-7.5 7.5-7.5h7.745c4.143 0 7.5 3.358 7.5 7.5s-3.358 7.5-7.5 7.5z" fill="#a7eedc"/></g><g><path d="m349.424 78.575h-7.745c-4.143 0-7.5-3.358-7.5-7.5s3.357-7.5 7.5-7.5h7.745c4.143 0 7.5 3.358 7.5 7.5s-3.358 7.5-7.5 7.5z" fill="#a7eedc"/></g><g><path d="m349.424 29.274h-7.745c-4.143 0-7.5-3.358-7.5-7.5s3.357-7.5 7.5-7.5h7.745c4.143 0 7.5 3.358 7.5 7.5s-3.358 7.5-7.5 7.5z" fill="#a7eedc"/></g><g><path d="m388.377 92.848h-7.746c-4.143 0-7.5-3.358-7.5-7.5s3.357-7.5 7.5-7.5h7.746c4.143 0 7.5 3.358 7.5 7.5s-3.358 7.5-7.5 7.5z" fill="#a7eedc"/></g><g><path d="m388.377 15h-7.746c-4.143 0-7.5-3.358-7.5-7.5s3.357-7.5 7.5-7.5h7.746c4.143 0 7.5 3.358 7.5 7.5s-3.358 7.5-7.5 7.5z" fill="#a7eedc"/></g><g><path d="m388.377 53.924h-7.746c-4.143 0-7.5-3.358-7.5-7.5s3.357-7.5 7.5-7.5h7.746c4.143 0 7.5 3.358 7.5 7.5s-3.358 7.5-7.5 7.5z" fill="#a7eedc"/></g></g></svg>