<svg id="Capa_1" enable-background="new 0 0 494.56 494.56" height="512" viewBox="0 0 494.56 494.56" width="512" xmlns="http://www.w3.org/2000/svg"><g><path d="m457.16 100.04h-414.76l-42.4 33.7v285.19c0 17.45 14.14 31.59 31.59 31.59h431.38c17.45 0 31.59-14.14 31.59-31.59v-285.19z" fill="#f9f3f1"/><path d="m82.16 418.93v-318.89h-39.76l-42.4 33.7v285.19c0 17.45 14.14 31.59 31.59 31.59h82.16c-17.45 0-31.59-14.14-31.59-31.59z" fill="#f3eae6"/><g id="XMLID_131_"><g><path d="m494.56 97.92v35.82h-494.56v-35.82c0-17.44 14.14-31.58 31.59-31.58h69.38 48.77 48.77 48.77 48.77 48.77 48.77 69.38c17.45 0 31.59 14.14 31.59 31.58z" fill="#f79595"/></g></g><path d="m82.16 97.92c0-17.44 14.14-31.58 31.59-31.58h-12.78-69.38c-17.45 0-31.59 14.14-31.59 31.58v35.82h82.16z" fill="#f37c7c"/><g><path d="m247.28 86.05c-4.143 0-7.5-3.358-7.5-7.5v-27.01c0-4.142 3.357-7.5 7.5-7.5s7.5 3.358 7.5 7.5v27.01c0 4.142-3.357 7.5-7.5 7.5z" fill="#e1d3ce"/></g><g><path d="m198.51 86.05c-4.143 0-7.5-3.358-7.5-7.5v-27.01c0-4.142 3.357-7.5 7.5-7.5s7.5 3.358 7.5 7.5v27.01c0 4.142-3.357 7.5-7.5 7.5z" fill="#e1d3ce"/></g><g><path d="m149.74 86.05c-4.143 0-7.5-3.358-7.5-7.5v-27.01c0-4.142 3.357-7.5 7.5-7.5s7.5 3.358 7.5 7.5v27.01c0 4.142-3.357 7.5-7.5 7.5z" fill="#e1d3ce"/></g><g><path d="m100.97 86.05c-4.143 0-7.5-3.358-7.5-7.5v-27.01c0-4.142 3.357-7.5 7.5-7.5s7.5 3.358 7.5 7.5v27.01c0 4.142-3.357 7.5-7.5 7.5z" fill="#e1d3ce"/></g><g><path d="m296.05 86.05c-4.143 0-7.5-3.358-7.5-7.5v-27.01c0-4.142 3.357-7.5 7.5-7.5s7.5 3.358 7.5 7.5v27.01c0 4.142-3.358 7.5-7.5 7.5z" fill="#e1d3ce"/></g><g><path d="m344.82 86.05c-4.143 0-7.5-3.358-7.5-7.5v-27.01c0-4.142 3.357-7.5 7.5-7.5s7.5 3.358 7.5 7.5v27.01c0 4.142-3.357 7.5-7.5 7.5z" fill="#e1d3ce"/></g><g><path d="m393.59 86.05c-4.143 0-7.5-3.358-7.5-7.5v-27.01c0-4.142 3.357-7.5 7.5-7.5s7.5 3.358 7.5 7.5v27.01c0 4.142-3.358 7.5-7.5 7.5z" fill="#e1d3ce"/></g><path d="m53.79 263.89 13.6-13.59c1.38-1.39 3.74-.41 3.74 1.55v123.79c0 1.21.99 2.2 2.2 2.2h28.03c1.21 0 2.19-.99 2.19-2.2v-161.63c0-1.22-.98-2.2-2.19-2.2h-36.73c-.58 0-1.14.23-1.55.64l-30.53 30.53c-.86.86-.86 2.26.01 3.12l18.14 17.8c.86.85 2.24.84 3.09-.01z" fill="#f79595"/><path d="m191.63 211.81c-.82 0-1.55.49-1.86 1.25l-49.8 122.34c-.54 1.32.43 2.76 1.85 2.76h50.46c1.1 0 2 .9 2 2.01v38.67c0 1.11.9 2.01 2 2.01h30.3c1.11 0 2-.9 2-2.01v-31.86c0-1.11.9-2 2.01-2h22.48c1.11 0 2.01-.9 2.01-2.01v-28.31c0-1.11-.9-2.01-2.01-2.01h-18.56c-1.1 0-2-.89-2-2v-25.96-70.46c0-1.33-1.09-2.42-2.42-2.42z" fill="#f79595"/><g><path d="m197.45 310.8c-4.143 0-7.5-3.358-7.5-7.5v-29.79c0-4.142 3.357-7.5 7.5-7.5s7.5 3.358 7.5 7.5v29.79c0 4.142-3.357 7.5-7.5 7.5z" fill="#f37c7c"/></g><g fill="#e1d3ce"><path d="m298.84 255.7h-8.979c-4.143 0-7.5 3.358-7.5 7.5v54.21c0 4.142 3.357 7.5 7.5 7.5h8.979c9.239 0 17.928-3.6 24.464-10.137s10.137-15.229 10.137-24.473c-.001-19.078-15.522-34.6-34.601-34.6zm13.856 48.467c-3.703 3.704-8.624 5.743-13.856 5.743h-1.479v-39.21h1.479c10.808 0 19.601 8.792 19.601 19.6-.001 5.239-2.041 10.163-5.745 13.867z"/><path d="m374.5 255.7c-6.948 0-13.48 2.705-18.394 7.617-4.911 4.912-7.616 11.444-7.616 18.393v35.7c0 4.142 3.357 7.5 7.5 7.5s7.5-3.358 7.5-7.5v-16.56h22.03v16.56c0 4.142 3.357 7.5 7.5 7.5s7.5-3.358 7.5-7.5v-35.7c0-14.342-11.673-26.01-26.02-26.01zm-11.01 30.15v-4.14c0-2.942 1.145-5.708 3.223-7.786 2.079-2.079 4.845-3.224 7.787-3.224 6.077 0 11.021 4.939 11.021 11.01v4.14z"/><path d="m460.44 255.7c-4.143 0-7.5 3.358-7.5 7.5v18.75c0 6.203-5.047 11.25-11.25 11.25-3.001 0-5.829-1.172-7.949-3.286-2.129-2.134-3.301-4.963-3.301-7.964v-18.75c0-4.142-3.357-7.5-7.5-7.5s-7.5 3.358-7.5 7.5v18.75c0 7 2.728 13.59 7.694 18.57 3.138 3.13 6.926 5.368 11.056 6.594v10.296c0 4.142 3.357 7.5 7.5 7.5s7.5-3.358 7.5-7.5v-10.307c10.831-3.235 18.75-13.284 18.75-25.153v-18.75c0-4.142-3.357-7.5-7.5-7.5z"/></g></g></svg>