<svg id="Capa_1" enable-background="new 0 0 497.919 497.919" height="512" viewBox="0 0 497.919 497.919" width="512" xmlns="http://www.w3.org/2000/svg"><g><g><g id="XMLID_162_"><g><path d="m293.829 182.789-103.41 178.05-25.02-14.81-25.04-19.12c-7.97-6.08-14.22-14.13-18.14-23.35l-4.08-9.62-66.92-40.98-35.01-21.9 37.26-101.79 24.15 16.76 66.59 35.43 7.72-7.49c10.46-10.15 24.46-15.83 39.04-15.83h24.33c7.19 0 14.31 1.38 20.97 4.07l12.69 5.12z" fill="#ffe5c2"/></g></g></g><path d="m191.609 321.362-25.04-19.12c-7.97-6.08-14.22-14.13-18.14-23.35l-.607-1.432c-2.259-5.325-6.124-9.812-11.057-12.833l-59.335-36.335-35.01-21.9 24.75-67.615-13.7-9.508-37.26 101.79 35.01 21.9 66.92 40.98 4.08 9.62c3.92 9.22 10.17 17.27 18.14 23.35l25.04 19.12 25.02 14.81 17.367-29.902z" fill="#fed2a4"/><g><g id="XMLID_163_"><g><g><path d="m467.559 193.049-18.9-56.09-25.13 14.94-44.09 30.71c-5.04 3.52-11.88 2.91-16.23-1.44l-2.61-2.6c-8.82-8.83-20.36-14.32-32.65-15.67h-.001l-47.65 82.532v-.003l9.549 96.596h67.77l17.942-15.565 21.51-20.56c9.57-9.16 16.25-20.92 19.19-33.84l32.4-19.1 34.64-13.22z" fill="#fed2a4"/></g><g fill="#ffe5c2"><path d="m372.769 327.319c4.36 7.26 3.63 16.78-2.35 23.31-3.85 4.2-9.13 6.34-14.43 6.34-4.6 0-9.22-1.61-12.93-4.89l-32.24-28.42-71.25-65.82.13-.2 22.3-34.2 25.72 20.03 81.94 79.93c1.22 1.2 2.26 2.52 3.11 3.92z"/><path d="m310.819 323.659 22.7 20.03c8.22 7.25 8.76 19.88 1.2 27.81-3.8 3.98-8.89 5.98-13.98 5.98-4.82 0-9.64-1.79-13.39-5.39l-7.77-7.47c-.5-.63-1.07-1.23-1.68-1.79l-4.03-3.71-.04-.03-15.69-15.09-58.65-55.38 20.08-30.78z"/><path d="m293.869 359.119 5.71 5.5c5.46 6.66 5.17 16.54-1.06 22.87-3.34 3.4-7.78 5.13-12.24 5.13-3.75 0-7.51-1.23-10.65-3.71l-13.63-10.38-.06-.05-11.08-9.7-52.76-47.36 21.39-32.8 58.65 55.38 15.69 15.09z"/><path d="m267.079 382.969c6.72 5.89 7.41 16.1 1.55 22.83-3.19 3.66-7.69 5.56-12.23 5.56-3.44 0-6.89-1.09-9.82-3.32l-40-30.55-30.02-23.05 21.54-33.02 52.76 47.36 11.08 9.7.06.05z"/></g><path d="m271.384 399.439c-3.44 0-6.89-1.09-9.82-3.32l-40-30.55-30.02-23.05 11.102-17.019-4.547-4.081-21.54 33.02 30.02 23.05 40 30.55c2.93 2.23 6.38 3.32 9.82 3.32 4.54 0 9.04-1.9 12.23-5.56 1.662-1.909 2.797-4.117 3.417-6.408-.215.008-.446.048-.662.048z" fill="#fed2a4"/></g></g></g><path d="m489.379 184.539c-35.58-132.77-172.06-211.57-304.84-176-132.77 35.58-211.57 172.06-176 304.84 35.58 132.77 172.06 211.57 304.84 176 132.77-35.58 211.57-172.06 176-304.84zm-354.19 213.82c-3.23 5.59-10.73 6.88-15.65 2.7-29.85-25.35-52.57-59.72-63.47-100.42-4.27-15.92-6.5-31.89-6.85-47.64-2.06-89.95 57.09-172.56 148.06-196.93 40.69-10.9 81.82-8.42 118.7 4.76 6.08 2.17 8.71 9.31 5.48 14.9l-49.68 86.05-106.38 184.25zm313.47-145.4c-1.69 86.64-60.12 165.34-148.02 188.89-40.12 10.75-80.66 8.47-117.14-4.22-6.12-2.13-8.8-9.31-5.55-14.93l26.73-46.3 78.702-136.315-.176-4.805 37.988-70.311 6.755-2.069h.001l35.97-62.31c3.24-5.61 10.8-6.89 15.7-2.65 17.45 15.06 32.4 33.23 43.91 53.96 7.78 14.01 13.99 29.2 18.32 45.38 4.99 18.62 7.17 37.32 6.81 55.68z" fill="#f79595"/><g fill="#fed2a4"><path d="m321.979 162.569h-49.87-.33-.29c-5.72 0-11.3 1.77-15.99 5.06l-39.32 27.65c-9.42 6.63-15.33 17.19-16.04 28.69l-.9 14.45c-.03.5-.05.99-.05 1.48 0 9.76 5.94 18.22 14.47 21.84 2.84 1.21 5.98 1.88 9.27 1.88 11.24 0 20.94-7.88 23.24-18.88l2.79-13.37 20.626-3.894c5.047-.953 10.033 1.922 11.738 6.766l2.058 5.849 44.567-77.192c-1.969-.219-3.969-.329-5.969-.329z"/><path d="m285.316 373.769-13.63-10.38-3.158-2.777c-5.59-4.916-14.229-3.785-18.365 2.403l-2.147 3.212 13.923 12.252.06.05 13.63 10.38c3.14 2.48 6.9 3.71 10.65 3.71 4.46 0 8.9-1.73 12.24-5.13 3.223-3.274 4.856-7.508 4.926-11.745-2.347 1.134-4.913 1.735-7.479 1.735-3.75 0-7.51-1.23-10.65-3.71z"/><path d="m365.676 341.829c-4.6 0-9.22-1.61-12.93-4.89l-30.074-26.835c-7.257-6.476-18.415-5.741-24.76 1.631l12.908 11.924 32.24 28.42c3.71 3.28 8.33 4.89 12.93 4.89 5.3 0 10.58-2.14 14.43-6.34 3.002-3.279 4.68-7.311 5.055-11.433-3.012 1.741-6.399 2.633-9.799 2.633z"/><path d="m330.426 362.339c-4.82 0-9.64-1.79-13.39-5.39l-7.77-7.47c-.5-.63-1.07-1.23-1.68-1.79l-4.03-3.71-.04-.03-7.983-7.626c-6.747-6.446-17.677-5.247-22.866 2.509l21.162 20.257.04.03 4.03 3.71c.61.56 1.18 1.16 1.68 1.79l7.77 7.47c3.75 3.6 8.57 5.39 13.39 5.39 5.09 0 10.18-2 13.98-5.98 3.164-3.319 4.911-7.476 5.268-11.702-2.948 1.675-6.262 2.542-9.561 2.542z"/></g></g></svg>