<svg id="Capa_1" enable-background="new 0 0 498.044 498.044" height="512" viewBox="0 0 498.044 498.044" width="512" xmlns="http://www.w3.org/2000/svg"><g><path d="m436.399 38.266c12.833 0 23.237 10.403 23.237 23.236v413.305c0 12.833-10.403 23.236-23.237 23.236h-374.754c-12.833 0-23.237-10.403-23.237-23.236v-413.304c0-12.833 10.403-23.236 23.237-23.236h374.754z" fill="#e1d3ce"/><path d="m145.55 498.044c-12.833 0-23.237-10.403-23.237-23.236v-413.306c0-12.831 10.401-23.234 23.232-23.236h-83.9c-12.833 0-23.237 10.403-23.237 23.236v413.305c0 12.833 10.403 23.236 23.237 23.236h374.754.005-290.854z" fill="#cdbfba"/><path d="m145.116 38.266v23.995c0 19.039 15.49 34.528 34.529 34.528h138.754c19.039 0 34.528-15.489 34.528-34.528v-23.995z" fill="#cdbfba"/><path d="m429.635 78.418v379.474c0 5.607-4.545 10.152-10.152 10.152h-340.923c-5.607 0-10.152-4.545-10.152-10.152v-379.474c0-5.607 4.545-10.152 10.152-10.152h340.923c5.607 0 10.152 4.545 10.152 10.152z" fill="#faf7f7"/><path d="m78.56 468.043h43.754v-399.777h-43.754c-5.607 0-10.152 4.545-10.152 10.152v379.474c0 5.606 4.545 10.151 10.152 10.151z" fill="#f9f3f1"/><path d="m145.649 68.266c2.852 16.185 17.005 28.523 33.995 28.523h138.754c16.99 0 31.143-12.338 33.995-28.523z" fill="#f9f3f1"/><path d="m318.399 23.596h-19.776c-2.768 0-5.141-1.976-5.643-4.699l-1.397-7.586c-1.206-6.553-6.92-11.311-13.584-11.311h-57.954c-6.664 0-12.378 4.758-13.585 11.312l-1.397 7.586c-.501 2.722-2.875 4.699-5.643 4.699h-19.776c-8.024 0-14.529 6.505-14.529 14.529v24.136c0 8.024 6.505 14.529 14.529 14.529h138.755c8.024 0 14.529-6.505 14.529-14.529v-24.137c-.001-8.024-6.505-14.529-14.529-14.529z" fill="#a6e7f0"/><g><path d="m190.591 72.65v-24.136c0-8.024 6.505-14.529 14.529-14.529h19.776c2.768 0 5.141-1.976 5.643-4.699l1.397-7.586c1.207-6.554 6.921-11.312 13.584-11.312l45.858.006c-1.551-6.07-7.034-10.394-13.379-10.394h-57.954c-6.664 0-12.378 4.758-13.585 11.312l-1.397 7.586c-.501 2.722-2.875 4.699-5.643 4.699h-19.776c-8.024 0-14.529 6.505-14.529 14.529v24.136c0 8.024 6.505 14.529 14.529 14.529h11.553c-.389-1.314-.606-2.702-.606-4.141z" fill="#6bd9e7"/></g><g><path d="m264.2 48.784h-29.435c-4.142 0-7.5-3.358-7.5-7.5s3.358-7.5 7.5-7.5h29.435c4.143 0 7.5 3.358 7.5 7.5s-3.358 7.5-7.5 7.5z" fill="#6bd9e7"/></g><path d="m375.611 143.279h-23.831v-23.831c0-2.099-1.702-3.801-3.801-3.801h-30.103c-2.099 0-3.801 1.702-3.801 3.801v23.831h-23.831c-2.099 0-3.801 1.702-3.801 3.801v30.103c0 2.099 1.702 3.801 3.801 3.801h23.831v23.831c0 2.099 1.702 3.801 3.801 3.801h30.103c2.099 0 3.801-1.702 3.801-3.801v-23.831h23.831c2.099 0 3.801-1.702 3.801-3.801v-30.103c0-2.1-1.702-3.801-3.801-3.801z" fill="#f79595"/><path d="m117.816 187.745h124.564c3.945 0 7.142-3.198 7.142-7.142v-36.943c0-3.945-3.198-7.142-7.142-7.142h-124.564c-3.945 0-7.142 3.198-7.142 7.142v36.943c0 3.944 3.198 7.142 7.142 7.142z" fill="#f3eae6"/><g><path d="m375.411 257.021h-252.884c-4.142 0-7.5-3.358-7.5-7.5s3.358-7.5 7.5-7.5h252.884c4.143 0 7.5 3.358 7.5 7.5s-3.357 7.5-7.5 7.5z" fill="#f3eae6"/></g><g><path d="m331.73 308.155h-165.521c-4.142 0-7.5-3.358-7.5-7.5s3.358-7.5 7.5-7.5h165.521c4.143 0 7.5 3.358 7.5 7.5s-3.358 7.5-7.5 7.5z" fill="#f3eae6"/></g><g><path d="m375.411 359.289h-252.884c-4.142 0-7.5-3.358-7.5-7.5s3.358-7.5 7.5-7.5h252.884c4.143 0 7.5 3.358 7.5 7.5s-3.357 7.5-7.5 7.5z" fill="#f3eae6"/></g><g><path d="m375.411 410.423h-252.884c-4.142 0-7.5-3.358-7.5-7.5s3.358-7.5 7.5-7.5h252.884c4.143 0 7.5 3.358 7.5 7.5s-3.357 7.5-7.5 7.5z" fill="#f3eae6"/></g><g><path d="m139.863 308.155h-17.336c-4.142 0-7.5-3.358-7.5-7.5s3.358-7.5 7.5-7.5h17.336c4.142 0 7.5 3.358 7.5 7.5s-3.358 7.5-7.5 7.5z" fill="#f3eae6"/></g><g><path d="m376.516 308.155h-17.335c-4.143 0-7.5-3.358-7.5-7.5s3.357-7.5 7.5-7.5h17.335c4.143 0 7.5 3.358 7.5 7.5s-3.357 7.5-7.5 7.5z" fill="#f3eae6"/></g></g></svg>