<svg id="Capa_1" enable-background="new 0 0 498.158 498.158" height="512" viewBox="0 0 498.158 498.158" width="512" xmlns="http://www.w3.org/2000/svg"><g><path d="m433.982 309.196v25.621c0 4.131 2.021 8.002 5.411 10.363l32.681 22.763c16.343 11.383 26.085 30.04 26.085 49.957v18.41c0 5.439-3.862 10.13-9.207 11.142-53.737 10.175-107.474 10.175-161.211 0-5.344-1.012-9.207-5.703-9.207-11.142v-18.41c0-19.917 9.742-38.574 26.085-49.957l32.681-22.763c3.39-2.361 5.411-6.231 5.411-10.363v-25.621-46.172h51.502z" fill="#ffe5c2"/><path d="m115.448 309.196v25.621c0 4.131 2.021 8.002 5.411 10.363l32.681 22.763c16.343 11.383 26.085 30.04 26.085 49.957v18.41c0 5.439-3.862 10.13-9.207 11.142-53.737 10.175-107.474 10.175-161.211 0-5.345-1.012-9.207-5.702-9.207-11.142v-18.41c0-19.917 9.742-38.574 26.085-49.957l32.681-22.763c3.39-2.361 5.411-6.231 5.411-10.363v-25.621-36.378h52.235z" fill="#ffe5c2"/><g><path d="m64.176 304.982v29.836c0 4.131-2.021 8.002-5.411 10.363l-32.681 22.763c-16.342 11.383-26.084 30.04-26.084 49.957v18.409c0 5.429 3.841 10.126 9.175 11.136 4.747.899 9.494 1.715 14.241 2.455v-14.857c0-19.917 9.742-38.574 26.085-49.957l32.681-22.763c3.39-2.361 5.411-6.231 5.411-10.363v-14.058c0-4.69 3.441-8.682 8.084-9.344 6.451-.92 15.139-2.495 19.772-4.638v-14.724l.112-4.214h-51.385z" fill="#fed2a4"/><path d="m382.71 304.982v4.214 25.621c0 4.131-2.021 8.002-5.411 10.363l-32.681 22.763c-16.343 11.383-26.084 30.04-26.084 49.957v18.41c0 5.472 3.911 10.14 9.287 11.157 4.365.826 8.73 1.577 13.095 2.268v-11.28c0-19.916 9.742-38.574 26.085-49.957l32.681-22.763c3.39-2.361 5.411-6.231 5.411-10.363v-17.025c0-4.945 3.638-9.135 8.536-9.817 6.765-.942 15.81-2.508 20.354-4.611v-14.724l.021-4.214h-51.294z" fill="#fed2a4"/><path d="m89.812 206.279c-25.554 0-46.269 20.715-46.269 46.269v15.746c0 10.991 3.84 21.08 10.24 29.017.465.271 16.269 9.461 16.528 9.634.263.175 26.413 5.792 26.413 5.792l8.385-.763c18.059-6.304 30.97-23.471 30.97-43.68v-15.746c.002-25.554-20.713-46.269-46.267-46.269z" fill="#ffe5c2"/><path d="m74.08 268.294v-15.746c0-20.202 12.974-37.373 31.023-43.682-4.782-1.672-9.939-2.586-15.291-2.586-25.553 0-46.269 20.715-46.269 46.269v15.746c0 25.553 20.715 46.269 46.269 46.269 5.352 0 10.517-.917 15.298-2.589-18.048-6.311-31.03-23.48-31.03-43.681z" fill="#fed2a4"/><path d="m408.346 206.279c-25.554 0-46.269 20.715-46.269 46.269v15.746c0 13.394 5.698 25.452 14.794 33.901l4.419-2.171 27.655 11.274 10.118 1.253 4.552-.567c18.054-6.306 31-23.484 31-43.69v-15.746c0-25.554-20.715-46.269-46.269-46.269z" fill="#ffe5c2"/><path d="m392.614 268.294v-15.746c0-20.202 12.978-37.371 31.027-43.681-4.782-1.672-9.944-2.588-15.295-2.588-25.553 0-46.269 20.715-46.269 46.269v15.746c0 25.553 20.715 46.269 46.269 46.269 5.352 0 10.532-.923 15.314-2.594-18.049-6.31-31.046-23.474-31.046-43.675z" fill="#fed2a4"/><path d="m288.61 416.987-10.99-16.047c-2.34-3.417-7.007-4.291-10.426-1.95-3.417 2.341-4.29 7.008-1.949 10.426l2.951 4.309h-38.234l2.951-4.309c2.341-3.417 1.468-8.085-1.949-10.426-3.418-2.34-8.085-1.467-10.426 1.95l-10.99 16.047c-1.75 2.554-1.75 5.921 0 8.476l10.99 16.047c1.453 2.122 3.803 3.263 6.194 3.263 1.46 0 2.936-.425 4.231-1.313 3.417-2.341 4.29-7.008 1.949-10.426l-2.951-4.309h38.234l-2.951 4.309c-2.341 3.417-1.468 8.085 1.949 10.426 1.296.887 2.771 1.313 4.231 1.313 2.392 0 4.741-1.141 6.194-3.263l10.99-16.047c1.752-2.554 1.752-5.921.002-8.476z" fill="#f79595"/><path d="m483.839 139.509-10.99-16.047c-2.34-3.417-7.008-4.291-10.426-1.95-3.417 2.341-4.29 7.008-1.949 10.426l2.951 4.309h-428.691l2.951-4.309c2.341-3.417 1.468-8.085-1.949-10.426-3.419-2.34-8.085-1.467-10.426 1.95l-10.99 16.047c-1.75 2.554-1.75 5.921 0 8.476l10.99 16.047c1.453 2.122 3.803 3.263 6.194 3.263 1.46 0 2.936-.425 4.231-1.313 3.417-2.341 4.29-7.008 1.949-10.426l-2.951-4.31h428.691l-2.951 4.31c-2.341 3.417-1.468 8.085 1.949 10.426 1.296.887 2.771 1.313 4.231 1.313 2.392 0 4.741-1.141 6.194-3.263l10.99-16.047c1.752-2.554 1.752-5.921.002-8.476z" fill="#f79595"/><g><path d="m212.305 110.426h-25.812c-2.97 0-5.659-1.752-6.859-4.468-1.201-2.716-.686-5.885 1.313-8.081l22.26-24.455c1.031-1.132 1.599-2.599 1.599-4.129v-5.085c0-3.382-2.751-6.133-6.133-6.133s-6.133 2.751-6.133 6.133v4.544c0 4.142-3.357 7.5-7.5 7.5s-7.5-3.358-7.5-7.5v-4.544c0-11.653 9.48-21.133 21.133-21.133s21.133 9.48 21.133 21.133v5.085c0 5.274-1.955 10.326-5.506 14.226l-10.837 11.906h8.843c4.143 0 7.5 3.358 7.5 7.5s-3.359 7.501-7.501 7.501z" fill="#e1d3ce"/></g><g><path d="m294.465 110.426c-4.143 0-7.5-3.358-7.5-7.5v-31.114l-3.386 4.196c-1.366 1.693-3.4 2.709-5.574 2.786-2.185.075-4.274-.796-5.755-2.389l-6.275-6.749v33.27c0 4.142-3.357 7.5-7.5 7.5s-7.5-3.358-7.5-7.5v-52.35c0-3.083 1.887-5.852 4.756-6.98 2.872-1.13 6.137-.384 8.236 1.873l13.374 14.383 11.287-13.986c1.998-2.475 5.337-3.42 8.335-2.362 2.997 1.059 5.002 3.893 5.002 7.072v52.351c0 4.141-3.358 7.499-7.5 7.499z" fill="#e1d3ce"/></g><g><path d="m325.185 110.426h-3.453c-4.143 0-7.5-3.358-7.5-7.5s3.357-7.5 7.5-7.5h3.453c4.143 0 7.5 3.358 7.5 7.5s-3.358 7.5-7.5 7.5z" fill="#e1d3ce"/></g></g></g></svg>