<svg id="Capa_1" enable-background="new 0 0 498.175 498.175" height="512" viewBox="0 0 498.175 498.175" width="512" xmlns="http://www.w3.org/2000/svg"><g><g><path d="m9.346 498.175c-1.934 0-3.865-.743-5.333-2.226-2.912-2.945-2.886-7.694.06-10.606l90.807-89.807 34.152-33.537c2.956-2.902 7.704-2.858 10.606.097 2.902 2.956 2.858 7.704-.097 10.606l-34.134 33.518-90.788 89.788c-1.461 1.445-3.368 2.167-5.273 2.167z" fill="#f9f3f1"/></g><path d="m432.923 32.718-11.987 14.336-35.612 35.613-57.827 3.27-20.419 1.315 5.463 32.774 74.995 74.995 23.933-6.413-1.077-19.776 3.271-57.826 35.612-35.613 11.099-17.988z" fill="#f9f3f1"/><path d="m126.573 338.741-21.726 15.817-16.416 16.416c-5.019 5.019-5.019 13.156 0 18.175l23.441 23.441c5.019 5.019 13.156 5.019 18.175 0l16.416-16.416 18.218-19.325z" fill="#fee97d"/><path d="m320.855 97.206-25.66 25.04-183.46 183.46c-1.12 1.127-2.003 2.454-2.62 3.9l5.39 11.708 99.21 23.431 61.28-35.129 103.78-103.79 21.13-27.11z" fill="#f9f3f1"/><g><path d="m290.913 117.963 92.144 92.144c6.622 6.622 17.359 6.622 23.981 0l10.324-10.324c6.622-6.622 6.622-17.359 0-23.981l-92.144-92.144c-6.622-6.622-17.359-6.622-23.981 0l-10.324 10.324c-6.622 6.623-6.622 17.359 0 23.981z" fill="#f3eae6"/><path d="m411.064 37.183 48.082 48.082c8.506 8.506 22.297 8.506 30.803 0 8.506-8.506 8.506-22.297 0-30.803l-48.081-48.082c-8.506-8.506-22.297-8.506-30.803 0-8.507 8.506-8.507 22.297-.001 30.803z" fill="#f3eae6"/><g id="XMLID_164_"><g><path d="m343.835 240.776-25.51 25.5-60.86-60.85-22.9-22.55 26.2-26.2 8.44 9.47 74.62 74.62z" fill="#f3eae6"/></g></g><g><g id="XMLID_165_"><g><path d="m287.685 235.636-73.97 73.97h-44.6l96.27-96.27z" fill="#f3eae6"/><path d="m274.985 309.606h-165.87c-.36.82-.62 1.69-.79 2.58l-6.45 34.61c-.47 2.53.33 5.12 2.15 6.94l10.48 10.48 4.863 1.195 16.506 16.506.931 4.598 10.48 10.48c1.82 1.82 4.41 2.62 6.94 2.15l34.61-6.45c2.45-.46 4.71-1.65 6.48-3.41l79.68-79.67z" fill="#fef0ae"/><path d="m213.715 309.606-76.91 76.91-22.3-22.3 54.61-54.61z" fill="#fee97d"/></g></g></g><circle cx="157.286" cy="154.125" fill="#f79595" r="82.564"/><path d="m112.867 154.125c0-39.031 27.143-71.732 63.542-80.343-6.125-1.449-12.555-2.221-19.122-2.221-45.599 0-82.564 36.965-82.564 82.564s36.965 82.564 82.564 82.564c6.568 0 13.032-.785 19.157-2.234-36.4-8.611-63.577-41.298-63.577-80.33z" fill="#f37c7c"/><path d="m193.715 137.172h-19.476v-19.476c0-3.316-2.688-6.005-6.005-6.005h-21.896c-3.316 0-6.005 2.689-6.005 6.005v19.476h-19.476c-3.316 0-6.005 2.688-6.005 6.005v21.896c0 3.317 2.689 6.005 6.005 6.005h19.476v19.476c0 3.316 2.688 6.005 6.005 6.005h21.896c3.317 0 6.005-2.688 6.005-6.005v-19.476h19.476c3.316 0 6.005-2.688 6.005-6.005v-21.896c0-3.316-2.688-6.005-6.005-6.005z" fill="#faf7f7"/></g></g></svg>