<svg id="Capa_1" enable-background="new 0 0 496.42 496.42" height="512" viewBox="0 0 496.42 496.42" width="512" xmlns="http://www.w3.org/2000/svg"><g><path d="m55.53 413.408-22.007 6.019-26.33 26.33c-9.59 9.6-9.59 25.15 0 34.74l4.71 4.72c9.6 9.59 25.15 9.59 34.74 0l26.34-26.33 7.019-21.007z" fill="#f3eae6"/><path d="m483.663 58.907-42.14-42.14c-17.01-17.01-44.58-17.01-61.59 0l6.208 49.984 58.266 58.266 39.256-4.51c17.01-17.01 17.01-44.59 0-61.6z" fill="#f9f3f1"/><path d="m379.932 16.767 103.73 103.74-221.17 221.17c-18.11 18.11-43.07 27.66-68.64 26.28l-28.41-1.54-92.46 92.47-.01-.01-39.45-39.45 96.19-96.19.21-20.04c.24-23.59 9.72-46.14 26.41-62.82z" fill="#a6e7f0"/><path d="m483.663 58.907-.11-.11c-.679 10.154-4.887 20.116-12.648 27.877l-32.421 32.421 5.922 5.922 39.256-4.51c17.011-17.01 17.011-44.59.001-61.6z" fill="#f3eae6"/><path d="m60.225 425.055-26.34 26.33c-8.729 8.729-22.387 9.476-32.01 2.315-3.695 8.91-1.924 19.556 5.318 26.798l4.71 4.72c9.6 9.59 25.15 9.59 34.74 0l26.34-26.33 7.019-21.007-16.302-16.302z" fill="#efe2dd"/><path d="m249.735 307.845c-18.11 18.11-43.07 27.66-68.64 26.28l-14.099-.764c-9.107-.494-17.995 2.909-24.444 9.359l-82.326 82.335-10.54 10.536 23.287 23.287.01.01 92.46-92.47 28.41 1.54c25.57 1.38 50.53-8.17 68.64-26.28l221.17-221.17-23.294-23.296z" fill="#6bd9e7"/><g><path d="m237.961 226.382-29.368 4.315-21.61 21.61c-3.89 3.9-3.89 10.2 0 14.09l47.05 47.05c3.89 3.89 10.2 3.89 14.09 0l21.61-21.61 7.163-26.521z" fill="#cdbfba"/><path d="m422.723 124.767c3.89 3.89 3.89 10.2 0 14.09l-152.99 152.98-61.14-61.14 152.99-152.98c3.89-3.89 10.2-3.89 14.09 0z" fill="#e1d3ce"/><g><path d="m290.54 214.377c-1.919 0-3.839-.732-5.303-2.197-2.929-2.929-2.929-7.678 0-10.606l80.235-80.235c2.929-2.929 7.678-2.929 10.606 0 2.929 2.929 2.929 7.678 0 10.606l-80.235 80.235c-1.465 1.465-3.384 2.197-5.303 2.197z" fill="#cdbfba"/></g><g><path d="m260.529 244.387c-1.919 0-3.839-.732-5.303-2.197-2.929-2.929-2.929-7.678 0-10.606l9.203-9.203c2.929-2.929 7.678-2.929 10.606 0 2.929 2.929 2.929 7.678 0 10.606l-9.203 9.203c-1.464 1.465-3.383 2.197-5.303 2.197z" fill="#cdbfba"/></g></g></g></svg>