<svg id="Capa_1" enable-background="new 0 0 494.771 494.771" height="512" viewBox="0 0 494.771 494.771" width="512" xmlns="http://www.w3.org/2000/svg"><g><path d="m386.793 419.525 5.028 24.852 8.224 31.364c1 3.814 4.447 6.474 8.39 6.474h27.167c3.943 0 7.39-2.66 8.39-6.474l8.224-31.364 4.764-24.852z" fill="#e1d3ce"/><path d="m39.808 427.109 2.746 17.268 8.224 31.364c1 3.814 4.447 6.474 8.39 6.474h27.167c3.943 0 7.39-2.66 8.39-6.474l8.224-31.364 1.864-18.739z" fill="#e1d3ce"/><g><path d="m32.521 77.962c-17.961 0-32.521 14.56-32.521 32.521v301.374c0 17.961 14.56 32.521 32.521 32.521h429.729c17.961 0 32.521-14.56 32.521-32.521v-301.374c0-17.961-14.56-32.521-32.521-32.521z" fill="#f9f3f1"/><path d="m72.31 411.856v-301.373c0-17.961 14.56-32.521 32.521-32.521h-72.31c-17.961 0-32.521 14.56-32.521 32.521v301.374c0 17.961 14.56 32.521 32.521 32.521h72.31c-17.961-.001-32.521-14.561-32.521-32.522z" fill="#f3eae6"/><path d="m229.99 91.107c0 54.341 44.209 98.551 98.551 98.551s98.551-44.209 98.551-98.551c0-4.457-.303-8.843-.879-13.145h-195.344c-.576 4.301-.879 8.688-.879 13.145z" fill="#f3eae6"/><path d="m462.25 107.962c1.392 0 2.521 1.129 2.521 2.521v253.587c0 1.392-1.128 2.521-2.521 2.521h-429.729c-1.392 0-2.521-1.129-2.521-2.521v-253.588c0-1.392 1.128-2.521 2.521-2.521h429.729z" fill="#e1d3ce"/><path d="m72.417 107.962h-39.896c-1.392 0-2.521 1.128-2.521 2.521v253.587c0 1.392 1.129 2.521 2.521 2.521h39.789v-256.108c0-.85.043-1.688.107-2.521z" fill="#cdbfba"/><path d="m425.644 107.962h-194.206c8.02 46.339 48.507 81.695 97.103 81.695s89.083-35.356 97.103-81.695z" fill="#cdbfba"/><g fill="#efe2dd"><circle cx="439.031" cy="406.079" r="13.446"/><circle cx="376.891" cy="406.079" r="13.446"/><circle cx="314.751" cy="406.079" r="13.446"/></g><circle cx="43.446" cy="406.079" fill="#e1d3ce" r="13.446"/><g><path d="m267.887 413.579h-182.464c-4.142 0-7.5-3.358-7.5-7.5s3.358-7.5 7.5-7.5h182.463c4.142 0 7.5 3.358 7.5 7.5s-3.357 7.5-7.499 7.5z" fill="#efe2dd"/></g><g><path d="m174.434 314.769c-.075 0-.149-.001-.224-.003-3.289-.098-6.13-2.327-7.007-5.499l-22.945-83.019-13.252 29.66c-1.207 2.701-3.889 4.44-6.848 4.44h-47.682c-4.142 0-7.5-3.358-7.5-7.5s3.358-7.5 7.5-7.5h42.819l19.784-44.279c1.291-2.889 4.266-4.656 7.412-4.419 3.155.238 5.822 2.431 6.665 5.481l22.031 79.712 28.947-84.801c1.077-3.157 4.11-5.218 7.444-5.069 3.333.154 6.163 2.491 6.945 5.734l16.237 67.337h37.027l17.708-67.482c.855-3.26 3.782-5.55 7.152-5.596 3.372-.04 6.358 2.163 7.302 5.399l24.985 85.648 11.548-32.179c1.069-2.979 3.894-4.967 7.059-4.967h33.688c4.142 0 7.5 3.358 7.5 7.5s-3.358 7.5-7.5 7.5h-28.412l-17.562 48.936c-1.097 3.058-4.041 5.071-7.287 4.963-3.248-.099-6.063-2.277-6.972-5.396l-23.867-81.813-12.305 46.891c-.865 3.297-3.845 5.596-7.254 5.596h-48.719c-3.465 0-6.479-2.374-7.291-5.742l-11.571-47.986-28.46 83.376c-1.038 3.042-3.896 5.077-7.095 5.077z" fill="#fef0ae"/></g><g><path d="m419.028 260.866h-8.811c-4.142 0-7.5-3.358-7.5-7.5s3.358-7.5 7.5-7.5h8.811c4.142 0 7.5 3.358 7.5 7.5s-3.358 7.5-7.5 7.5z" fill="#fef0ae"/></g><circle cx="328.541" cy="91.107" fill="#f79595" r="78.551"/><path d="m287.361 91.107c0-36.941 25.507-67.909 59.865-76.296-5.991-1.462-12.245-2.255-18.686-2.255-43.382 0-78.551 35.168-78.551 78.551s35.168 78.551 78.551 78.551c6.441 0 12.695-.792 18.686-2.255-34.358-8.387-59.865-39.355-59.865-76.296z" fill="#f37c7c"/><path d="m363.199 74.978h-18.53v-18.53c0-3.155-2.558-5.713-5.713-5.713h-20.832c-3.155 0-5.713 2.558-5.713 5.713v18.53h-18.53c-3.155 0-5.713 2.558-5.713 5.713v20.832c0 3.155 2.558 5.713 5.713 5.713h18.53v18.53c0 3.155 2.558 5.713 5.713 5.713h20.832c3.155 0 5.713-2.558 5.713-5.713v-18.53h18.53c3.155 0 5.713-2.558 5.713-5.713v-20.832c0-3.156-2.558-5.713-5.713-5.713z" fill="#faf7f7"/></g></g></svg>