<svg id="Capa_1" enable-background="new 0 0 504.826 504.826" height="512" viewBox="0 0 504.826 504.826" width="512" xmlns="http://www.w3.org/2000/svg"><g><g><path d="m158.629 414.777h-.258c-85.474 0-154.764-69.291-154.764-154.764 0-78.579 58.564-143.474 134.425-153.433l54.409-11.718 6.623 66.793-68.105 7.642c-38.929 11.786-67.353 47.991-67.353 90.717 0 52.253 42.512 94.764 94.765 94.764h3.685l56.124-1.861v61.861h-59.551z" fill="#f3eae6"/></g><g><path d="m192.442 195.327v29.516l12.112 23.913c1.661 3.006 4.824 4.872 8.259 4.872h27.97c3.434 0 6.597-1.866 8.259-4.872l12.112-23.913 3.106-29.516z" fill="#e1d3ce"/><path d="m206.993 17.376h39.608v58.091h-39.608z" fill="#f3eae6"/><path d="m268.842 32.376h-84.09c-4.451 0-8.06-3.609-8.06-8.06v-16.256c0-4.451 3.609-8.06 8.06-8.06h84.09c4.452 0 8.06 3.609 8.06 8.06v16.255c.001 4.452-3.608 8.061-8.06 8.061z" fill="#e1d3ce"/><path d="m331.342 343.071c6.694 0 12.12-5.427 12.12-12.12v-33.249c0-6.694-5.426-12.12-12.12-12.12h-180.194c-6.694 0-12.12 5.427-12.12 12.12v33.249c0 6.694 5.426 12.12 12.12 12.12z" fill="#e1d3ce"/><path d="m158.629 414.777h59.552v-61.861l-56.125 1.861h-3.685c-5.796 0-11.472-.526-16.984-1.527-1.788 5.882-2.758 12.116-2.758 18.574v41.706c6.465.823 13.054 1.248 19.742 1.248h.258z" fill="#efe2dd"/><path d="m246.602 474.266h-87.973v-102.443c0-24.293 19.693-43.986 43.986-43.986 24.293 0 43.986 19.693 43.986 43.986v102.443z" fill="#e1d3ce"/><path d="m217.782 330.523c-4.728-1.737-9.836-2.686-15.166-2.686-24.293 0-43.986 19.693-43.986 43.986v102.442h30.333v-102.442c-.001-18.962 11.999-35.122 28.819-41.3z" fill="#cdbfba"/><circle cx="202.615" cy="374.726" fill="#cdbfba" r="15.565"/><g id="XMLID_166_"><g><path d="m266.893 158.801h-76.525l-13.672 22.758v27.54c0 8.69 7.05 15.74 15.75 15.74h68.71c8.69 0 15.75-7.05 15.75-15.74v-27.54z" fill="#f3eae6"/><path d="m247.234 158.801h-56.866l-13.672 22.758v27.54c0 2.198.454 4.289 1.268 6.189 33.824-.725 62.018-24.658 69.27-56.487z" fill="#efe2dd"/><path d="m276.906 71.319v110.24h-100.21v-110.24c0-5.99 4.85-10.85 10.85-10.85h78.51c5.99 0 10.85 4.86 10.85 10.85z" fill="#faf7f7"/></g></g><path d="m138.032 106.579c-9.617 1.263-18.955 3.412-27.932 6.356-4.087 9.08-6.381 19.134-6.381 29.72 0 12.481 3.165 24.235 8.73 34.507 5.825-3.241 12.016-5.9 18.509-7.866l68.105-7.642-6.623-66.793z" fill="#efe2dd"/><path d="m249.064 142.655c0-39.94-32.388-72.449-72.279-72.662-.053.436-.089.876-.089 1.326v110.24h61.031c7.166-11.258 11.337-24.599 11.337-38.904z" fill="#f9f3f1"/><circle cx="176.392" cy="142.655" fill="#e1d3ce" r="52.672"/><path d="m150.943 142.655c0-24.382 16.597-44.893 39.088-50.895-4.343-1.159-8.931-1.778-13.639-1.778-29.09 0-52.672 23.582-52.672 52.672s23.582 52.672 52.672 52.672c4.708 0 9.315-.624 13.658-1.783-22.491-6-39.107-26.506-39.107-50.888z" fill="#cdbfba"/><path d="m176.392 165.327c-12.501 0-22.672-10.171-22.672-22.672 0-12.502 10.171-22.673 22.672-22.673 12.502 0 22.673 10.171 22.673 22.673 0 12.501-10.171 22.672-22.673 22.672z" fill="#cdbfba"/><path d="m313.101 445.266h-220.972c-12.74 0-23.068 10.328-23.068 23.068v28.993h267.108v-28.993c0-12.74-10.328-23.068-23.068-23.068z" fill="#f3eae6"/><path d="m146.788 445.266h-54.659c-12.74 0-23.068 10.328-23.068 23.068v28.993h54.658v-28.993c.001-12.74 10.328-23.068 23.069-23.068z" fill="#efe2dd"/><g><path d="m354.955 504.826h-301.811c-4.142 0-7.5-3.358-7.5-7.5s3.358-7.5 7.5-7.5h301.812c4.143 0 7.5 3.358 7.5 7.5s-3.358 7.5-7.501 7.5z" fill="#e1d3ce"/></g><path d="m405.477 57.606c-52.116.129-94.877 42.673-95.258 94.788-.208 28.485 12.058 54.106 31.657 71.735l-8.527 18.893c-1.182 2.62.734 5.587 3.608 5.587h67.606c52.85 0 96.541-42.439 96.656-95.288.116-52.923-42.816-95.846-95.742-95.715z" fill="#a6e7f0"/><g><path d="m409.447 167.482c-4.143 0-7.5-3.358-7.5-7.5v-67.507c0-4.142 3.357-7.5 7.5-7.5s7.5 3.358 7.5 7.5v67.506c0 4.143-3.358 7.501-7.5 7.501z" fill="#f37c7c"/></g><g><path d="m443.2 133.729h-67.507c-4.143 0-7.5-3.358-7.5-7.5s3.357-7.5 7.5-7.5h67.507c4.143 0 7.5 3.358 7.5 7.5s-3.358 7.5-7.5 7.5z" fill="#f37c7c"/></g><g><path d="m433.313 157.595c-1.92 0-3.839-.732-5.304-2.197l-47.733-47.734c-2.929-2.929-2.929-7.678.001-10.606 2.929-2.93 7.678-2.929 10.606 0l47.733 47.734c2.929 2.929 2.929 7.678-.001 10.606-1.463 1.465-3.383 2.197-5.302 2.197z" fill="#f37c7c"/></g><g><path d="m385.579 157.595c-1.919 0-3.839-.732-5.303-2.197-2.93-2.929-2.93-7.677-.001-10.606l47.733-47.734c2.93-2.929 7.679-2.93 10.606 0 2.93 2.929 2.93 7.677.001 10.606l-47.733 47.734c-1.464 1.465-3.384 2.197-5.303 2.197z" fill="#f37c7c"/></g><circle cx="409.446" cy="126.229" fill="#f79595" r="21.075"/><g><path d="m390.061 233.306c-4.143 0-7.5-3.358-7.5-7.5v-44.247c0-4.142 3.357-7.5 7.5-7.5s7.5 3.358 7.5 7.5v44.247c0 4.142-3.358 7.5-7.5 7.5z" fill="#5de1c4"/></g><g><path d="m412.185 211.183h-44.247c-4.143 0-7.5-3.358-7.5-7.5s3.357-7.5 7.5-7.5h44.247c4.143 0 7.5 3.358 7.5 7.5s-3.357 7.5-7.5 7.5z" fill="#5de1c4"/></g><g><path d="m405.705 226.827c-1.919 0-3.839-.732-5.304-2.197l-31.288-31.288c-2.929-2.929-2.929-7.678 0-10.606 2.93-2.929 7.678-2.929 10.607 0l31.288 31.288c2.929 2.929 2.929 7.678 0 10.606-1.464 1.464-3.384 2.197-5.303 2.197z" fill="#5de1c4"/></g><g><path d="m374.417 226.827c-1.919 0-3.839-.732-5.304-2.197-2.929-2.929-2.929-7.678 0-10.606l31.289-31.288c2.929-2.928 7.678-2.928 10.606 0 2.929 2.929 2.929 7.678-.001 10.607l-31.287 31.287c-1.464 1.464-3.384 2.197-5.303 2.197z" fill="#5de1c4"/></g><circle cx="390.061" cy="203.683" fill="#86e8d0" r="13.814"/><g><path d="m352.093 148.631h-5.88c-4.143 0-7.5-3.358-7.5-7.5s3.357-7.5 7.5-7.5h5.88c4.143 0 7.5 3.358 7.5 7.5s-3.357 7.5-7.5 7.5z" fill="#fec165"/></g><g><path d="m454.662 191.507h-6.86c-4.143 0-7.5-3.358-7.5-7.5s3.357-7.5 7.5-7.5h6.86c4.143 0 7.5 3.358 7.5 7.5s-3.357 7.5-7.5 7.5z" fill="#fec165"/></g></g></g></svg>