<svg id="Capa_1" enable-background="new 0 0 512.665 512.665" height="512" viewBox="0 0 512.665 512.665" width="512" xmlns="http://www.w3.org/2000/svg"><g><path d="m290.039 240.12v157.004c0 32.201 23.35 59.652 55.135 64.817 2.474.402 4.784 1.496 6.664 3.155l33.702 29.758c17.589 15.531 44.691 12.738 58.743-6.054 22.75-30.425 35.044-67.395 35.044-105.385 0-75.298-21.506-149.03-61.988-212.52l-18.028-28.274c-12.984-20.364-38.582-28.666-61.046-19.798-11.16 4.405-20.384 12.644-26.016 23.238-6.582 12.38-11.732 25.408-15.418 38.83z" fill="#f79595"/><g><path d="m223.894 240.12v157.004c0 32.201-23.35 59.652-55.135 64.817-2.474.402-4.784 1.496-6.664 3.155l-33.702 29.758c-17.589 15.531-44.691 12.738-58.743-6.054-22.75-30.425-35.044-67.395-35.044-105.385 0-75.298 21.506-149.03 61.988-212.52l18.028-28.274c12.984-20.364 38.582-28.666 61.046-19.798 11.16 4.405 20.384 12.644 26.016 23.238 6.582 12.38 11.732 25.408 15.418 38.83z" fill="#f79595"/><path d="m123.5 486.231c-22.75-30.425-35.044-67.395-35.044-105.385 0-75.298 21.506-149.03 61.988-212.52l18.028-28.274c3.643-5.714 8.293-10.478 13.575-14.18-2.039-1.157-4.175-2.18-6.377-3.05-22.464-8.868-48.062-.566-61.046 19.798l-18.028 28.274c-40.482 63.49-61.989 137.222-61.989 212.52 0 37.99 12.294 74.96 35.044 105.385 14.052 18.792 41.153 21.585 58.743 6.054l1.82-1.607c-2.455-2.015-4.72-4.348-6.714-7.015z" fill="#f37c7c"/><g><path d="m198.357 289.072c-30.736 0-55.742-25.006-55.742-55.742 0-4.142 3.357-7.5 7.5-7.5s7.5 3.358 7.5 7.5c0 22.465 18.277 40.742 40.742 40.742 4.143 0 7.5 3.358 7.5 7.5s-3.357 7.5-7.5 7.5z" fill="#f37c7c"/></g><g><path d="m140.657 296.677c-6.877 0-13.399-2.985-17.895-8.19s-6.5-12.092-5.499-18.896l.295-2.006c.601-4.099 4.424-6.934 8.51-6.331 4.099.602 6.933 4.412 6.33 8.51l-.295 2.008c-.371 2.526.343 4.979 2.011 6.911s3.991 2.995 6.543 2.995c4.143 0 7.5 3.358 7.5 7.5s-3.357 7.499-7.5 7.499z" fill="#f37c7c"/></g><g><path d="m312.776 289.072c-4.143 0-7.5-3.358-7.5-7.5s3.357-7.5 7.5-7.5c22.465 0 40.742-18.277 40.742-40.742 0-4.142 3.357-7.5 7.5-7.5s7.5 3.358 7.5 7.5c.001 30.736-25.005 55.742-55.742 55.742z" fill="#f37c7c"/></g><g><path d="m370.476 296.677c-4.143 0-7.5-3.358-7.5-7.5s3.357-7.5 7.5-7.5c2.552 0 4.875-1.063 6.543-2.994s2.382-4.385 2.011-6.91l-.295-2.009c-.603-4.098 2.231-7.908 6.33-8.51 4.084-.6 7.909 2.231 8.51 6.331l.295 2.008c1.001 6.803-1.003 13.69-5.499 18.895-4.496 5.204-11.018 8.189-17.895 8.189z" fill="#f37c7c"/></g><g><path d="m467.922 413.238c-4.143 0-7.5-3.358-7.5-7.5v-74.486c0-4.142 3.357-7.5 7.5-7.5s7.5 3.358 7.5 7.5v74.486c0 4.142-3.358 7.5-7.5 7.5z" fill="#5de1c4"/></g><g><path d="m505.165 375.995h-74.486c-4.143 0-7.5-3.358-7.5-7.5s3.357-7.5 7.5-7.5h74.486c4.143 0 7.5 3.358 7.5 7.5s-3.357 7.5-7.5 7.5z" fill="#5de1c4"/></g><g><path d="m494.257 402.33c-1.919 0-3.839-.732-5.304-2.197l-52.67-52.67c-2.929-2.929-2.929-7.678 0-10.606 2.93-2.929 7.678-2.929 10.607 0l52.67 52.67c2.929 2.929 2.929 7.678 0 10.606-1.464 1.465-3.384 2.197-5.303 2.197z" fill="#5de1c4"/></g><g><path d="m441.587 402.33c-1.919 0-3.839-.732-5.304-2.197-2.929-2.929-2.929-7.678 0-10.606l52.67-52.67c2.93-2.929 7.678-2.929 10.607 0s2.929 7.678 0 10.606l-52.67 52.67c-1.464 1.465-3.384 2.197-5.303 2.197z" fill="#5de1c4"/></g><circle cx="467.922" cy="368.495" fill="#86e8d0" r="23.254"/><g><path d="m413.753 195.696c-4.143 0-7.5-3.358-7.5-7.5v-49.555c0-4.142 3.357-7.5 7.5-7.5s7.5 3.358 7.5 7.5v49.555c0 4.142-3.357 7.5-7.5 7.5z" fill="#fec165"/></g><g><path d="m438.531 170.918h-49.556c-4.143 0-7.5-3.358-7.5-7.5s3.357-7.5 7.5-7.5h49.556c4.143 0 7.5 3.358 7.5 7.5s-3.357 7.5-7.5 7.5z" fill="#fec165"/></g><g><path d="m431.273 188.439c-1.92 0-3.839-.732-5.304-2.197l-35.04-35.042c-2.929-2.929-2.929-7.678.001-10.606 2.929-2.929 7.678-2.928 10.606.001l35.04 35.041c2.929 2.929 2.929 7.678-.001 10.607-1.463 1.463-3.383 2.196-5.302 2.196z" fill="#fec165"/></g><g><path d="m396.233 188.439c-1.919 0-3.839-.732-5.303-2.196-2.93-2.929-2.93-7.678-.001-10.607l35.04-35.041c2.93-2.93 7.677-2.93 10.606-.001s2.93 7.677.001 10.606l-35.04 35.042c-1.464 1.464-3.384 2.197-5.303 2.197z" fill="#fec165"/></g><circle cx="413.753" cy="163.418" fill="#fece85" r="15.471"/><g><path d="m312.776 475.448c-4.143 0-7.5-3.358-7.5-7.5v-57.448c0-4.142 3.357-7.5 7.5-7.5s7.5 3.358 7.5 7.5v57.448c0 4.142-3.357 7.5-7.5 7.5z" fill="#6bd9e7"/></g><g><path d="m341.5 446.723h-57.448c-4.143 0-7.5-3.358-7.5-7.5s3.357-7.5 7.5-7.5h57.448c4.143 0 7.5 3.358 7.5 7.5s-3.357 7.5-7.5 7.5z" fill="#6bd9e7"/></g><g><path d="m333.087 467.035c-1.919 0-3.839-.732-5.304-2.197l-40.622-40.622c-2.929-2.929-2.929-7.678 0-10.606 2.93-2.929 7.678-2.929 10.607 0l40.622 40.622c2.929 2.929 2.929 7.678 0 10.606-1.464 1.464-3.384 2.197-5.303 2.197z" fill="#6bd9e7"/></g><g><path d="m292.465 467.035c-1.919 0-3.839-.732-5.304-2.197-2.929-2.929-2.929-7.678 0-10.606l40.622-40.622c2.93-2.929 7.678-2.929 10.607 0s2.929 7.678 0 10.606l-40.622 40.622c-1.464 1.464-3.384 2.197-5.303 2.197z" fill="#6bd9e7"/></g><circle cx="312.776" cy="439.223" fill="#a6e7f0" r="17.935"/><g><path d="m45.033 413.529c-4.143 0-7.5-3.358-7.5-7.5v-75.067c0-4.142 3.357-7.5 7.5-7.5s7.5 3.358 7.5 7.5v75.067c0 4.142-3.357 7.5-7.5 7.5z" fill="#5de1c4"/></g><g><path d="m82.566 375.995h-75.066c-4.143 0-7.5-3.358-7.5-7.5s3.357-7.5 7.5-7.5h75.066c4.143 0 7.5 3.358 7.5 7.5s-3.357 7.5-7.5 7.5z" fill="#5de1c4"/></g><g><path d="m71.573 402.535c-1.919 0-3.839-.732-5.304-2.197l-53.08-53.081c-2.929-2.929-2.929-7.678 0-10.606 2.93-2.929 7.678-2.929 10.607 0l53.08 53.081c2.929 2.929 2.929 7.678 0 10.606-1.464 1.465-3.384 2.197-5.303 2.197z" fill="#5de1c4"/></g><g><path d="m18.493 402.535c-1.919 0-3.839-.732-5.304-2.197-2.929-2.929-2.929-7.678 0-10.606l53.08-53.081c2.93-2.929 7.678-2.929 10.607 0s2.929 7.678 0 10.606l-53.08 53.081c-1.464 1.465-3.384 2.197-5.303 2.197z" fill="#5de1c4"/></g><circle cx="45.033" cy="368.495" fill="#86e8d0" r="23.436"/><g><path d="m116.19 225.98h-7.723c-4.143 0-7.5-3.358-7.5-7.5s3.357-7.5 7.5-7.5h7.723c4.143 0 7.5 3.358 7.5 7.5s-3.357 7.5-7.5 7.5z" fill="#f9c6c6"/></g><g><path d="m121.155 336.013h-8.826c-4.143 0-7.5-3.358-7.5-7.5s3.357-7.5 7.5-7.5h8.826c4.143 0 7.5 3.358 7.5 7.5s-3.357 7.5-7.5 7.5z" fill="#f9c6c6"/></g><g><path d="m174.236 369.664h-8.948c-4.143 0-7.5-3.358-7.5-7.5s3.357-7.5 7.5-7.5h8.948c4.143 0 7.5 3.358 7.5 7.5s-3.357 7.5-7.5 7.5z" fill="#f9c6c6"/></g><g><path d="m127.224 430.227h-11.034c-4.143 0-7.5-3.358-7.5-7.5s3.357-7.5 7.5-7.5h11.033c4.143 0 7.5 3.358 7.5 7.5s-3.357 7.5-7.499 7.5z" fill="#f9c6c6"/></g><g><path d="m416.841 309.534h-5.088c-4.143 0-7.5-3.358-7.5-7.5s3.357-7.5 7.5-7.5h5.088c4.143 0 7.5 3.358 7.5 7.5s-3.358 7.5-7.5 7.5z" fill="#f9c6c6"/></g><g><path d="m361.019 336.013h-10.928c-4.143 0-7.5-3.358-7.5-7.5s3.357-7.5 7.5-7.5h10.928c4.143 0 7.5 3.358 7.5 7.5s-3.358 7.5-7.5 7.5z" fill="#f9c6c6"/></g><g><path d="m382.506 382.352h-9.245c-4.143 0-7.5-3.358-7.5-7.5s3.357-7.5 7.5-7.5h9.245c4.143 0 7.5 3.358 7.5 7.5s-3.358 7.5-7.5 7.5z" fill="#f9c6c6"/></g><g><path d="m416.841 450.757h-9.93c-4.143 0-7.5-3.358-7.5-7.5s3.357-7.5 7.5-7.5h9.93c4.143 0 7.5 3.358 7.5 7.5s-3.358 7.5-7.5 7.5z" fill="#f9c6c6"/></g><g><path d="m355.555 197.211h-5.464c-4.143 0-7.5-3.358-7.5-7.5s3.357-7.5 7.5-7.5h5.464c4.143 0 7.5 3.358 7.5 7.5s-3.358 7.5-7.5 7.5z" fill="#f9c6c6"/></g></g><path d="m277.875 13.277v132.205c0 11.691 3.857 23.055 10.973 32.331l31.845 41.512c2.864 3.733 2.776 8.948-.211 12.583l-12.086 14.706c-3.641 4.43-10.232 4.952-14.525 1.15l-32.944-29.175c-3.291-2.914-8.224-2.964-11.572-.117l-35.2 29.931c-4.006 3.406-10.065 2.671-13.14-1.595l-11.299-15.675c-2.325-3.225-2.26-7.594.16-10.748l32.658-42.573c7.116-9.276 10.973-20.64 10.973-32.331v-132.204c0-3.05 2.473-5.523 5.523-5.523h33.324c3.048 0 5.521 2.473 5.521 5.523z" fill="#ffe5c2"/></g></svg>