<svg id="Capa_1" enable-background="new 0 0 498.22 498.22" height="512" viewBox="0 0 498.22 498.22" width="512" xmlns="http://www.w3.org/2000/svg"><g><path d="m50.442 409.547 1.74 23.107 14.486 29.913c2.076 4.286 6.418 7.008 11.18 7.008h39.162c4.762 0 9.105-2.722 11.18-7.008l14.486-29.913 4.202-23.107z" fill="#cdbfba"/><path d="m359.178 408.877 4.578 23.778 14.486 29.913c2.076 4.286 6.418 7.008 11.18 7.008h39.162c4.762 0 9.105-2.722 11.18-7.008l14.486-29.913 5.309-23.778z" fill="#cdbfba"/><path d="m462.22 176.66v217.687c0 1.277-1.035 2.312-2.312 2.312h-421.596c-1.277 0-2.312-1.035-2.312-2.312v-217.687c0-1.277 1.035-2.312 2.312-2.312h56.408 118.86 246.328c1.277.001 2.312 1.036 2.312 2.312z" fill="#faf7f7"/><g id="XMLID_303_"><g><path d="m395.737 190.625h-92.713l-16.834 19.484v85.41c0 16.41 6.65 31.27 17.4 42.02 10.76 10.76 25.62 17.41 42.03 17.41 32.82 0 59.43-26.61 59.43-59.43v-85.41z" fill="#fef0ae"/></g></g><path d="m347.331 337.539c-10.75-10.75-17.4-25.61-17.4-42.02v-85.41l16.834-19.484h-43.741l-16.834 19.484v85.41c0 16.41 6.65 31.27 17.4 42.02 10.76 10.76 25.62 17.41 42.03 17.41 7.725 0 15.14-1.488 21.911-4.17-7.613-3.016-14.506-7.546-20.2-13.24z" fill="#fee97d"/><path d="m405.05 144.799v65.31h-118.86v-35.76-29.55z" fill="#efe2dd"/><path d="m405.047 52.57 8.181-19.573c.865-2.069-.655-4.352-2.898-4.352h-129.427c-2.243 0-3.763 2.283-2.898 4.352l8.181 19.573v104.085h118.861z" fill="#f9f3f1"/><path d="m94.72 52.569v121.78h118.86v-121.78l8.18-19.57c.86-2.07-.66-4.35-2.9-4.35h-129.43c-2.24 0-3.76 2.28-2.89 4.35z" fill="#f9f3f1"/><g><g><path d="m405.047 64.986h-16.177c-4.142 0-7.5 3.358-7.5 7.5s3.358 7.5 7.5 7.5h16.177z" fill="#efe2dd"/><path d="m405.047 97.919h-16.177c-4.142 0-7.5 3.358-7.5 7.5s3.358 7.5 7.5 7.5h16.177z" fill="#efe2dd"/><g fill="#fee97d"><path d="m405.05 236.279c-.001 0-.002 0-.003 0h-16.177c-4.142 0-7.5 3.358-7.5 7.5s3.358 7.5 7.5 7.5h16.177.003z"/><path d="m405.05 269.211c-.001 0-.002 0-.003 0h-16.177c-4.142 0-7.5 3.358-7.5 7.5s3.358 7.5 7.5 7.5h16.177.003z"/></g></g><g><g id="XMLID_297_"><g><path d="m197.401 182.491h-81.978l-20.703 27.618v85.41c0 16.41 6.65 31.27 17.4 42.02 10.76 10.76 25.61 17.41 42.03 17.41 32.82 0 59.43-26.61 59.43-59.43v-85.41z" fill="#f79595"/></g><g id="XMLID_299_"><path d="m155.861 337.539c-10.75-10.75-17.4-25.61-17.4-42.02v-85.41l20.703-27.617h-43.741l-20.703 27.617v85.41c0 16.41 6.65 31.27 17.4 42.02 10.76 10.76 25.61 17.41 42.03 17.41 7.724 0 15.146-1.49 21.917-4.172-7.613-3.016-14.511-7.544-20.206-13.238z" fill="#f37c7c"/><g><path d="m94.72 164.349h118.86v45.76h-118.86z" fill="#efe2dd"/></g><path d="m329.931 144.799h-43.741v29.55 35.76h43.741v-35.76z" fill="#e1d3ce"/><path d="m94.72 174.349h43.741v35.76h-43.741z" fill="#e1d3ce"/><g><g id="XMLID_305_"><g><path d="m213.58 118.349h-54.545c-11.363 0-20.574-9.211-20.574-20.574v-40.337c0-3.214-.638-6.397-1.878-9.363l-6.302-15.077c-.87-2.07.65-4.35 2.89-4.35h-43.741c-2.24 0-3.76 2.28-2.89 4.35l8.18 19.57v121.78h43.741v-16.45h75.119z" fill="#f3eae6"/><path d="m329.926 92.593v-40.023l-8.181-19.573c-.865-2.069.655-4.352 2.898-4.352h-43.741c-2.243 0-3.763 2.283-2.898 4.352l8.181 19.573v104.085h37.969 5.772 75.12v-38.306h-49.365c-14.224 0-25.755-11.532-25.755-25.756z" fill="#f3eae6"/><path d="m498.22 177.136v216.734c0 21.422-17.366 38.788-38.788 38.788h-420.644c-21.422.001-38.788-17.365-38.788-38.787v-216.735c0-21.422 17.366-38.788 38.788-38.788h420.644c21.422.001 38.788 17.367 38.788 38.788zm-36 215.945v-215.155c0-1.976-1.602-3.578-3.578-3.578h-419.064c-1.976 0-3.578 1.602-3.578 3.578v215.154c0 1.976 1.602 3.578 3.578 3.578h419.064c1.976.001 3.578-1.601 3.578-3.577z" fill="#e1d3ce"/></g></g></g><path d="m74.547 393.871v-216.735c0-.938.045-1.866.111-2.788h-36.346c-1.277 0-2.312 1.035-2.312 2.312v217.687c0 1.277 1.035 2.312 2.312 2.312h36.346c-.066-.922-.111-1.85-.111-2.788z" fill="#f3eae6"/><path d="m74.657 396.659h-35.08c-1.976 0-3.578-1.602-3.578-3.578v-215.155c0-1.976 1.602-3.578 3.578-3.578h35.08c1.43-20.118 18.192-35.999 38.675-36h-74.544c-21.422.001-38.788 17.367-38.788 38.788v216.734c0 21.422 17.366 38.788 38.788 38.788h74.547c-20.484.001-37.247-15.88-38.678-35.999z" fill="#cdbfba"/></g></g><path d="m213.58 64.986h-16.179c-4.142 0-7.5 3.358-7.5 7.5s3.358 7.5 7.5 7.5h16.179z" fill="#f3eae6"/><path d="m213.58 97.919h-16.179c-4.142 0-7.5 3.358-7.5 7.5s3.358 7.5 7.5 7.5h16.179z" fill="#f3eae6"/><g fill="#f37c7c"><path d="m213.58 251.279v-15h-16.179c-4.142 0-7.5 3.358-7.5 7.5s3.358 7.5 7.5 7.5z"/><path d="m213.58 284.211v-15h-16.179c-4.142 0-7.5 3.358-7.5 7.5s3.358 7.5 7.5 7.5z"/></g></g></g></g></svg>