<svg id="Capa_1" enable-background="new 0 0 495.78 495.78" height="512" viewBox="0 0 495.78 495.78" width="512" xmlns="http://www.w3.org/2000/svg"><g><g><path d="m356.825 93.967v-38.051c0-20.851-16.963-37.814-37.814-37.814h-141.242c-20.851 0-37.814 16.963-37.814 37.814v38.051 22.796h32v-60.847c0-3.206 2.608-5.814 5.814-5.814h141.241c3.206 0 5.814 2.608 5.814 5.814v38.051 22.796h32v-22.796z" fill="#efe2dd"/></g><path d="m192.575 136.873h-73.239v-34.31c0-4.195 3.401-7.596 7.596-7.596h58.046c4.195 0 7.596 3.401 7.596 7.596v34.31z" fill="#e1d3ce"/><g><path d="m478.95 237.438v219.53c0 11.44-9.27 20.71-20.71 20.71h-420.7c-11.44 0-20.71-9.27-20.71-20.71v-219.53-1h462.12z" fill="#f9f3f1"/></g><path d="m439.896 236.438v-11.151c0-16.062-13.021-29.083-29.083-29.083h-18.044c-16.062 0-29.083 13.021-29.083 29.083v11.151h-231.59v-11.151c0-16.062-13.021-29.083-29.083-29.083h-18.046c-16.062 0-29.083 13.021-29.083 29.083v11.151h-39.054v1 219.53c0 11.438 9.272 20.71 20.71 20.71h72.431c-11.44 0-20.71-9.27-20.71-20.71v-92.546c0-7.594 6.157-13.751 13.751-13.751 16.062 0 29.083-13.021 29.083-29.083v-13.039c0-8.345 6.765-15.111 15.111-15.111h201.369c8.345 0 15.111 6.765 15.111 15.111v13.039c0 16.062 13.021 29.083 29.083 29.083h18.045c16.062 0 29.083-13.021 29.083-29.083v-10.114c0-9.961 8.075-18.036 18.036-18.036h21.018v-56-1z" fill="#f3eae6"/><path d="m304.205 140.873h73.239v-38.31c0-4.195-3.401-7.596-7.596-7.596h-58.046c-4.195 0-7.596 3.401-7.596 7.596v38.31z" fill="#e1d3ce"/><path d="m495.78 156.348v104.53c0 6.93-5.63 12.56-12.57 12.56h-470.64c-6.94 0-12.57-5.63-12.57-12.56v-104.53c0-16.83 13.65-30.48 30.48-30.48h434.82c16.83 0 30.48 13.65 30.48 30.48z" fill="#f9f3f1"/><path d="m439.896 225.287c0-16.062-13.021-29.083-29.083-29.083h-18.044c-16.062 0-29.083 13.021-29.083 29.083 0 6.158-4.992 11.151-11.151 11.151h-209.289c-6.158 0-11.151-4.992-11.151-11.151v-.001c0-16.062-13.021-29.083-29.083-29.083h-18.045c-.067 0-.135 0-.202.001-9.692.066-17.669-7.55-17.669-17.242v-22.615c0-16.83 13.65-30.48 30.48-30.48h-67.096c-16.834 0-30.48 13.646-30.48 30.48v104.53c0 6.93 5.63 12.56 12.57 12.56h4.26 62.836 399.284v-9.097c0-15.41-12.493-27.903-27.903-27.903-6.159.001-11.151-4.991-11.151-11.15z" fill="#f3eae6"/><g><circle cx="247.89" cy="374.06" fill="#f79595" r="76.643"/><path d="m287.569 354.272h-19.891v-19.891c0-2.049-1.661-3.709-3.709-3.709h-32.157c-2.049 0-3.709 1.661-3.709 3.709v19.891h-19.891c-2.049 0-3.709 1.661-3.709 3.709v32.157c0 2.049 1.661 3.709 3.709 3.709h19.891v19.891c0 2.049 1.661 3.709 3.709 3.709h32.157c2.049 0 3.709-1.661 3.709-3.709v-19.891h19.891c2.049 0 3.709-1.661 3.709-3.709v-32.157c0-2.048-1.66-3.709-3.709-3.709z" fill="#faf7f7"/><g><path d="m419.896 321.588c0 5.016-4.067 9.083-9.083 9.083h-18.045c-5.016 0-9.083-4.067-9.083-9.083v-96.301c0-5.017 4.067-9.083 9.083-9.083h18.045c5.016 0 9.083 4.067 9.083 9.083z" fill="#efe2dd"/></g><path d="m432.172 293.9h-60.763c-3.775 0-6.835-3.06-6.835-6.835v-27.254c0-3.775 3.06-6.835 6.835-6.835h60.763c3.775 0 6.835 3.06 6.835 6.835v27.254c0 3.775-3.06 6.835-6.835 6.835z" fill="#e1d3ce"/><g><path d="m112.095 321.588c0 5.016-4.067 9.083-9.083 9.083h-18.045c-5.016 0-9.083-4.067-9.083-9.083v-96.301c0-5.017 4.067-9.083 9.083-9.083h18.045c5.016 0 9.083 4.067 9.083 9.083z" fill="#efe2dd"/></g><path d="m63.608 293.9h60.763c3.775 0 6.835-3.06 6.835-6.835v-27.254c0-3.775-3.06-6.835-6.835-6.835h-60.763c-3.775 0-6.835 3.06-6.835 6.835v27.254c0 3.775 3.06 6.835 6.835 6.835z" fill="#e1d3ce"/></g></g></svg>