<svg id="Capa_1" enable-background="new 0 0 511.901 511.901" height="512" viewBox="0 0 511.901 511.901" width="512" xmlns="http://www.w3.org/2000/svg"><g><g><path d="m222.312 511.901c-48.514 0-87.982-39.469-87.982-87.983v-86.507c0-4.142 3.357-7.5 7.5-7.5s7.5 3.358 7.5 7.5v86.507c0 40.243 32.74 72.983 72.982 72.983s72.982-32.74 72.982-72.983v-355.864c0-37.525 30.529-68.054 68.055-68.054s68.054 30.529 68.054 68.054v130.909c0 4.142-3.357 7.5-7.5 7.5s-7.5-3.358-7.5-7.5v-130.909c0-29.254-23.8-53.054-53.054-53.054-29.255 0-53.055 23.8-53.055 53.054v355.864c0 48.515-39.469 87.983-87.982 87.983z" fill="#f3eae6"/></g><g><path d="m54.743 202.979c-4.143 0-7.5-3.358-7.5-7.5v-163.814c0-8.468 6.89-15.358 15.357-15.358h37.16c4.143 0 7.5 3.358 7.5 7.5s-3.357 7.5-7.5 7.5h-37.16c-.197 0-.357.161-.357.358v163.814c0 4.143-3.357 7.5-7.5 7.5z" fill="#f3eae6"/></g><g><path d="m228.498 200.174c-4.143 0-7.5-3.358-7.5-7.5v-161.009c0-.197-.16-.358-.357-.358h-38.16c-4.143 0-7.5-3.358-7.5-7.5s3.357-7.5 7.5-7.5h38.16c8.468 0 15.357 6.89 15.357 15.358v161.009c0 4.142-3.357 7.5-7.5 7.5z" fill="#f3eae6"/></g><g><path d="m208.914 150.438v82.945c0 36.815-29.234 67.535-66.045 68.096-37.466.571-68.126-29.74-68.126-67.078v-83.964c0-6.411-5.197-11.608-11.608-11.608h-16.784c-6.411 0-11.608 5.197-11.608 11.608v83.964c0 51 35.839 93.779 83.652 104.495 2.01.45 3.433 2.24 3.433 4.299v11.116c0 2.816 2.283 5.099 5.099 5.099h29.802c2.816 0 5.099-2.283 5.099-5.099v-11.571c0-1.793 1.237-3.361 2.988-3.745 48.037-10.549 84.098-53.435 84.098-104.593v-83.964c0-6.411-5.197-11.608-11.608-11.608h-16.785c-6.41.001-11.607 5.197-11.607 11.608z" fill="#a6e7f0"/><path d="m84.986 40.363h22.772c9.143 0 16.555-7.412 16.555-16.555 0-9.143-7.412-16.555-16.555-16.555h-22.772c-3.438 0-6.226 2.787-6.226 6.226v20.659c0 3.437 2.788 6.225 6.226 6.225z" fill="#e1d3ce"/><path d="m198.255 40.363h-22.772c-9.143 0-16.555-7.412-16.555-16.555 0-9.143 7.412-16.555 16.555-16.555h22.772c3.438 0 6.226 2.787 6.226 6.226v20.659c0 3.437-2.787 6.225-6.226 6.225z" fill="#e1d3ce"/><path d="m439.845 212.386v-26.469c0-7.154-5.8-12.954-12.954-12.954h-5.976c-7.154 0-12.954 5.8-12.954 12.954v26.469 23.304h31.884z" fill="#efe2dd"/><circle cx="423.903" cy="264.212" fill="#efe2dd" r="53.255"/><g fill="#e1d3ce"><path d="m399.903 264.212c0-24.337 16.368-44.852 38.664-51.211-4.65-1.326-9.59-2.045-14.665-2.045-29.412 0-53.255 23.843-53.255 53.255s23.843 53.255 53.255 53.255c5.075 0 10.07-.734 14.72-2.06-22.296-6.358-38.719-26.857-38.719-51.194z"/><circle cx="423.903" cy="264.212" r="19.347"/></g></g></g></svg>