<svg id="Capa_1" enable-background="new 0 0 497.137 497.137" height="512" viewBox="0 0 497.137 497.137" width="512" xmlns="http://www.w3.org/2000/svg"><g><path d="m195.011 441.731 11.086 22.139 20.212 28.45c2.147 3.022 5.625 4.818 9.332 4.818h25.854c3.707 0 7.185-1.795 9.332-4.818l20.212-28.45 9.456-22.139z" fill="#efe2dd"/><path d="m376.875 59.764h-20.86l-60.679-52.909c-5.069-4.42-11.567-6.855-18.292-6.855h-56.95c-6.725 0-13.223 2.435-18.292 6.855l-60.679 52.909h-20.86c-32.405 0-58.675 26.27-58.675 58.675v286.755c0 32.405 26.27 58.675 58.675 58.675h256.612c32.405 0 58.675-26.27 58.675-58.675v-286.755c0-32.405-26.27-58.675-58.675-58.675z" fill="#f9f3f1"/><g><path d="m119.194 430.207v-286.755c0-32.405 26.27-58.675 58.675-58.675h7.421c8.665 0 17.037-3.137 23.568-8.832l50.55-44.077c5.069-4.42 11.567-6.855 18.292-6.855h38.46l-20.824-18.158c-5.069-4.42-11.567-6.855-18.292-6.855h-56.95c-6.725 0-13.223 2.435-18.292 6.855l-60.679 52.909h-20.86c-32.405 0-58.675 26.27-58.675 58.675v286.755c0 32.405 26.27 58.675 58.675 58.675h9.561c-6.691-9.53-10.63-21.133-10.63-33.662z" fill="#f3eae6"/></g><g><path d="m388.187 259.066h-264.654l-31.945 46.015v100.11c0 15.81 12.86 28.68 28.67 28.68h256.62c15.81 0 28.67-12.87 28.67-28.68v-100.11z" fill="#f79595"/></g><path d="m119.194 430.207v-164.89l-27.605 39.764v100.11c0 15.494 12.353 28.156 27.728 28.656-.075-1.205-.123-2.416-.123-3.64z" fill="#f37c7c"/><path d="m405.549 129.876v175.205h-313.96v-175.205c0-5.945 4.82-10.765 10.765-10.765h292.43c5.945 0 10.765 4.82 10.765 10.765z" fill="#f3eae6"/><path d="m124.484 119.111h-22.13c-5.945 0-10.765 4.82-10.765 10.765v175.205h27.605v-161.629c0-8.686 1.902-16.924 5.29-24.341z" fill="#efe2dd"/><g><circle cx="249.069" cy="48.215" fill="#e1d3ce" r="15.464"/><circle cx="248.569" cy="283.947" fill="#f37c7c" r="118.248"/><path d="m300.938 262.821h-31.243v-31.244c0-2.892-2.345-5.237-5.237-5.237h-31.778c-2.893 0-5.237 2.345-5.237 5.237v31.244h-31.243c-2.892 0-5.237 2.345-5.237 5.237v31.778c0 2.892 2.345 5.237 5.237 5.237h31.243v31.243c0 2.892 2.345 5.237 5.237 5.237h31.777c2.893 0 5.237-2.345 5.237-5.237v-31.243h31.243c2.892 0 5.237-2.345 5.237-5.237v-31.778c.001-2.892-2.344-5.237-5.236-5.237z" fill="#faf7f7"/></g></g></svg>