<svg id="Capa_1" enable-background="new 0 0 496.917 496.917" height="512" viewBox="0 0 496.917 496.917" width="512" xmlns="http://www.w3.org/2000/svg"><g><path d="m94.951 269.593h89.719 176.599v-186.786h-263.889z" fill="#efe2dd"/><g><path d="m94.951 0h307.017c49.55 0 89.719 60.35 89.719 134.796v355.184c0 3.831-3.105 6.936-6.936 6.936h-26.726l-14.381-14.381c-.919-.919-2.409-.919-3.329 0l-13.536 13.536h-70.091l-14.119-14.119c-.83-.83-2.176-.83-3.007 0l-13.401 13.401c-.397.397-1.04.397-1.436 0l-16.523-16.523c-.956-.956-2.518-.914-3.421.092l-15.884 17.695-97.271.279c-3.839.011-6.956-3.098-6.956-6.936v-355.164l-89.719-63.814z" fill="#f9f3f1"/><path d="m184.67 134.796v355.164c0 2.644 1.48 4.941 3.655 6.112h2.475l59.553.656c3.067-.717 5.354-3.462 5.354-6.748v-355.184c0-74.445-40.169-134.796-89.719-134.796h-71.037v70.981z" fill="#f3eae6"/><g id="XMLID_384_"><g><path d="m94.95.004c49.55 0 89.72 60.35 89.72 134.79 0 74.45-40.17 134.8-89.72 134.8s-89.72-60.35-89.72-134.8c0-74.44 40.17-134.79 89.72-134.79z" fill="#f9f3f1"/></g></g><path d="m45.683 134.794c0-63.991 29.693-117.57 69.503-131.351-6.501-2.25-13.28-3.439-20.236-3.439-49.55 0-89.72 60.35-89.72 134.79 0 74.45 40.17 134.8 89.72 134.8 6.956 0 13.735-1.193 20.236-3.443-39.809-13.781-69.503-67.357-69.503-131.357z" fill="#f3eae6"/><ellipse cx="94.951" cy="134.796" fill="#fdd79b" rx="42.939" ry="72.586"/><path d="m201.754 310.69h-17.084v15h17.084c4.142 0 7.5-3.358 7.5-7.5s-3.358-7.5-7.5-7.5z" fill="#efe2dd"/><g><path d="m249.649 325.69h-14.868c-4.142 0-7.5-3.358-7.5-7.5s3.358-7.5 7.5-7.5h14.868c4.142 0 7.5 3.358 7.5 7.5s-3.358 7.5-7.5 7.5z" fill="#efe2dd"/></g><g><path d="m297.544 325.69h-14.868c-4.142 0-7.5-3.358-7.5-7.5s3.358-7.5 7.5-7.5h14.868c4.142 0 7.5 3.358 7.5 7.5s-3.358 7.5-7.5 7.5z" fill="#f3eae6"/></g><g><path d="m345.439 325.69h-14.868c-4.142 0-7.5-3.358-7.5-7.5s3.358-7.5 7.5-7.5h14.868c4.142 0 7.5 3.358 7.5 7.5s-3.358 7.5-7.5 7.5z" fill="#f3eae6"/></g><g><path d="m393.334 325.69h-14.868c-4.142 0-7.5-3.358-7.5-7.5s3.358-7.5 7.5-7.5h14.868c4.142 0 7.5 3.358 7.5 7.5s-3.358 7.5-7.5 7.5z" fill="#f3eae6"/></g><g><path d="m441.229 325.69h-14.868c-4.142 0-7.5-3.358-7.5-7.5s3.358-7.5 7.5-7.5h14.868c4.142 0 7.5 3.358 7.5 7.5s-3.358 7.5-7.5 7.5z" fill="#f3eae6"/></g><path d="m491.687 310.69h-17.431c-4.142 0-7.5 3.358-7.5 7.5s3.358 7.5 7.5 7.5h17.431z" fill="#f3eae6"/></g></g></svg>