<svg id="Capa_1" enable-background="new 0 0 498.64 498.64" height="512" viewBox="0 0 498.64 498.64" width="512" xmlns="http://www.w3.org/2000/svg"><g><g><g id="XMLID_385_"><g><path d="m224.17 444.525c13.55 1.3 24.15 12.72 24.15 26.61 0 7.39-3 14.08-7.84 18.92s-11.52 7.83-18.91 7.83h-180.13c-14.78 0-26.75-11.97-26.75-26.75 0-7.38 2.99-14.07 7.83-18.91 4.27-4.27 9.97-7.09 16.32-7.7.86-.09 1.72-.13 2.6-.13h180.13c.88 0 1.74.04 2.6.13z" fill="#d5e3f4"/><path d="m241.96 59.655c-4.55-4.56-10.84-7.37-17.78-7.37-13.89 0-25.14 11.26-25.14 25.15v-28.51c0-6.94-2.82-13.23-7.37-17.77-4.55-4.56-10.83-7.37-17.78-7.37-13.89 0-25.15 11.26-25.15 25.14v-23.03c0-6.94-2.81-13.23-7.36-17.78s-10.84-7.36-17.78-7.36c-13.89 0-25.15 11.25-25.15 25.14v29.76c0-6.94-2.81-13.22-7.37-17.78-4.54-4.54-10.83-7.36-17.77-7.36-13.89 0-25.15 11.26-25.15 25.14v96.49l-.063 27.957 23.113 78.162 6.615 124.03-4.61 81.1h150.965v-98.72l9.72-14.16c10.05-14.65 15.43-32 15.43-49.77v-132.38-90.93c0-6.939-2.81-13.229-7.37-17.779z" fill="#a7eedc"/></g><g><path d="m122.293 306.01c8.398 0 15.207-6.808 15.207-15.207 0-32.97-20.28-62.55-51.03-74.44l-12.637-4.888c-1.514-.586-2.513-2.042-2.513-3.666v-49.366c0-5.64-1.77-10.87-4.79-15.17-4.161-5.946-10.71-10.1-18.26-11.076v24.454c-4.78-6.83-12.71-11.3-21.69-11.3-1.718 0-3.395.169-5.021.481-2.034 3.75-3.189 8.046-3.189 12.611v116.67c0 10.858 2.765 21.477 7.945 30.897z" fill="#86e8d0"/><g id="XMLID_387_"><g><path d="m119.13 299.675v171.47h-80.54l.25-26.62-.01-.13v-88.25l-25.47-32.98c-8.66-11.22-13.36-25-13.36-39.18v-116.67c0-7.31 2.96-13.93 7.75-18.72s11.41-7.75 18.72-7.75c8.98 0 16.91 4.47 21.69 11.3 3.02 4.3 4.79 9.53 4.79 15.17v52.06l15.15 5.86c30.75 11.89 51.03 41.47 51.03 74.44z" fill="#a7eedc"/></g></g><path d="m224.18 424.548c-4.704-.073-112.529-.09-120.812-.089-16.695.002-30.222-13.531-30.222-30.226v-35.831c0-8.245-2.734-16.258-7.774-22.783l-17.696-22.914c-8.66-11.22-13.36-25-13.36-39.18v-116.67c0-4.885 1.327-9.458 3.633-13.386-3.473-1.675-7.363-2.624-11.479-2.624-7.31 0-13.93 2.96-18.72 7.75s-7.75 11.41-7.75 18.72v116.67c0 14.18 4.7 27.96 13.36 39.18l25.47 32.98v88.25l.01.13-.25 26.62h80.54v-7.75h105.05z" fill="#86e8d0"/><path d="m224.17 444.525c13.55 1.3 24.15 12.72 24.15 26.61 0 7.39-3 14.08-7.84 18.92s-11.52 7.83-18.91 7.83h-180.13c-14.78 0-26.75-11.97-26.75-26.75 0-7.38 2.99-14.07 7.83-18.91 4.27-4.27 9.97-7.09 16.32-7.7.86-.09 184.47-.09 185.33 0z" fill="#a7eedc"/></g></g><g id="XMLID_397_"><g><path d="m400.19 55.655c0-6.94 2.81-13.22 7.37-17.78 4.54-4.54 10.83-7.36 17.77-7.36 13.89 0 25.15 11.26 25.15 25.14v96.49 329.21h-173.41l-2.61-36.96v-79.72l-9.72-14.16c-10.05-14.65-15.43-32-15.43-49.77v-132.38-90.93c0-6.94 2.81-13.23 7.37-17.78 4.55-4.56 10.84-7.37 17.78-7.37 13.89 0 25.14 11.26 25.14 25.15v-28.51c0-6.94 2.82-13.23 7.37-17.77 4.55-4.56 10.83-7.37 17.78-7.37 13.89 0 25.15 11.26 25.15 25.14v-23.03c0-6.94 2.81-13.23 7.36-17.78s10.84-7.36 17.78-7.36c13.89 0 25.15 11.25 25.15 25.14z" fill="#a7eedc"/></g></g></g><g fill="#86e8d0"><path d="m48.16 55.655-.063 97.795h23.113v-122.841c-12.906 1.068-23.05 11.873-23.05 25.046z"/><g><path d="m123.6.755c-13.89 0-25.15 11.25-25.15 25.14v29.76c0-.153-.009-.304-.012-.457v125.251h1.05c14.572 0 26.385-11.813 26.385-26.385v-153.202c-.749-.067-1.506-.107-2.273-.107z"/><path d="m327.119 150.124v-126.225c-.78-.073-1.57-.115-2.369-.115-6.95 0-13.23 2.81-17.78 7.37-4.082 4.073-6.765 9.557-7.274 15.654l-.012 129.701h1.05c14.572 0 26.385-11.813 26.385-26.385z"/><path d="m377.33 150.124v-149.261c-.755-.068-1.518-.108-2.29-.108-6.94 0-13.23 2.81-17.78 7.36-4.493 4.493-7.284 10.684-7.353 17.521l-.012 150.873h1.05c14.572 0 26.385-11.813 26.385-26.385z"/><path d="m427.677 149.877v-119.249c-.773-.072-1.555-.113-2.347-.113-6.94 0-13.23 2.82-17.77 7.36-4.218 4.218-6.934 9.909-7.318 16.231v122.156h1.05c14.572.001 26.385-11.812 26.385-26.385z"/><path d="m173.89 23.785c-13.455 0-24.443 10.566-25.117 23.845v132.82h1.313c14.572 0 26.385-11.813 26.385-26.385l.004-130.141c-.849-.087-1.713-.139-2.585-.139z"/><path d="m224.18 52.285c-12.883 0-23.488 9.688-24.959 22.176v105.989c14.572 0 26.385-11.813 26.385-26.385v-101.737c-.472-.027-.947-.043-1.426-.043z"/></g><path d="m433.737 150.655v42.162c0 5.965-3.668 11.316-9.231 13.469l-5.919 2.289c-30.75 11.89-51.03 41.47-51.03 74.44 0 12.037 9.758 21.794 21.794 21.794h61.129v-152.664-26.098c-9.803 3.878-16.743 13.427-16.743 24.608z"/></g><g id="XMLID_389_"><g><path d="m498.64 167.315v116.67c0 14.18-4.7 27.96-13.36 39.18l-25.47 32.98-.6 115.03h-79.7v-171.5c0-32.97 20.28-62.55 51.03-74.44l15.15-5.86v-52.06c0-14.62 11.86-26.47 26.48-26.47 7.31 0 13.93 2.96 18.72 7.75s7.75 11.41 7.75 18.72z" fill="#a7eedc"/></g></g><path d="m459.437 424.323-125.428.067c-15.48 0-28.029-12.549-28.029-28.029v-28.724c0-6.224-1.885-12.302-5.408-17.434l-4.312-6.282c-10.05-14.65-15.43-32-15.43-49.77v-132.38-90.93c0-5.897 2.037-11.319 5.445-15.608-3.522-1.879-7.543-2.948-11.815-2.948-6.94 0-13.23 2.81-17.78 7.37-4.56 4.55-7.37 10.84-7.37 17.78v90.93 132.38c0 17.77 5.38 35.12 15.43 49.77l9.72 14.16v79.72l2.61 36.96 182.037-.044z" fill="#86e8d0"/><path d="m277.067 497.885h180.137c14.772 0 26.747-11.975 26.747-26.747 0-14.772-11.975-26.747-26.747-26.747h-180.137c-14.772 0-26.747 11.975-26.747 26.747 0 14.772 11.975 26.747 26.747 26.747z" fill="#a7eedc"/></g></svg>