<svg id="Capa_1" enable-background="new 0 0 498.19 498.19" height="512" viewBox="0 0 498.19 498.19" width="512" xmlns="http://www.w3.org/2000/svg"><g><path d="m346.474 48.662v37.657l3.227 11.832c.432 1.584-1.112 2.991-2.649 2.414l-12.676-4.757c-10.085-3.785-16.766-13.427-16.766-24.199v-22.947-31.092h28.026z" fill="#efe2dd"/><g id="XMLID_404_"><g><path d="m365.63 8.53v31.61c0 4.705-3.815 8.52-8.52 8.52h-65.6l-11.25 19.64v24.87l1.23 26.58h-76.25v-27.29-15.28c0-3.728-3.022-6.75-6.75-6.75h-42.86c-3.535 0-6.4-2.865-6.4-6.4v-14.8c0-27.19 22.04-49.23 49.22-49.23h158.65c4.711 0 8.53 3.819 8.53 8.53z" fill="#f9f3f1"/></g></g><g><path d="m235.137 100.697v-27.29-2.565c0-10.75-8.715-19.465-19.465-19.465h-15.765c-11.476 0-20.78-9.303-20.78-20.78v-.42c0-10.939 3.573-21.041 9.607-29.213-22.527 4.512-39.504 24.404-39.504 48.266v14.8c0 3.535 2.865 6.4 6.4 6.4h42.86c3.728 0 6.75 3.022 6.75 6.75v15.28 27.29h76.25l-.882-19.053z" fill="#f3eae6"/></g><path d="m291.508 106.444c0-7.726-6.263-13.989-13.989-13.989h-72.278c-7.726 0-13.989 6.263-13.989 13.989v71.556h100.256z" fill="#d4f2f6"/><g><path d="m233.442 115.69c-5.106 0-9.246-4.139-9.246-9.246 0-7.726 6.263-13.989 13.989-13.989h-32.944c-7.726 0-13.989 6.263-13.989 13.989v71.556h28.55 4.394 67.312v-62.31z" fill="#a6e7f0"/><path d="m347.442 312.061 24.068-29.781v-26.98c0-4.34-1.29-8.58-3.7-12.18l-75.22-112.43h-101.34l-55.08 64.26c-6.12 7.14-9.49 16.24-9.49 25.65v61.68l23.083 32.16v100.038l-23.083 17.032v33.35c0 18.41 14.93 33.33 33.33 33.33h178.17c18.4 0 33.33-14.92 33.33-33.33v-33.35l-24.068-10.304z" fill="#f9f3f1"/><path d="m191.252 464.86v-244.26c0-9.41 3.37-18.51 9.49-25.65l55.08-64.26h-64.572l-55.08 64.26c-6.12 7.14-9.49 16.24-9.49 25.65v61.68l23.083 32.16v100.038l-23.083 17.032v33.35c0 18.41 14.93 33.33 33.33 33.33h64.572c-18.4 0-33.33-14.92-33.33-33.33z" fill="#f3eae6"/><g id="XMLID_407_"><g><path d="m365.63 8.53v31.61c0 4.71-3.82 8.52-8.53 8.52h-24.93v-2.07-44.88-1.71h24.93c4.71 0 8.53 3.82 8.53 8.53z" fill="#f3eae6"/></g></g><g><g id="XMLID_402_"><g><path d="m371.51 282.28v149.23h-1-242.83-1v-149.23h1 242.83z" fill="#d4f2f6"/></g></g></g><circle cx="249.095" cy="356.895" fill="#a6e7f0" r="87.8"/><path d="m199.046 356.895c0-42.01 29.534-77.13 68.952-85.767-6.081-1.332-12.423-2.033-18.903-2.033-48.491 0-87.8 39.309-87.8 87.8s39.309 87.8 87.8 87.8c6.481 0 12.846-.713 18.927-2.045-39.418-8.637-68.976-43.745-68.976-85.755z" fill="#6bd9e7"/><path d="m290.461 338.309h-22.78v-22.78c0-1.916-1.553-3.468-3.468-3.468h-30.236c-1.916 0-3.468 1.553-3.468 3.468v22.78h-22.78c-1.916 0-3.468 1.553-3.468 3.468v30.236c0 1.916 1.553 3.469 3.468 3.469h22.78v22.78c0 1.916 1.553 3.468 3.468 3.468h30.236c1.916 0 3.468-1.553 3.468-3.468v-22.78h22.78c1.916 0 3.468-1.553 3.468-3.469v-30.236c0-1.915-1.552-3.468-3.468-3.468z" fill="#faf7f7"/></g></g></svg>