<svg id="Capa_1" enable-background="new 0 0 496.594 496.594" height="512" viewBox="0 0 496.594 496.594" width="512" xmlns="http://www.w3.org/2000/svg"><g><circle cx="229.976" cy="266.379" fill="#b3e5ee" r="229.976"/><path d="m79.475 266.379c0-113.46 82.194-207.725 190.267-226.551-12.909-2.249-26.213-3.425-39.765-3.425-127.013 0-229.977 102.964-229.977 229.976s102.964 229.976 229.976 229.976c13.553 0 26.882-1.181 39.791-3.43-108.072-18.825-190.292-113.086-190.292-226.546z" fill="#86d7e5"/><path d="m322.291 55.7-44.979 72.497c-8.425 13.577-8.832 30.685-1.063 44.647 7.769 13.963 22.521 22.637 38.499 22.637h134.052c-20.295-62.676-66.756-113.562-126.509-139.781z" fill="#86d7e5"/><circle cx="229.976" cy="266.379" fill="#d9f1f5" r="193.976"/><path d="m173.744 80.712c-79.607 24.172-137.744 98.267-137.744 185.667 0 87.415 58.159 161.521 137.788 185.681-57.152-41.84-94.313-109.436-94.313-185.681 0-76.234 37.137-143.825 94.269-185.667z" fill="#b3e5ee"/><path d="m303.053 86.707-25.742 41.49c-8.425 13.577-8.832 30.685-1.063 44.647 7.769 13.963 22.521 22.637 38.499 22.637h95.789c-19.423-49.294-58.482-88.772-107.483-108.774z" fill="#b3e5ee"/><g><path d="m176.623 201.478c-4.143 0-7.5-3.358-7.5-7.5v-61.308c0-4.142 3.357-7.5 7.5-7.5s7.5 3.358 7.5 7.5v61.308c0 4.142-3.358 7.5-7.5 7.5z" fill="#5fceb4"/></g><g><path d="m154.948 192.5c-1.919 0-3.839-.732-5.304-2.197-2.929-2.929-2.929-7.678 0-10.606l43.351-43.351c2.93-2.929 7.678-2.929 10.607 0s2.929 7.678 0 10.606l-43.351 43.351c-1.464 1.464-3.384 2.197-5.303 2.197z" fill="#5fceb4"/></g><g><path d="m207.277 170.824h-61.308c-4.143 0-7.5-3.358-7.5-7.5s3.357-7.5 7.5-7.5h61.308c4.143 0 7.5 3.358 7.5 7.5s-3.357 7.5-7.5 7.5z" fill="#5fceb4"/></g><g><path d="m198.299 192.5c-1.92 0-3.839-.732-5.304-2.197l-43.351-43.351c-2.929-2.929-2.929-7.678 0-10.606 2.93-2.929 7.678-2.929 10.607 0l43.351 43.351c2.929 2.929 2.929 7.678 0 10.606-1.465 1.464-3.384 2.197-5.303 2.197z" fill="#5fceb4"/></g><circle cx="176.623" cy="163.324" fill="#9de5d1" r="19.229"/><g><path d="m318.452 388.689c-4.143 0-7.5-3.358-7.5-7.5v-76.657c0-4.142 3.357-7.5 7.5-7.5s7.5 3.358 7.5 7.5v76.657c0 4.142-3.358 7.5-7.5 7.5z" fill="#5fceb4"/></g><g><path d="m291.349 377.462c-1.92 0-3.839-.732-5.304-2.197-2.929-2.929-2.929-7.678.001-10.606l54.204-54.205c2.93-2.929 7.678-2.929 10.607 0s2.929 7.678 0 10.606l-54.206 54.205c-1.463 1.465-3.383 2.197-5.302 2.197z" fill="#5fceb4"/></g><g><path d="m356.78 350.36h-76.657c-4.143 0-7.5-3.358-7.5-7.5s3.357-7.5 7.5-7.5h76.657c4.143 0 7.5 3.358 7.5 7.5s-3.357 7.5-7.5 7.5z" fill="#5fceb4"/></g><g><path d="m345.554 377.462c-1.919 0-3.839-.732-5.303-2.197l-54.205-54.205c-2.93-2.929-2.93-7.677-.001-10.606 2.93-2.929 7.679-2.93 10.606 0l54.205 54.205c2.93 2.929 2.93 7.677.001 10.606-1.464 1.465-3.384 2.197-5.303 2.197z" fill="#5fceb4"/></g><circle cx="318.452" cy="342.86" fill="#9de5d1" r="24.043"/><g><path d="m123.032 323.56c-2.093 0-4.174-.871-5.657-2.572l-9.716-11.148-10.689-10.689c-2.93-2.929-2.93-7.677-.001-10.606 2.93-2.929 7.679-2.93 10.606 0l10.871 10.871c.122.121.238.246.352.375l9.885 11.342c2.722 3.123 2.396 7.86-.727 10.582-1.42 1.238-3.176 1.845-4.924 1.845z" fill="#e4827f"/></g><g><path d="m132.224 323.258c-4.143 0-7.5-3.358-7.5-7.5v-34.09c0-4.142 3.357-7.5 7.5-7.5s7.5 3.358 7.5 7.5v34.09c0 4.142-3.357 7.5-7.5 7.5z" fill="#e4827f"/></g><g><path d="m127.8 336.242h-37.648c-4.143 0-7.5-3.358-7.5-7.5s3.357-7.5 7.5-7.5h37.648c4.143 0 7.5 3.358 7.5 7.5s-3.358 7.5-7.5 7.5z" fill="#e4827f"/></g><g><path d="m210.852 409.927c-1.92 0-3.839-.732-5.304-2.197l-11.605-11.606-37.694-36.526c-2.975-2.883-3.05-7.631-.167-10.605 2.883-2.975 7.632-3.049 10.604-.167l37.738 36.568c.028.027.057.055.085.083l11.646 11.647c2.929 2.929 2.929 7.678-.001 10.606-1.463 1.465-3.383 2.197-5.302 2.197z" fill="#e4827f"/></g><g><path d="m222.637 379.183h-53.137c-4.143 0-7.5-3.358-7.5-7.5s3.357-7.5 7.5-7.5h53.138c4.143 0 7.5 3.358 7.5 7.5s-3.358 7.5-7.501 7.5z" fill="#e4827f"/></g><g><path d="m179.852 420.505c-4.143 0-7.5-3.358-7.5-7.5v-41.322c0-4.142 3.357-7.5 7.5-7.5s7.5 3.358 7.5 7.5v41.322c0 4.142-3.357 7.5-7.5 7.5z" fill="#e4827f"/></g><path d="m165.893 390.78-52.749-52.749c-9.199-9.199-9.199-24.113 0-33.312 9.199-9.199 24.113-9.199 33.312 0l52.749 52.749c9.199 9.199 9.199 24.113 0 33.312-9.198 9.199-24.113 9.199-33.312 0z" fill="#ea9a97"/><g><path d="m256.611 132.991h-8.804c-4.143 0-7.5-3.358-7.5-7.5s3.357-7.5 7.5-7.5h8.804c4.143 0 7.5 3.358 7.5 7.5s-3.357 7.5-7.5 7.5z" fill="#5fceb4"/></g><g><path d="m102.273 246.572h-12.121c-4.143 0-7.5-3.358-7.5-7.5s3.357-7.5 7.5-7.5h12.121c4.143 0 7.5 3.358 7.5 7.5s-3.357 7.5-7.5 7.5z" fill="#5fceb4"/></g><g><path d="m176.623 241.739h-7.123c-4.143 0-7.5-3.358-7.5-7.5s3.357-7.5 7.5-7.5h7.123c4.143 0 7.5 3.358 7.5 7.5s-3.358 7.5-7.5 7.5z" fill="#5fceb4"/></g><g><path d="m265.68 420.505h-9.069c-4.143 0-7.5-3.358-7.5-7.5s3.357-7.5 7.5-7.5h9.069c4.143 0 7.5 3.358 7.5 7.5s-3.357 7.5-7.5 7.5z" fill="#5fceb4"/></g><circle cx="367.179" cy="257.922" fill="#ea9a97" r="14.81"/><path d="m472.499 175.48h-157.752c-18.859 0-30.384-20.714-20.441-36.739l78.876-127.13c9.409-15.165 31.474-15.165 40.883 0l78.876 127.13c9.942 16.025-1.583 36.739-20.442 36.739z" fill="#fcf0b6"/><path d="m333.763 138.741 78.876-127.13c.228-.368.47-.719.713-1.069-9.765-14.079-30.99-13.728-40.17 1.069l-78.876 127.13c-9.943 16.025 1.582 36.739 20.441 36.739h39.458c-18.86 0-30.385-20.714-20.442-36.739z" fill="#fbe98c"/><g><path d="m280.385 262.781c-1.743 0-3.494-.604-4.914-1.836l-39.948-34.683c-3.128-2.716-3.462-7.453-.746-10.581 2.714-3.128 7.451-3.462 10.58-.747l39.948 34.683c3.128 2.715 3.462 7.453.746 10.58-1.483 1.709-3.569 2.584-5.666 2.584z" fill="#e4827f"/></g><g><path d="m286.02 232.939h-15.604c-3.899 0-7.148-2.989-7.474-6.875l-2.155-25.669c-.348-4.127 2.716-7.755 6.843-8.104 4.119-.348 7.756 2.715 8.104 6.843l1.581 18.805h8.492l10.876-.616c4.129-.25 7.678 2.928 7.913 7.063.234 4.135-2.929 7.678-7.063 7.912l-11.088.628c-.142.009-.283.013-.425.013z" fill="#e4827f"/></g><g><path d="m221.745 260.834c-3.948 0-7.255-3.084-7.481-7.075-.234-4.136 2.928-7.678 7.063-7.913l11.088-.629c.142-.008.283-.012.425-.012h12.018c4.143 0 7.5 3.358 7.5 7.5s-3.357 7.5-7.5 7.5h-11.805l-10.876.617c-.145.008-.29.012-.432.012z" fill="#e4827f"/></g><g><path d="m250.592 285.88c-3.856 0-7.134-2.957-7.465-6.869l-.935-11.066c-.008-.093-.014-.186-.019-.279l-.858-18.267c-.194-4.138 3.003-7.649 7.141-7.844 4.12-.203 7.648 3.002 7.844 7.14l.852 18.127.923 10.926c.349 4.127-2.715 7.756-6.843 8.104-.215.019-.429.028-.64.028z" fill="#e4827f"/></g><path d="m282.412 235.103-23.03 26.526c-5.341 6.152-14.658 6.809-20.81 1.468-6.152-5.341-6.809-14.658-1.468-20.81l23.03-26.526c5.341-6.152 14.658-6.809 20.81-1.468 6.152 5.34 6.809 14.658 1.468 20.81z" fill="#ea9a97"/><g><path d="m393.623 151.596c-4.143 0-7.5-3.358-7.5-7.5v-11.426c0-4.142 3.357-7.5 7.5-7.5s7.5 3.358 7.5 7.5v11.425c0 4.143-3.358 7.501-7.5 7.501z" fill="#cbbfbb"/></g><g><path d="m393.623 107.179c-4.143 0-7.5-3.358-7.5-7.5v-59.313c0-4.142 3.357-7.5 7.5-7.5s7.5 3.358 7.5 7.5v59.313c0 4.143-3.358 7.5-7.5 7.5z" fill="#cbbfbb"/></g></g></svg>