<svg id="Capa_1" enable-background="new 0 0 497.19 497.19" height="512" viewBox="0 0 497.19 497.19" width="512" xmlns="http://www.w3.org/2000/svg"><g><g><g><g id="XMLID_421_"><g><path d="m259.389 80.83c0-14.64 11.87-26.5 26.51-26.5 7.32 0 13.94 2.96 18.74 7.76 4.79 4.8 7.76 11.42 7.76 18.74v78.91 151.92l-26.5 99.42v79.783c0 3.494-2.833 6.327-6.327 6.327h-180.616c-3.494 0-6.327-2.833-6.327-6.327v-87.213l7.74-204.05v-141.195c0-14.505 11.432-26.726 25.934-27.029 7.544-.157 14.393 2.841 19.306 7.754 4.79 4.8 7.76 11.43 7.76 18.75v-30.835c0-14.524 11.459-26.756 25.98-27.04 7.53-.147 14.354 2.849 19.27 7.765 4.8 4.79 7.76 11.42 7.76 18.74v24.28c0-14.64 11.87-26.51 26.51-26.51 7.32 0 13.95 2.97 18.74 7.77 4.79 4.79 7.76 11.42 7.76 18.74z" fill="#ffe5c2"/></g></g></g><g id="XMLID_420_"><g><path d="m162.187 275.037-.159-.144c-8.767-7.921-9.294-21.507-1.167-30.083l1.595-1.684c8.23-8.673 12.763-20.036 12.763-31.996 0-9.957-3.116-19.469-9.008-27.502-5.108-6.971-12.036-12.295-19.867-15.512-7.374-3.029-12.31-10.06-12.31-18.032v-104.14c0-4.521 1.134-8.776 3.128-12.5-3.398-1.433-7.157-2.179-11.103-2.062-14.413.43-25.69 12.65-25.69 27.069v141.149l-7.74 204.05v87.237c0 3.481 2.822 6.303 6.303 6.303h27.362v-53.506c0-10.992 6.591-21.022 16.813-25.064 26.454-10.46 45.644-35.565 47.292-65.594l.03-.548v-13.858c0-24.234-10.261-47.336-28.242-63.583z" fill="#fed2a4"/><path d="m170.425 338.622v13.31c-1.6 29.14-25.71 51.92-54.84 51.92-.16 0-.32 0-.48 0l-22.48-.2v-.35l-21.84-14.71c-13.48-9.08-21.56-24.26-21.56-40.52v-78.37c0-19.09 8.81-37.13 23.87-48.86l39.31-30.63c11.79-9.18 28.84-6.81 37.67 5.24 3.44 4.69 5.14 10.19 5.14 15.68 0 6.59-2.45 13.15-7.27 18.23l-26.12 27.566c-2.418 2.552-2.26 6.595.35 8.95l26.569 23.974c13.801 12.45 21.681 30.17 21.681 48.77z" fill="#ffe5c2"/><path d="m73.421 365.493v-78.37c0-19.09 8.81-37.13 23.87-48.86l39.31-30.63c5.052-3.934 11.099-5.722 17.022-5.561-.843-2.31-2.03-4.556-3.545-6.622-8.83-12.05-25.88-14.42-37.67-5.24l-39.31 30.63c-15.06 11.73-23.87 29.77-23.87 48.86v78.37c0 16.26 8.08 31.44 21.56 40.52l16.869 11.362c-9.022-9.063-14.236-21.409-14.236-34.459z" fill="#fed2a4"/></g></g><circle cx="325.482" cy="311.655" fill="#fef0ae" r="122.483"/><g><path d="m367.671 324.766c-4.143 0-7.5-3.358-7.5-7.5v-74.486c0-4.142 3.357-7.5 7.5-7.5s7.5 3.358 7.5 7.5v74.486c0 4.142-3.358 7.5-7.5 7.5z" fill="#5de1c4"/></g><g><path d="m404.914 287.523h-74.486c-4.143 0-7.5-3.358-7.5-7.5s3.357-7.5 7.5-7.5h74.486c4.143 0 7.5 3.358 7.5 7.5s-3.357 7.5-7.5 7.5z" fill="#5de1c4"/></g><g><path d="m394.006 313.858c-1.919 0-3.839-.732-5.304-2.197l-52.67-52.67c-2.929-2.929-2.929-7.678 0-10.606 2.93-2.929 7.678-2.929 10.607 0l52.67 52.67c2.929 2.929 2.929 7.678 0 10.606-1.464 1.465-3.384 2.197-5.303 2.197z" fill="#5de1c4"/></g><g><path d="m341.336 313.858c-1.919 0-3.839-.732-5.304-2.197-2.929-2.929-2.929-7.678 0-10.606l52.67-52.67c2.93-2.929 7.678-2.929 10.607 0s2.929 7.678 0 10.606l-52.67 52.67c-1.464 1.465-3.384 2.197-5.303 2.197z" fill="#5de1c4"/></g><circle cx="367.671" cy="280.023" fill="#86e8d0" r="23.254"/><g><path d="m297.838 395.211c-4.143 0-7.5-3.358-7.5-7.5v-49.555c0-4.142 3.357-7.5 7.5-7.5s7.5 3.358 7.5 7.5v49.555c0 4.142-3.358 7.5-7.5 7.5z" fill="#5de1c4"/></g><g><path d="m322.615 370.433h-49.555c-4.143 0-7.5-3.358-7.5-7.5s3.357-7.5 7.5-7.5h49.555c4.143 0 7.5 3.358 7.5 7.5s-3.357 7.5-7.5 7.5z" fill="#5de1c4"/></g><g><path d="m315.358 387.953c-1.919 0-3.839-.732-5.304-2.197l-35.041-35.041c-2.929-2.929-2.929-7.678 0-10.606 2.93-2.929 7.678-2.929 10.607 0l35.041 35.041c2.929 2.929 2.929 7.678 0 10.606-1.464 1.465-3.384 2.197-5.303 2.197z" fill="#5de1c4"/></g><g><path d="m280.317 387.953c-1.919 0-3.839-.732-5.304-2.197-2.929-2.929-2.929-7.678 0-10.606l35.041-35.041c2.93-2.929 7.678-2.929 10.607 0s2.929 7.678 0 10.606l-35.041 35.041c-1.464 1.465-3.384 2.197-5.303 2.197z" fill="#5de1c4"/></g><circle cx="297.838" cy="362.933" fill="#86e8d0" r="15.471"/><g><path d="m271.817 317.867c-4.143 0-7.5-3.358-7.5-7.5v-49.555c0-4.142 3.357-7.5 7.5-7.5s7.5 3.358 7.5 7.5v49.555c0 4.142-3.357 7.5-7.5 7.5z" fill="#5de1c4"/></g><g><path d="m296.595 293.089h-49.555c-4.143 0-7.5-3.358-7.5-7.5s3.357-7.5 7.5-7.5h49.555c4.143 0 7.5 3.358 7.5 7.5s-3.358 7.5-7.5 7.5z" fill="#5de1c4"/></g><g><path d="m289.338 310.61c-1.919 0-3.839-.732-5.304-2.197l-35.041-35.041c-2.929-2.929-2.929-7.678 0-10.606 2.93-2.929 7.678-2.929 10.607 0l35.041 35.041c2.929 2.929 2.929 7.678 0 10.606-1.464 1.465-3.384 2.197-5.303 2.197z" fill="#5de1c4"/></g><g><path d="m254.297 310.61c-1.919 0-3.839-.732-5.304-2.197-2.929-2.929-2.929-7.678 0-10.606l35.041-35.041c2.93-2.929 7.678-2.929 10.607 0s2.929 7.678 0 10.606l-35.041 35.041c-1.464 1.465-3.384 2.197-5.303 2.197z" fill="#5de1c4"/></g><circle cx="271.818" cy="285.589" fill="#86e8d0" r="15.471"/><g><path d="m313.305 245c-1.013 0-2.042-.207-3.028-.642-3.788-1.674-5.502-6.103-3.827-9.892l4.653-10.528c1.675-3.789 6.102-5.5 9.892-3.828 3.788 1.674 5.502 6.103 3.827 9.892l-4.653 10.528c-1.239 2.802-3.985 4.47-6.864 4.47z" fill="#86e8d0"/></g><g><path d="m394.009 350.309c-2.075 0-4.14-.855-5.622-2.532-2.743-3.103-2.452-7.843.651-10.586l7.358-6.506c3.104-2.744 7.843-2.453 10.587.651 2.743 3.103 2.452 7.843-.651 10.586l-7.358 6.506c-1.427 1.261-3.2 1.881-4.965 1.881z" fill="#86e8d0"/></g><g><path d="m347.954 404.284c-.407 0-.82-.033-1.235-.102-4.087-.678-6.85-4.54-6.173-8.626l1.852-11.165c.679-4.085 4.536-6.849 8.626-6.172 4.087.678 6.85 4.54 6.173 8.626l-1.852 11.165c-.61 3.671-3.788 6.274-7.391 6.274z" fill="#86e8d0"/></g><g><path d="m241.014 340.564c-2.288 0-4.547-1.043-6.02-3.019l-4.829-6.479c-2.476-3.321-1.789-8.02 1.531-10.495 3.32-2.476 8.021-1.791 10.496 1.531l4.829 6.479c2.476 3.321 1.789 8.02-1.531 10.495-1.345 1.004-2.918 1.488-4.476 1.488z" fill="#86e8d0"/></g><g><path d="m362.128 358.485c-.605 0-1.221-.074-1.834-.228l-10.124-2.545c-4.018-1.01-6.455-5.085-5.445-9.103 1.01-4.017 5.089-6.452 9.102-5.445l10.124 2.545c4.018 1.01 6.455 5.085 5.445 9.103-.856 3.403-3.912 5.673-7.268 5.673z" fill="#86e8d0"/></g></g><g fill="#fed2a4"><g><path d="m293.129 149.93.003-94.608c-2.298-.65-4.725-.992-7.233-.992-14.012 0-25.479 10.867-26.437 24.635v104.631c18.593 0 33.666-15.073 33.667-33.666z"/><path d="m240.132 150.931.008-125.65c-2.302-.653-4.74-1-7.251-1-13.955 0-25.385 10.787-26.425 24.476v135.84c18.593-.001 33.667-15.073 33.668-33.666z"/></g><path d="m153.408 168.596c18.553 0 33.596-15.035 33.606-33.588l.059-123.152c0-3.615.747-7.058 2.057-10.198-2.876-1.072-6-1.658-9.251-1.658-14.159 0-25.725 11.103-26.47 25.077z"/></g></g></svg>