<svg id="Capa_1" enable-background="new 0 0 497.15 497.15" height="512" viewBox="0 0 497.15 497.15" width="512" xmlns="http://www.w3.org/2000/svg"><g><g id="XMLID_99_"><path d="m312.575 212.72c-1.08-1.48-1.67-3.26-1.67-5.09v-173.9l12.88-25.76c1.83-3.66-.83-7.97-4.93-7.97h-140.56c-4.1 0-6.76 4.31-4.93 7.97l12.88 25.76v173.9c0 1.83-.59 3.61-1.67 5.09l-16.01 21.81 28.01 30.039h122.741l9.269-30.039z" fill="#f8f3f1"/></g><path d="m247.837 212.72c1.08-1.48 1.67-3.26 1.67-5.09v-159.77c0-9.292-2.164-18.457-6.319-26.769l-6.561-13.121c-1.83-3.66.83-7.97 4.93-7.97h-63.262c-4.096 0-6.76 4.31-4.928 7.974l12.878 25.756v173.9c0 1.83-.59 3.61-1.67 5.09l-16.01 21.81 28.01 30.039 6.7 6.215z" fill="#f2eae7"/><path d="m465.115 420.52c23.33 31.8.63 76.63-38.81 76.63h-355.46c-39.44 0-62.14-44.83-38.81-76.63l136.53-185.99h160.02z" fill="#b6ecdd"/><path d="m95.297 420.52 136.53-185.99h-63.262l-136.53 185.99c-23.33 31.8-.63 76.63 38.81 76.63h63.262c-39.44 0-62.14-44.83-38.81-76.63z" fill="#9de5d1"/><circle cx="248.075" cy="365.541" fill="#fcf0b6" r="94.038"/><g><path d="m245.958 369.041c-19.419 0-35.218-15.799-35.218-35.219 0-11.92 5.965-22.94 15.957-29.479 3.464-2.27 8.114-1.299 10.383 2.169 2.268 3.466 1.297 8.114-2.169 10.382-5.742 3.758-9.17 10.086-9.17 16.928 0 11.148 9.07 20.219 20.218 20.219s20.219-9.07 20.219-20.219c0-6.842-3.428-13.17-9.17-16.928-3.466-2.268-4.438-6.916-2.169-10.382 2.268-3.466 6.917-4.438 10.382-2.169 9.992 6.538 15.958 17.558 15.958 29.479-.002 19.42-15.801 35.219-35.221 35.219z" fill="#cbbfbb"/></g><g><path d="m220.562 419.048c-4.229 0-8.486-.764-12.576-2.319-3.872-1.472-5.816-5.804-4.344-9.676 1.472-3.871 5.802-5.818 9.676-4.344 6.413 2.436 13.549 1.496 19.087-2.523 9.021-6.549 11.033-19.218 4.483-28.239-6.549-9.022-19.216-11.033-28.239-4.484-5.537 4.02-8.644 10.512-8.312 17.366.201 4.138-2.991 7.654-7.128 7.854-4.136.206-7.654-2.99-7.854-7.128-.578-11.928 4.836-23.229 14.483-30.231 15.716-11.409 37.782-7.904 49.189 7.811 11.408 15.716 7.904 37.782-7.81 49.19-6.112 4.436-13.341 6.723-20.655 6.723z" fill="#cbbfbb"/></g><g><path d="m276.588 419.048c-7.315 0-14.542-2.286-20.655-6.724-15.715-11.408-19.219-33.475-7.811-49.19 11.408-15.716 33.475-19.219 49.189-7.811 9.647 7.002 15.061 18.304 14.483 30.231-.2 4.138-3.728 7.336-7.854 7.128-4.138-.2-7.329-3.717-7.128-7.854.332-6.854-2.775-13.347-8.312-17.366-9.023-6.549-21.69-4.537-28.239 4.484s-4.538 21.69 4.484 28.239c5.537 4.019 12.673 4.964 19.086 2.523 3.874-1.475 8.204.473 9.676 4.344 1.472 3.872-.473 8.204-4.344 9.676-4.088 1.557-8.347 2.32-12.575 2.32z" fill="#cbbfbb"/></g><g><path d="m248.075 408.996c-23.961 0-43.455-19.494-43.455-43.455s19.494-43.455 43.455-43.455 43.455 19.494 43.455 43.455-19.494 43.455-43.455 43.455zm0-71.911c-15.69 0-28.455 12.765-28.455 28.455s12.765 28.455 28.455 28.455 28.455-12.765 28.455-28.455-12.765-28.455-28.455-28.455z" fill="#cbbfbb"/></g></g></svg>