<svg id="Capa_1" enable-background="new 0 0 495.46 495.46" height="512" viewBox="0 0 495.46 495.46" width="512" xmlns="http://www.w3.org/2000/svg"><g><path d="m229.811 491.597-57.425-25.965c-65.76-29.734-108.018-95.218-108.018-167.387v-220.357c0-7.146 4.473-13.528 11.191-15.965l167.877-60.913c3.741-1.357 7.842-1.347 11.576.031l164.973 60.846c6.674 2.461 11.107 8.821 11.107 15.934v220.423c0 72.17-42.258 137.654-108.018 167.387l-57.425 25.965c-11.39 5.152-24.447 5.152-35.838.001z" fill="#86e8d0"/><path d="m231.007 437.164c-65.76-29.734-108.018-95.218-108.018-167.387v-220.357c0-1.719.265-3.393.752-4.979l-48.182 17.482c-6.718 2.438-11.191 8.819-11.191 15.965v220.357c0 72.17 42.258 137.654 108.018 167.387l57.425 25.965c11.391 5.151 24.448 5.151 35.839 0l42.822-19.362z" fill="#5de1c4"/><path d="m246.492 459.363c-.655-.103-1.29-.315-1.895-.589l-57.38-25.945c-52.759-23.854-86.85-76.683-86.85-134.585v-198.417c0-5.168 3.235-9.783 8.093-11.546l136.575-49.556c2.642-.959 5.538-.951 8.175.022l133.85 49.367c4.826 1.78 8.032 6.379 8.032 11.524v198.607c0 57.902-34.09 110.73-86.849 134.585l-57.425 25.965c-1.351.61-2.816.804-4.326.568z" fill="#faf7f7"/><path d="m231.007 437.164c-65.76-29.734-108.018-95.218-108.018-167.387v-186.767l-15.254 5.535c-4.422 1.604-7.366 5.805-7.366 10.509v199.19c0 57.902 34.09 110.73 86.85 134.585l57.38 25.945c.604.273 1.24.486 1.895.589 1.509.236 2.974.043 4.325-.568l13.992-6.326z" fill="#f9f3f1"/><g><path d="m296.635 225.205c-2.624 0-5.17-1.378-6.546-3.828-2.028-3.611-.745-8.184 2.867-10.212l42.708-23.947c3.616-2.021 8.186-.731 10.207 2.885 2.022 3.615.731 8.185-2.884 10.207l-42.686 23.934c-1.161.652-2.422.961-3.666.961z" fill="#f37c7c"/></g><g><path d="m352.109 252.417c-.052 0-.104-.001-.156-.002l-19.775-.402h-21.581c-4.142 0-7.5-3.357-7.5-7.5s3.358-7.5 7.5-7.5h21.657c.051 0 .102.001.153.002l19.852.404c4.141.084 7.43 3.51 7.346 7.65-.084 4.09-3.425 7.348-7.496 7.348z" fill="#f37c7c"/></g><g><path d="m298.856 339.137c-2.682 0-5.276-1.442-6.625-3.975l-9.339-17.523c-.081-.151-.156-.305-.226-.461l-11.537-25.752c-1.693-3.78-.002-8.218 3.778-9.911 3.78-1.695 8.217-.002 9.911 3.778l11.432 25.518 9.218 17.297c1.948 3.655.564 8.198-3.091 10.146-1.124.599-2.331.883-3.521.883z" fill="#f37c7c"/></g><g><path d="m247.451 363.87c-.103 0-.207-.002-.311-.006-4.139-.169-7.357-3.661-7.188-7.8l.806-32.771.474-21.025c.093-4.142 3.526-7.422 7.667-7.329 4.141.094 7.422 3.526 7.329 7.667l-.476 21.094c-.001.046-.002.091-.004.137l-.809 32.839c-.164 4.034-3.486 7.194-7.488 7.194z" fill="#f37c7c"/></g><g><path d="m302.848 140.722-6.816 11.457-105.255 171.388c-2.167 3.529-1.063 8.148 2.466 10.315 1.224.752 2.579 1.11 3.917 1.11 2.521 0 4.982-1.271 6.398-3.576l105.256-171.388 7.302-11.659z" fill="#f37c7c"/><g><path d="m251.541 192.959c-4.142 0-7.5-3.357-7.5-7.5v-43.175c0-4.143 3.358-7.5 7.5-7.5s7.5 3.357 7.5 7.5v43.175c0 4.143-3.358 7.5-7.5 7.5z" fill="#f37c7c"/></g><path d="m211.665 261.794c-1.989-3.633-6.547-4.965-10.18-2.978l-25.442 13.927-17.604 8.927-12.304 7.527 8.195 11.998 10.894-6.146 17.709-8.98c.07-.036.14-.072.209-.11l25.546-13.983c3.633-1.99 4.966-6.548 2.977-10.182z" fill="#f37c7c"/><g><path d="m200.273 245.441h-29.31c-.153 0-.305-.005-.458-.014l-19.819-1.212c-4.134-.253-7.281-3.81-7.028-7.944s3.814-7.253 7.944-7.028l19.59 1.198h29.081c4.142 0 7.5 3.357 7.5 7.5s-3.358 7.5-7.5 7.5z" fill="#f37c7c"/></g><path d="m209.288 205.548-20.579-13.918-25.932-16.952-7.453 11.966 25.002 17.425 20.559 13.905c1.288.871 2.749 1.288 4.195 1.288 2.406 0 4.77-1.156 6.219-3.299 2.32-3.431 1.42-8.094-2.011-10.415z" fill="#f37c7c"/><g><path d="m223.657 199.245c-2.798 0-5.482-1.572-6.771-4.265l-8.858-18.512-6.85-13.856c-1.835-3.714-.313-8.212 3.4-10.047 3.713-1.838 8.211-.313 10.047 3.4l6.891 13.942 8.9 18.598c1.788 3.736.208 8.215-3.528 10.003-1.043.5-2.146.737-3.231.737z" fill="#f37c7c"/></g><path d="m341.178 289.117-16.848-10.347-21.484-13.532c-3.505-2.208-8.135-1.155-10.343 2.349-2.208 3.505-1.156 8.136 2.349 10.343l21.556 13.577 16.92 10.392 13.421 8.098 7.942-12.173z" fill="#f37c7c"/><circle cx="251.541" cy="242.869" fill="#f79595" r="78.729"/><g fill="#f37c7c"><circle cx="310.597" cy="142.167" r="13.966"/><circle cx="351.02" cy="303.963" r="13.966"/><circle cx="246.788" cy="359.513" r="13.966"/><circle cx="147.422" cy="295.666" r="13.966"/><circle cx="154.633" cy="177.776" r="13.966"/><circle cx="241.675" cy="221.867" r="23.05"/></g><g><path d="m241.675 289.198h-5.639c-4.142 0-7.5-3.357-7.5-7.5s3.358-7.5 7.5-7.5h5.639c4.142 0 7.5 3.357 7.5 7.5s-3.358 7.5-7.5 7.5z" fill="#f37c7c"/></g><g><path d="m289.51 259.5h-4.831c-4.142 0-7.5-3.357-7.5-7.5s3.358-7.5 7.5-7.5h4.831c4.142 0 7.5 3.357 7.5 7.5s-3.357 7.5-7.5 7.5z" fill="#f37c7c"/></g></g></g></svg>