<svg id="Capa_1" enable-background="new 0 0 496.8 496.8" height="512" viewBox="0 0 496.8 496.8" width="512" xmlns="http://www.w3.org/2000/svg"><g><path d="m401.94 191.292v-8.573c0-13.02-6.18-25.26-16.65-32.99l-52.41-38.68 1.2-92.96h-170.16v92.96l-52.41 38.68c-10.47 7.73-16.65 19.97-16.65 32.99v8.52l33.24 41.834v184.317l-33.24 21.64v35.59c0 12.25 9.93 22.18 22.18 22.18h262.72c12.25 0 22.18-9.93 22.18-22.18v-35.59l-37.719-22.487-3.654-173.121 39.503-52.182s.679.02 1.87.052z" fill="#d9f1f5"/><path d="m229.976 18.09h-9.148-56.908v92.96l-52.41 38.68c-10.47 7.73-16.65 19.97-16.65 32.99v8.52l36.938 15.023 2.3 203.763-39.238 29.004v35.59c0 12.25 9.93 22.18 22.18 22.18h66.056c-12.25 0-22.18-9.93-22.18-22.18v-291.9c0-13.02 6.18-25.26 16.65-32.99l40.719-30.052c7.352-5.426 11.691-14.021 11.691-23.159h103.092l1.012-78.43h-104.104z" fill="#b3e5ee"/><g><path d="m401.94 191.24v247.79h-2.34-301.87-2.87v-247.79h2.87 302.34z" fill="#f8f3f1"/></g><path d="m97.73 191.24h-2.87v247.79h2.87 63.186v-247.79z" fill="#f2eae7"/><g id="XMLID_101_"><g><path d="m361.34 17.61v41.3c0 9.72-7.88 17.61-17.61 17.61h-191.66c-9.73 0-17.61-7.89-17.61-17.61v-41.3c0-9.73 7.88-17.61 17.61-17.61h191.66c9.73 0 17.61 7.88 17.61 17.61z" fill="#f8f3f1"/></g></g><g fill="#f2eae7"><path d="m182.954 58.91v-41.3c0-9.73 7.88-17.61 17.61-17.61h-48.494c-9.73 0-17.61 7.88-17.61 17.61v41.3c0 9.72 7.88 17.61 17.61 17.61h48.494c-9.73 0-17.61-7.89-17.61-17.61z"/><path d="m240.4 0h15v76.52h-15z"/><path d="m202.372 0h15v76.52h-15z"/></g><path d="m166.344 0h15v76.52h-15z" fill="#ede2de"/><path d="m278.427 0h15v76.52h-15z" fill="#f2eae7"/><path d="m314.456 0h15v76.52h-15z" fill="#f2eae7"/><circle cx="247.9" cy="316.391" fill="#b3e5ee" r="96.497"/><path d="m295.179 297.402h-28.29v-28.29c0-2.328-1.887-4.215-4.215-4.215h-29.548c-2.328 0-4.215 1.887-4.215 4.215v28.29h-28.29c-2.328 0-4.215 1.887-4.215 4.215v29.548c0 2.328 1.887 4.215 4.215 4.215h28.29v28.29c0 2.328 1.887 4.215 4.215 4.215h29.548c2.328 0 4.215-1.887 4.215-4.215v-28.29h28.29c2.328 0 4.215-1.887 4.215-4.215v-29.548c0-2.328-1.887-4.215-4.215-4.215z" fill="#f8f3f1"/></g></svg>