<svg id="Capa_1" enable-background="new 0 0 510.282 510.282" height="512" viewBox="0 0 510.282 510.282" width="512" xmlns="http://www.w3.org/2000/svg"><g><g><path d="m397.347 96.536c4.032-.948 8.067 1.562 9.011 5.595s-1.562 8.068-5.595 9.011l-27.276 6.939c-.675.189-1.355.279-2.023.279-3.28 0-6.292-2.168-7.219-5.482-1.116-3.989 1.214-8.127 5.203-9.242z" fill="#5de1c4"/></g><g><path d="m496.594 414.469c16.988 27.788-3.011 63.454-35.58 63.454h-410.923c-32.603 0-52.596-35.73-35.542-63.517l205.871-335.421c16.292-26.545 54.877-26.51 71.122.063z" fill="#cdbfba"/><path d="m76.006 444.152 205.871-335.421c4.571-7.447 10.896-12.8 17.99-16.064l-8.326-13.619c-16.245-26.574-54.83-26.608-71.122-.063l-205.87 335.421c-17.054 27.786 2.939 63.517 35.542 63.517h21.507c-3.254-10.72-2.292-22.855 4.408-33.771z" fill="#b9acac"/><path d="m467.586 432.203c1.944 3.181 1.153 5.988.146 7.783-1.007 1.796-2.989 3.936-6.719 3.936h-410.922c-3.732 0-5.716-2.144-6.722-3.941s-1.796-4.608.157-7.79l205.871-335.421c1.863-3.036 4.598-3.673 6.563-3.673 1.971 0 4.71.639 6.572 3.685z" fill="#fef0ae"/><path d="m275.846 118.558-13.313-21.777c-1.862-3.046-4.602-3.685-6.572-3.685-1.966 0-4.7.637-6.563 3.673l-205.872 335.422c-1.953 3.182-1.163 5.992-.157 7.79s2.989 3.941 6.722 3.941h26.056z" fill="#fee97d"/><g><path d="m502.782 308.516-59.074-.261c-4.142-.04-7.468-3.429-7.429-7.571.039-4.117 3.39-7.429 7.499-7.429h.072l58.932.261c4.143 0 7.5 3.357 7.5 7.5s-3.357 7.5-7.5 7.5z" fill="#f37c7c"/></g><g><path d="m418.911 376.635c-4.143 0-7.5-3.357-7.5-7.5v-15.751l-.075-24.17c-.013-4.143 3.335-7.511 7.477-7.523h.024c4.131 0 7.486 3.343 7.499 7.477l.075 24.193v15.774c0 4.143-3.357 7.5-7.5 7.5z" fill="#f37c7c"/></g><g><path d="m397.911 308.516h-50.87c-4.143 0-7.5-3.357-7.5-7.5s3.357-7.5 7.5-7.5h50.87c4.143 0 7.5 3.357 7.5 7.5s-3.357 7.5-7.5 7.5z" fill="#f37c7c"/></g><g><path d="m438.363 289.639c-1.879 0-3.76-.701-5.216-2.112-2.977-2.881-3.053-7.629-.171-10.604l31.231-31.809c2.928-2.929 7.677-2.928 10.606.001s2.929 7.678-.001 10.606l-31.062 31.635c-1.469 1.519-3.427 2.283-5.387 2.283z" fill="#f37c7c"/></g><g><path d="m478.217 367.822c-1.919 0-3.839-.732-5.304-2.196l-43.157-41.987c-3.012-2.843-3.148-7.59-.305-10.602 2.843-3.013 7.591-3.15 10.602-.305l43.468 42.286c2.929 2.93 2.929 7.678 0 10.607-1.465 1.464-3.385 2.197-5.304 2.197z" fill="#f37c7c"/></g><g><path d="m359.606 367.822c-1.919 0-3.839-.732-5.304-2.196-2.929-2.93-2.929-7.678 0-10.607l22.275-22.275 19.803-19.854c2.926-2.935 7.672-2.94 10.607-.015 2.933 2.926 2.938 7.674.014 10.606l-19.81 19.862-22.282 22.282c-1.464 1.464-3.384 2.197-5.303 2.197z" fill="#f37c7c"/></g><g><path d="m419.109 285.664c-4.118 0-7.471-3.324-7.499-7.449l-.199-61.069c0-4.143 3.357-7.5 7.5-7.5s7.5 3.357 7.5 7.5l.199 60.968c.027 4.143-3.308 7.522-7.449 7.551-.017-.001-.034-.001-.052-.001z" fill="#f37c7c"/></g><path d="m402.88 272.547-28.108-26.277c-2.928-2.928-7.677-2.929-10.606.001-2.929 2.929-2.929 7.678.001 10.606l28.776 26.904c1.427 1.263 3.199 1.883 4.966 1.883 2.074 0 4.139-.855 5.62-2.531 2.744-3.102 2.453-7.842-.649-10.586z" fill="#f37c7c"/><circle cx="418.911" cy="301.016" fill="#f79595" r="52.368"/><g><path d="m364.081 372.297c-1.92 0-3.839-.732-5.304-2.197l-8.844-8.845c-2.929-2.929-2.929-7.678.001-10.606 2.929-2.929 7.678-2.928 10.606.001l8.844 8.845c2.929 2.929 2.929 7.678-.001 10.606-1.463 1.464-3.383 2.196-5.302 2.196z" fill="#f37c7c"/></g><g><path d="m426.248 224.646h-14.824c-4.143 0-7.5-3.357-7.5-7.5s3.357-7.5 7.5-7.5h14.824c4.143 0 7.5 3.357 7.5 7.5s-3.357 7.5-7.5 7.5z" fill="#f37c7c"/></g><g><path d="m347.041 312.796c-4.143 0-7.5-3.357-7.5-7.5v-9.082c0-4.143 3.357-7.5 7.5-7.5s7.5 3.357 7.5 7.5v9.082c0 4.143-3.357 7.5-7.5 7.5z" fill="#f37c7c"/></g><circle cx="397.911" cy="278.164" fill="#f37c7c" r="21.199"/><g><path d="m414.087 333.185h-2.663c-4.143 0-7.5-3.357-7.5-7.5s3.357-7.5 7.5-7.5h2.663c4.143 0 7.5 3.357 7.5 7.5s-3.358 7.5-7.5 7.5z" fill="#f37c7c"/></g><g><path d="m446.708 305.756h-5.858c-4.143 0-7.5-3.357-7.5-7.5s3.357-7.5 7.5-7.5h5.858c4.143 0 7.5 3.357 7.5 7.5s-3.357 7.5-7.5 7.5z" fill="#f37c7c"/></g><g><path d="m399.048 92.063c-1.219 0-2.454-.297-3.599-.925l-11.653-6.389-11.91-6.703c-3.609-2.032-4.889-6.605-2.857-10.215 2.032-3.609 6.605-4.888 10.215-2.857l11.837 6.663 11.58 6.349c3.632 1.991 4.962 6.55 2.971 10.182-1.364 2.488-3.934 3.895-6.584 3.895z" fill="#5de1c4"/></g><g><path d="m430.792 86.6c-1.271 0-2.557-.322-3.736-1.002-3.59-2.067-4.823-6.653-2.756-10.242l8.968-15.569 11.308-20.09c2.032-3.61 6.606-4.888 10.215-2.857 3.609 2.032 4.889 6.605 2.857 10.215l-11.345 20.154-9.005 15.634c-1.388 2.409-3.911 3.757-6.506 3.757z" fill="#5de1c4"/></g><g><path d="m464.48 129.068c-1.246 0-2.509-.311-3.672-.965l-10.078-5.673c-.029-.017-.06-.034-.089-.051l-14.643-8.506c-3.581-2.081-4.798-6.671-2.718-10.253 2.08-3.581 6.671-4.798 10.253-2.718l14.599 8.48 10.033 5.647c3.609 2.032 4.889 6.605 2.857 10.215-1.376 2.448-3.921 3.824-6.542 3.824z" fill="#5de1c4"/></g><g><path d="m393.015 152.516c-1.354 0-2.726-.367-3.96-1.136-3.516-2.191-4.589-6.817-2.398-10.332l17.538-28.075c2.198-3.511 6.828-4.574 10.337-2.376 3.511 2.198 4.574 6.826 2.376 10.337l-17.521 28.048c-1.422 2.281-3.869 3.534-6.372 3.534z" fill="#5de1c4"/></g><path d="m369.447 103.636 12.411-3.471" fill="#5de1c4"/><g><path d="m413.687 81.83c-3.446 0-6.55-2.39-7.318-5.895l-6.835-27.479c-1.116-3.989 1.214-8.127 5.203-9.242 3.988-1.122 8.127 1.215 9.242 5.203l7.04 28.303c.889 4.045-1.672 8.045-5.718 8.933-.54.12-1.081.177-1.614.177z" fill="#5de1c4"/></g><g><path d="m444.87 98.524c-3.143 0-6.07-1.99-7.116-5.136-1.307-3.931.82-8.177 4.751-9.483l28.553-8.684c3.988-1.12 8.126 1.214 9.242 5.203 1.116 3.988-1.214 8.127-5.203 9.242l-27.859 8.473c-.786.261-1.584.385-2.368.385z" fill="#5de1c4"/></g><g><path d="m434.983 154.892c-3.28 0-6.292-2.168-7.219-5.482l-8.42-31.656c-1.027-4.013 1.394-8.099 5.406-9.125 4.011-1.032 8.099 1.393 9.125 5.406l8.334 31.336c1.116 3.988-1.214 8.127-5.203 9.242-.674.189-1.355.279-2.023.279z" fill="#5de1c4"/></g><circle cx="420.906" cy="97.034" fill="#86e8d0" r="38.448"/><g><path d="m395.753 154.057c-1.246 0-2.509-.311-3.672-.965l-5.811-3.271c-3.609-2.032-4.889-6.605-2.857-10.215s6.604-4.888 10.215-2.857l5.811 3.271c3.609 2.032 4.889 6.605 2.857 10.215-1.377 2.446-3.922 3.822-6.543 3.822z" fill="#5de1c4"/></g><g><path d="m415.436 92.062h-3.484c-4.143 0-7.5-3.357-7.5-7.5s3.357-7.5 7.5-7.5h3.484c4.143 0 7.5 3.357 7.5 7.5s-3.357 7.5-7.5 7.5z" fill="#5de1c4"/></g><g><path d="m429.376 114.888h-4.065c-4.143 0-7.5-3.357-7.5-7.5s3.357-7.5 7.5-7.5h4.065c4.143 0 7.5 3.357 7.5 7.5s-3.357 7.5-7.5 7.5z" fill="#5de1c4"/></g><g><path d="m111.172 206.999c-1.246 0-2.509-.311-3.672-.966l-99.108-55.791c-3.61-2.031-4.889-6.604-2.856-10.214 2.031-3.61 6.604-4.89 10.214-2.856l99.108 55.792c3.61 2.031 4.889 6.604 2.856 10.214-1.377 2.445-3.922 3.821-6.542 3.821z" fill="#fec165"/></g><g><path d="m31.519 233.133c-1.262 0-2.541-.318-3.715-.989-3.596-2.056-4.846-6.637-2.79-10.233l64.746-113.284c2.056-3.595 6.639-4.845 10.233-2.79 3.596 2.056 4.845 6.637 2.79 10.233l-64.745 113.284c-1.385 2.422-3.915 3.779-6.519 3.779z" fill="#fec165"/></g><g><path d="m78.296 235.782c-3.28 0-6.292-2.168-7.219-5.482l-31.465-112.517c-1.116-3.989 1.214-8.127 5.203-9.242 3.987-1.119 8.126 1.213 9.242 5.203l31.465 112.516c1.116 3.989-1.214 8.127-5.203 9.242-.675.19-1.355.28-2.023.28z" fill="#fec165"/></g><g><path d="m7.498 195.066c-3.28 0-6.292-2.168-7.219-5.482-1.116-3.989 1.214-8.127 5.203-9.242l113.252-31.67c3.988-1.121 8.127 1.214 9.242 5.203 1.116 3.989-1.214 8.127-5.203 9.242l-113.252 31.669c-.674.19-1.355.28-2.023.28z" fill="#fec165"/></g><circle cx="62.605" cy="172.155" fill="#fece85" r="42.853"/><g><path d="m34.571 234.852c-1.246 0-2.509-.311-3.673-.966l-6.476-3.646c-3.609-2.031-4.888-6.604-2.855-10.215 2.032-3.609 6.604-4.89 10.215-2.855l6.476 3.646c3.609 2.031 4.888 6.604 2.855 10.215-1.377 2.446-3.922 3.821-6.542 3.821z" fill="#fec165"/></g><g><path d="m56.51 165.753h-3.885c-4.143 0-7.5-3.357-7.5-7.5s3.357-7.5 7.5-7.5h3.885c4.143 0 7.5 3.357 7.5 7.5s-3.358 7.5-7.5 7.5z" fill="#fec165"/></g><g><path d="m72.046 191.196h-4.532c-4.143 0-7.5-3.357-7.5-7.5s3.357-7.5 7.5-7.5h4.532c4.143 0 7.5 3.357 7.5 7.5s-3.358 7.5-7.5 7.5z" fill="#fec165"/></g><g fill="#cdbfba"><path d="m264.899 315.079c6.799 0 12.358-5.422 12.528-12.219l2.657-106.412c.204-8.161-6.356-14.886-14.519-14.886h-19.188c-8.163 0-14.723 6.725-14.519 14.886l2.657 106.412c.17 6.797 5.728 12.219 12.528 12.219z"/><path d="m235.976 361.39.329 13.186c.197 7.878 6.639 14.161 14.519 14.161h10.293c7.88 0 14.322-6.284 14.519-14.161l.329-13.186c.167-6.692-5.212-12.207-11.906-12.207h-16.178c-6.693 0-12.072 5.515-11.905 12.207z"/></g></g><g><path d="m457.249 54.334c-1.246 0-2.509-.311-3.672-.966l-12.385-6.972c-3.61-2.031-4.889-6.604-2.856-10.214 2.031-3.61 6.605-4.891 10.214-2.856l12.385 6.972c3.61 2.031 4.889 6.604 2.856 10.214-1.377 2.446-3.922 3.822-6.542 3.822z" fill="#5de1c4"/></g><g><path d="m502.782 318.119c-4.143 0-7.5-3.357-7.5-7.5v-19.357c0-4.143 3.357-7.5 7.5-7.5s7.5 3.357 7.5 7.5v19.357c0 4.143-3.357 7.5-7.5 7.5z" fill="#f37c7c"/></g><g><path d="m103.112 123.704c-1.246 0-2.509-.311-3.673-.966l-13.803-7.771c-3.609-2.031-4.888-6.604-2.855-10.215 2.031-3.61 6.602-4.89 10.215-2.855l13.803 7.771c3.609 2.031 4.888 6.605 2.855 10.215-1.377 2.446-3.922 3.821-6.542 3.821z" fill="#fec165"/></g></g></svg>