<svg id="Capa_1" enable-background="new 0 0 494.914 494.914" height="512" viewBox="0 0 494.914 494.914" width="512" xmlns="http://www.w3.org/2000/svg"><g><path d="m368.086 424.86c9.445-16.34 13.955-35.067 12.983-53.916l-6.609-128.171 1.049-49.528 4.684-74.48c4.047-64.35-47.053-118.765-111.53-118.765h-20.706-48.327c-28.544 0-53.677 18.806-61.73 46.19l-1.254 4.265c-14.803 9.516-23.31 26.287-22.244 43.852l6.003 98.938 1.049 49.528-6.609 128.171c-.972 18.849 3.537 37.575 12.983 53.916l23.096 41.335h200.19l10.919-8.32z" fill="#cdbfba"/><path d="m274.411 366.187 68.718 39.081c21.928 12.471 35.472 35.755 35.472 60.982v19.671c0 4.967-4.027 8.994-8.994 8.994h-246.301c-4.967 0-8.994-4.027-8.994-8.994v-19.671c0-25.226 13.544-48.511 35.472-60.982l68.718-39.081 11.807-5.958h33.347z" fill="#a6e7f0"/><path d="m246.457 360.228h-16.147l-11.807 5.958-68.718 39.081c-21.928 12.471-35.472 35.755-35.472 60.981v19.671c0 4.967 4.027 8.994 8.994 8.994h34.345v-17.596c0-25.227 13.544-48.511 35.472-60.982l53.334-30.332v-25.775z" fill="#6bd9e7"/><g><path d="m364.575 242.773h-36.416v-51.009h36.416c9.379 0 16.983 7.604 16.983 16.983v17.043c0 9.38-7.604 16.983-16.983 16.983z" fill="#fed2a4"/><path d="m130.339 242.773h34.416v-51.009h-34.416c-9.379 0-16.983 7.604-16.983 16.983v17.043c0 9.38 7.603 16.983 16.983 16.983z" fill="#fed2a4"/><g><g id="XMLID_426_"><g><path d="m348.157 171.381v56.77c0 36.09-16.08 69.68-42.87 92.31l-30 24.73h-57.66l-31.46-27.78c-24.71-22.54-39.41-54.76-39.41-89.26v-63.65c0-24.83 9.07-48.8 25.49-67.41l8.75-9.9c3.4-3.85 9.59-3.23 12.14 1.23 6.176 10.818 15.818 23.196 29.836 37.535 1.599 1.635 4.027 2.158 6.154 1.319l14.258-5.623c2.471-.974 5.272-.584 7.382 1.028l13.969 10.672c19.99 15.26 43.71 24.87 68.69 27.81l6.3.74c4.811.569 8.431 4.639 8.431 9.479z" fill="#ffe5c2"/></g></g></g><path d="m339.727 161.901-6.3-.74c-24.98-2.94-48.7-12.55-68.69-27.81l-13.969-10.672c-2.111-1.613-4.911-2.002-7.382-1.028l-14.258 5.623c-2.127.839-4.555.316-6.154-1.319-14.018-14.339-23.66-26.717-29.836-37.535-1.832-3.204-5.54-4.414-8.745-3.42 2.217 12.592 8.046 45.133 21.192 58.58 1.865 1.907 4.697 2.517 7.179 1.539l16.633-6.56c2.882-1.137 6.15-.682 8.612 1.199l16.295 12.449c23.319 17.801 50.989 29.012 80.129 32.441l7.349.863c2.482.294 4.685 1.392 6.377 3.009v-17.14c-.002-4.838-3.622-8.909-8.432-9.479z" fill="#fed2a4"/><path d="m275.286 346.139v12.979c0 15.922-12.907 28.829-28.829 28.829s-28.829-12.907-28.829-28.829v-13.931-44.575h57.658z" fill="#ffe5c2"/><g fill="#f3eae6"><path d="m348.157 215.142v-23.981l-5.849 7.415-42.065 51.616-24.176 30.392c-2.579 3.241-2.041 7.96 1.201 10.538 1.38 1.099 3.028 1.631 4.664 1.631 2.207 0 4.394-.97 5.875-2.831l24.12-30.322z"/><path d="m222.809 298.306c1.806 0 3.618-.648 5.056-1.962 3.059-2.794 3.273-7.538.479-10.597l-34.29-37.54-40.491-49.684-6.807-8.335v23.727l35.804 43.933c.089.109.181.216.276.32l34.432 37.696c1.481 1.62 3.507 2.442 5.541 2.442z"/></g></g><path d="m261.24 347.154h-29.566c-27.438 0-49.681-22.243-49.681-49.681v-29.463c0-9.839 7.26-18.17 17.007-19.514l24.009-3.311c1.649-.227 3.242-.757 4.698-1.563l13.516-7.474c3.902-2.158 8.617-2.254 12.604-.257l15.96 7.994c1.263.633 2.617 1.063 4.013 1.277l20.402 3.12c9.617 1.471 16.72 9.743 16.72 19.472v29.717c-.001 27.44-22.244 49.683-49.682 49.683z" fill="#faf7f7"/><g><path d="m217.628 307.278v-29.463c0-9.839 7.26-18.17 17.007-19.514l24.009-3.311c1.649-.227 3.242-.757 4.698-1.563l13.516-7.474c.168-.093.345-.16.515-.245l-3.574-.546c-1.396-.214-2.75-.645-4.013-1.277l-15.96-7.994c-3.987-1.997-8.702-1.901-12.604.257l-13.516 7.474c-1.457.806-3.049 1.335-4.698 1.563l-24.008 3.311c-9.747 1.344-17.007 9.674-17.007 19.513v29.463c0 27.438 22.243 49.681 49.681 49.681h6c-12.165-9.055-20.046-23.544-20.046-39.875z" fill="#f9f3f1"/></g></g></svg>