<svg id="Capa_1" enable-background="new 0 0 500.282 500.282" height="512" viewBox="0 0 500.282 500.282" width="512" xmlns="http://www.w3.org/2000/svg"><g><path d="m277.565 371.555 68.718 39.081c21.928 12.471 35.472 35.755 35.472 60.982v18.376c0 5.682-4.606 10.289-10.289 10.289h-243.711c-5.682 0-10.289-4.606-10.289-10.289v-18.376c0-25.226 13.544-48.511 35.472-60.982l68.718-39.081 16.357-8.893h29.311z" fill="#a7eedc"/><g><path d="m259.879 362.662h-21.865l-16.357 8.894-68.718 39.081c-21.928 12.471-35.472 35.755-35.472 60.981v18.376c0 5.682 4.606 10.289 10.289 10.289h22.156v-8.454c0-25.226 13.544-48.51 35.472-60.981l68.718-39.081 5.778-3.141v-25.964z" fill="#86e8d0"/></g><path d="m377.802 200.445 4.62-77.155-4.62-17.659-9.79-7.063-244.593-7.833-5.075 24.952 5.075 84.758 1.326 21.118 251.933-6.399z" fill="#e1d3ce"/><g><g fill="#ffcebf"><path d="m142.014 248.142h24.895v-51.009h-24.895c-14.086 0-25.504 11.419-25.504 25.504 0 14.086 11.418 25.505 25.504 25.505z"/><path d="m359.207 248.142h-31.895v-51.009h31.895c14.086 0 25.504 11.419 25.504 25.504.001 14.086-11.418 25.505-25.504 25.505z"/><path d="m278.44 364.486c0 15.922-12.907 28.829-28.829 28.829s-28.829-12.907-28.829-28.829v-75.671h57.658z"/></g><g id="XMLID_433_"><g><path d="m329.151 17.84h-30.58-.01-16.063l-13.362 42.908 12.074 13.582c11.33 28.63 38.13 49.47 70.1 52.15 2.32.2 4.66.3 7.03.3h18.75c4 0 7.24-3.24 7.24-7.25v-46.51c.001-30.48-24.699-55.18-55.179-55.18z" fill="#cdbfba"/><path d="m318.565 17.84h-19.994-.01c-.5 20.79-6.8 40.14-17.35 56.49 2.749 6.947 6.416 13.43 10.84 19.312 2.083-2.731 4.081-5.547 5.964-8.467 12.851-19.914 19.952-43.005 20.538-66.777.003-.109.007-.275.012-.558z" fill="#b9acac"/><path d="m298.601 10.63s-.01 6.31-.04 7.21c-.5 20.79-6.8 40.14-17.35 56.49-19.47 30.19-53.39 50.17-91.98 50.17h-39.32-19.2c-4.18 0-7.96-1.69-10.7-4.43s-4.44-6.52-4.44-10.7c0-60.41 48.97-109.37 109.37-109.37h63.03c5.87 0 10.63 4.76 10.63 10.63z" fill="#cdbfba"/><path d="m351.311 126.48v107.04c0 46.61-26.81 89.07-68.91 109.1l-14.73 7.01c-10.79 5.14-23.32 5.14-34.11 0l-19.78-9.41c-39.02-18.56-63.87-57.92-63.87-101.12v-114.6h39.32c38.59 0 72.51-19.98 91.98-50.17 11.33 28.63 38.13 49.47 70.1 52.15z" fill="#ffdfcf"/></g></g><path d="m268.221 193.78v28.073l5.793 7.326c6.341 8.018 2.55 19.906-7.262 22.773l-1.569.458c-10.218 2.986-21.088 2.901-31.258-.244-9.675-2.992-13.328-14.766-7.047-22.709l6.014-7.605v-28.072c0-1.101.893-1.994 1.994-1.994h31.341c1.101 0 1.994.893 1.994 1.994z" fill="#ffcebf"/><path d="m280.248 278.018c0 8.499-6.89 15.39-15.39 15.39s-15.39-6.89-15.39-15.39c0-5.006 5.339-13.013 9.727-18.749 2.859-3.737 8.466-3.737 11.325 0 4.389 5.737 9.728 13.744 9.728 18.749z" fill="#a6e7f0"/></g><path d="m291.557 92.962c-.236-.321-1.23-1.709-1.488-2.083-3.542-5.13-6.532-10.671-8.858-16.548-19.47 30.19-53.39 50.17-91.98 50.17h-39.32v20h39.32c32.713 0 63.494-12.188 86.997-33.6 1.247-1.137 3.197-1.004 4.3.273 4.753 5.501 10.09 10.518 15.96 14.939 15.483 11.662 33.862 18.682 53.112 20.296.566.049 1.141.071 1.711.11v-20.039c-24.508-2.055-45.964-14.791-59.754-33.518z" fill="#ffcebf"/></g></svg>