<svg id="Capa_1" enable-background="new 0 0 496.312 496.312" height="512" viewBox="0 0 496.312 496.312" width="512" xmlns="http://www.w3.org/2000/svg"><g><g id="XMLID_440_"><g><path d="m374.306 124.69c13.55 14.97 16.21 36.85 6.63 54.62l-8.31 15.42-21.35 35.91-77.34-6.84 30.64-126.5 69.443 27.099z" fill="#fef0ae"/></g></g><path d="m198.106 26.86c-5.6-2.11-11.68-3.26-18.03-3.26-28.29 0-51.23 22.94-51.23 51.23 0 .93.03 1.85.08 2.77-13.97 3.73-24.25 16.47-24.25 31.61 0 10.54 4.99 19.91 12.73 25.9-6.4 6.58-10.35 15.56-10.35 25.46 0 14.52 8.47 27.06 20.75 32.95l64.049 37.123 84.35-171.705z" fill="#fef0ae"/><path d="m275.33 367.585 68.718 39.081c21.928 12.471 35.472 35.755 35.472 60.982v18.553c0 5.585-4.527 10.112-10.112 10.112h-244.065c-5.585 0-10.112-4.527-10.112-10.112v-18.553c0-25.226 13.544-48.511 35.472-60.982l68.718-39.081 12.522-7.339h32.575z" fill="#fef0ae"/><path d="m262.757 360.246h-30.814l-12.521 7.339-68.718 39.081c-21.928 12.471-35.472 35.755-35.472 60.981v18.553c0 5.584 4.527 10.112 10.112 10.112h28.589v-8.919c0-25.226 13.544-48.51 35.472-60.981l68.718-39.081 4.635-2.717v-24.368z" fill="#fee97d"/><path d="m276.205 360.516c0 15.922-12.907 28.829-28.829 28.829s-28.829-12.907-28.829-28.829v-65.074h57.658z" fill="#fed2a4"/><g><g id="XMLID_438_"><g><path d="m175.676 235.13v9.04h-35.9c-7.04 0-13.42-2.86-18.03-7.47s-7.47-10.99-7.47-18.03c0-10.13 5.9-18.88 14.44-23 3.35-1.61 7.1-2.51 11.06-2.51h35.9z" fill="#fed2a4"/><path d="m356.976 193.16c14.08 0 25.5 11.42 25.5 25.51 0 7.04-2.86 13.42-7.47 18.03s-10.99 7.47-18.03 7.47h-36.9v-14.62-36.39z" fill="#fed2a4"/><path d="m236.438 67.376-51.433 16.244-10.85 8.89c-16.76 13.74-26.48 34.28-26.48 55.95v44.7 41.97c0 43.2 24.85 82.56 63.87 101.12l19.78 9.41c10.79 5.14 23.32 5.14 34.11 0l14.73-7.01c42.1-20.03 68.91-62.49 68.91-109.1v-36.39-46.58l2.2-32.932z" fill="#ffe5c2"/><path d="m349.076 146.58c-5.27 1.99-10.98 3.08-16.95 3.08-18.7 0-34.89-10.7-42.81-26.3-7.17 6.64-16.76 10.71-27.31 10.71-19.6 0-35.91-14.03-39.47-32.6-1.31.13-2.64.2-3.99.2-14.02 0-26.35-7.18-33.54-18.05-4.2-6.35-6.65-13.96-6.65-22.14 0-14.74 7.93-27.62 19.75-34.62 5.99-3.55 12.98-5.58 20.44-5.58 1.87 0 3.71.14 5.51.39 3.69-12.53 15.27-21.67 28.99-21.67 11.33 0 21.19 6.23 26.37 15.45 6-3.79 13.11-5.98 20.73-5.98 21.5 0 38.93 17.43 38.93 38.93 0 1.95-.15 3.86-.42 5.74 23.41 3.18 41.46 23.24 41.46 47.53 0 8.33-2.12 16.16-5.85 22.98-5.47 10.01-14.41 17.86-25.19 21.93z" fill="#fee97d"/></g><g><g><path d="m414.915 139.92c-4.124 0-7.478-3.332-7.499-7.461-.021-4.142 3.318-7.518 7.461-7.539l30.057-.157-1.596-5.268c-.684-2.256-.267-4.702 1.125-6.604 1.393-1.901 3.598-3.039 5.954-3.069l34.32-.45c.033-.001.067-.001.101-.001 4.097 0 7.443 3.293 7.497 7.401.055 4.142-3.259 7.544-7.4 7.598l-24.35.319 1.619 5.347c.687 2.266.263 4.723-1.143 6.628s-3.629 3.034-5.996 3.047l-40.11.21c-.013-.001-.027-.001-.04-.001z" fill="#f79595"/></g><g><path d="m81.837 139.92c-.014 0-.026 0-.04 0l-40.11-.21c-2.367-.013-4.59-1.142-5.996-3.047-1.405-1.905-1.829-4.362-1.143-6.628l1.619-5.347-24.35-.319c-4.142-.054-7.455-3.456-7.4-7.598.054-4.108 3.401-7.401 7.497-7.401.033 0 .066 0 .101.001l34.32.45c2.356.03 4.562 1.168 5.954 3.069 1.392 1.902 1.809 4.349 1.125 6.604l-1.596 5.268 30.057.157c4.143.021 7.482 3.397 7.461 7.539-.022 4.13-3.375 7.462-7.499 7.462z" fill="#f79595"/></g><g><path d="m234.602 293.068c-2.354.001-4.717-.695-6.742-2.11l-8.936-6.272-5.867 4.854c-3.192 2.64-7.92 2.193-10.56-.997-2.641-3.191-2.194-7.92.997-10.56l7.76-6.42c4.042-3.361 9.904-3.609 14.245-.589l8.828 6.197 5.027-4.68c4.496-4.193 11.546-4.192 16.046.005l5.022 4.675 8.803-6.18c4.362-3.036 10.228-2.792 14.285.583l7.745 6.408c3.191 2.64 3.638 7.368.997 10.56-2.64 3.192-7.367 3.64-10.56.997l-5.867-4.854-8.922 6.264c-4.542 3.172-10.757 2.738-14.792-1.021l-4.737-4.409-4.739 4.411c-2.228 2.076-5.125 3.138-8.033 3.138zm39.332-9.949c.004.004.008.007.012.01zm-53.102-.012-.013.01c.005-.003.009-.007.013-.01z" fill="#fed2a4"/></g><g fill="#fef0ae"><path d="m488.816 6.22-54.32 28.41c-1.32.69-1.45 2.52-.25 3.4l10.5 7.7c.99.72 1.11 2.16.25 3.03l-31.82 32.33c-1.56 1.58.23 4.15 2.26 3.24l67.53-30.25c1.4-.63 1.61-2.52.39-3.44l-10.85-8.21c-.83-.63-1.05-1.8-.49-2.68l19.43-30.67c1.11-1.74-.8-3.81-2.63-2.86z"/><path d="m6.936 6.22 54.32 28.41c1.32.69 1.45 2.52.25 3.4l-10.5 7.7c-.99.72-1.11 2.16-.25 3.03l31.82 32.33c1.56 1.58-.23 4.15-2.26 3.24l-67.53-30.25c-1.4-.63-1.61-2.52-.39-3.44l10.85-8.21c.83-.63 1.05-1.8.49-2.68l-19.43-30.67c-1.11-1.74.8-3.81 2.63-2.86z"/></g></g></g></g><path d="m289.316 123.36c-7.17 6.64-16.76 10.71-27.31 10.71-19.6 0-35.91-14.03-39.47-32.6-1.31.13-2.64.2-3.99.2-14.02 0-26.35-7.18-33.54-18.05l-10.85 8.89c-1.567 1.285-3.072 2.629-4.514 4.028 9.267 12.923 23.093 21.544 38.508 24.234 9.988 19.971 30.636 33.298 53.855 33.298 7.661 0 15.148-1.445 22.121-4.201 12.524 12.52 29.623 19.791 47.999 19.791 5.763 0 11.436-.732 16.95-2.151v-20.929c-5.27 1.99-10.98 3.08-16.95 3.08-18.699 0-34.89-10.7-42.809-26.3z" fill="#fed2a4"/></g></svg>