<svg id="Capa_1" enable-background="new 0 0 496.36 496.36" height="512" viewBox="0 0 496.36 496.36" width="512" xmlns="http://www.w3.org/2000/svg"><g><g id="XMLID_486_"><g><path d="m420.95 339.7-77.54-56.21h-10.459l-23.015 38.213-53.701 22.361-56.258-17.083-32.391-43.49-17.018 1.73-75.158 54.479c-16.83 12.2-26.79 31.73-26.79 52.52v89.1c0 8.306 6.734 15.04 15.04 15.04h369.04c8.306 0 15.04-6.734 15.04-15.04v-89.1c0-20.79-9.96-40.32-26.79-52.52z" fill="#a7eedc"/></g></g><path d="m100.959 418.129c0-20.79 9.96-40.32 26.79-52.52l65.769-47.303-25.93-34.815-17.018 1.73-75.16 54.479c-16.83 12.2-26.79 31.73-26.79 52.52v89.1c0 8.306 6.734 15.04 15.04 15.04h37.299z" fill="#86e8d0"/><path d="m343.41 283.49-.35.49c-8.79 42.82-46.76 75.12-92.14 75.12h-8.48c-44.94 0-82.62-31.68-91.87-73.88l27.82-20.17 29.23-20.44h82.6l27.75 20.44z" fill="#f9f3f1"/><path d="m258.422 244.61h-50.802l-29.23 20.44-27.82 20.17c3.877 17.687 12.762 33.512 25.068 45.945l82.784-59.541z" fill="#f3eae6"/><path d="m314.972 265.052c0 35.375-28.677 64.052-64.052 64.052h-8.479c-35.375 0-64.052-28.677-64.052-64.052v-169.079h136.584v169.079z" fill="#f1b0a2"/><path d="m48.623 12.902v16.991c0 18.073 14.651 32.723 32.723 32.723h71.949v-62.614h-91.773c-7.124 0-12.899 5.776-12.899 12.9z" fill="#d78878"/><path d="m415.014 62.616c18.073 0 32.723-14.651 32.723-32.723v-18.668c0-6.198-5.024-11.222-11.222-11.222h-88.135v62.614h66.634z" fill="#eb9c8d"/><g><g id="XMLID_484_"><g><path d="m213.76 95.973h-35.371v169.079c0 35.375 28.677 64.052 64.052 64.052h8.479c2.829 0 5.634-.186 8.366-.541-22.028-10.129-37.356-32.393-37.356-58.227v-5.66c0-10.005 8.49-18.032 18.461-17.213 2.593.213 5.192.321 7.789.321 14.299 0 28.681-3.249 41.579-9.392l17.317-8.234c2.665-1.269 5.295-2.597 7.896-3.971v-124.93-5.284z" fill="#eb9c8d"/><path d="m407.5 0v39.48c0 73.75-42.42 140.92-109.02 172.62l-17.31 8.23c-20.87 9.94-45.11 9.94-65.98 0l-17.31-8.23c-66.6-31.7-109.02-98.87-109.02-172.62v-39.48z" fill="#f1b0a2"/></g></g><path d="m260.623 196.78-17.31-8.23c-66.6-31.7-109.02-98.87-109.02-172.62v-15.93h-45.433v39.48c0 73.75 42.42 140.92 109.02 172.62l17.31 8.23c20.87 9.94 45.11 9.94 65.98 0l17.31-8.23c8.235-3.919 16.098-8.383 23.559-13.332-19.784 7.894-42.05 7.235-61.416-1.988z" fill="#eb9c8d"/><path d="m140.422 496.36v-63.083c0-4.143-3.358-7.5-7.5-7.5s-7.5 3.357-7.5 7.5v63.083z" fill="#86e8d0"/><path d="m370.938 496.36v-63.083c0-4.143-3.358-7.5-7.5-7.5s-7.5 3.357-7.5 7.5v63.083z" fill="#86e8d0"/><g><path d="m283.348 288.341c-1.477 0-2.969-.436-4.274-1.343l-29.695-20.643c-3.401-2.364-4.242-7.038-1.877-10.439 2.364-3.399 7.038-4.242 10.439-1.877l29.695 20.643c3.401 2.364 4.242 7.038 1.877 10.439-1.457 2.096-3.792 3.22-6.165 3.22z" fill="#f37c7c"/></g><g><path d="m254.297 289.196c-2.222 0-4.421-.982-5.901-2.864-2.56-3.256-1.996-7.972 1.26-10.531l28.429-22.354c3.255-2.562 7.971-1.997 10.531 1.26 2.561 3.256 1.997 7.972-1.26 10.531l-28.429 22.354c-1.373 1.08-3.008 1.604-4.63 1.604z" fill="#f37c7c"/></g><g><path d="m360.247 228.814c-2.021 0-4.035-.812-5.513-2.413-2.809-3.043-2.62-7.788.424-10.598l31.982-29.522c1.945-1.798 4.695-2.435 7.233-1.676 2.538.758 4.488 2.798 5.13 5.367l.724 2.895 19.062-16.575c3.126-2.719 7.862-2.389 10.581.738 2.718 3.125 2.387 7.862-.738 10.58l-28.292 24.602c-1.969 1.713-4.686 2.279-7.174 1.494-2.488-.783-4.391-2.804-5.023-5.334l-.623-2.489-22.688 20.942c-1.442 1.331-3.266 1.989-5.085 1.989z" fill="#f37c7c"/></g><g><path d="m436.788 275.785c-.134 0-.268-.003-.403-.011l-37.44-1.985c-2.605-.138-4.952-1.62-6.195-3.913-1.244-2.293-1.207-5.068.098-7.327l1.283-2.222-30.867-.719c-4.141-.097-7.419-3.531-7.323-7.673.095-4.081 3.434-7.325 7.495-7.325.06 0 .119.001.178.002l43.513 1.014c2.647.062 5.066 1.516 6.364 3.824 1.297 2.31 1.281 5.132-.044 7.425l-1.492 2.583 25.224 1.338c4.137.219 7.312 3.75 7.092 7.887-.212 4.001-3.523 7.102-7.483 7.102z" fill="#f37c7c"/></g><g><path d="m136.113 228.814c-1.819 0-3.643-.658-5.085-1.989l-22.688-20.942-.623 2.489c-.633 2.53-2.535 4.551-5.023 5.334-2.487.785-5.205.219-7.174-1.494l-28.291-24.602c-3.125-2.718-3.456-7.455-.738-10.58 2.718-3.128 7.456-3.457 10.581-.738l19.062 16.575.724-2.895c.642-2.569 2.592-4.609 5.13-5.367 2.538-.757 5.288-.121 7.233 1.676l31.982 29.522c3.044 2.81 3.233 7.555.424 10.598-1.479 1.601-3.493 2.413-5.514 2.413z" fill="#f37c7c"/></g><g><path d="m59.572 275.785c-3.96 0-7.271-3.102-7.483-7.103-.22-4.137 2.956-7.668 7.092-7.887l25.224-1.338-1.492-2.583c-1.325-2.293-1.341-5.115-.044-7.425 1.297-2.309 3.716-3.763 6.364-3.824l43.513-1.014c4.152-.073 7.576 3.183 7.673 7.323.096 4.142-3.182 7.576-7.323 7.673l-30.867.719 1.283 2.222c1.305 2.259 1.342 5.034.098 7.327s-3.59 3.775-6.195 3.913l-37.44 1.985c-.134.009-.269.012-.403.012z" fill="#f37c7c"/></g></g></g></svg>