<svg id="Capa_1" enable-background="new 0 0 494.446 494.446" height="512" viewBox="0 0 494.446 494.446" width="512" xmlns="http://www.w3.org/2000/svg"><g><path d="m356.35 469.306c37.372-1.103 67.33-31.746 67.33-69.385 0-22.254-10.484-42.046-26.768-54.75 5.416-8.124 8.578-17.879 8.578-28.375 0-10.108-2.928-19.532-7.981-27.471l4.643-58.392 5.598-89.006c4.835-76.9-56.231-141.927-133.283-141.927h-24.744-57.751c-34.111 0-64.145 22.473-73.769 55.199l-1.499 5.097c-17.69 11.372-27.856 31.413-26.582 52.404l7.174 118.234.41 57.222c-5.523 8.176-8.749 18.032-8.749 28.641 0 10.496 3.162 20.251 8.578 28.375-16.284 12.703-26.768 32.496-26.768 54.75 0 38.337 31.079 69.416 69.417 69.416.348-.001 216.166-.032 216.166-.032z" fill="#cdbfba"/><path d="m128.784 290.121h-19.618c-11.209 0-20.295-9.086-20.295-20.295v-20.367c0-11.209 9.086-20.295 20.295-20.295h19.618 57.205v58.992z" fill="#fed2a4"/><g><path d="m389.085 290.121c11.209 0 20.295-9.086 20.295-20.295v-20.367c0-11.209-9.086-20.295-20.295-20.295h-87.346v60.957z" fill="#fed2a4"/><path d="m296.083 430.043-7.05-25.49-4.49-52.459h-67.61l-6.52 52.459-7.05 25.49-10.97 7.21 21.576 38.556h89.866l3.288-38.516z" fill="#fed2a4"/><g id="XMLID_492_"><g><path d="m369.463 204.803.6 67.84c0 55.71-32.05 106.45-82.35 130.38l-17.61 8.38c-1.52.73-21.09 6.12-21.09 6.12s-18.6-5.61-19.67-6.12l-23.63-11.24c-46.63-22.19-76.33-69.22-76.33-120.85l-.6-82.73c0-29.67 10.84-58.31 30.47-80.55l10.45-11.83c4.06-4.61 11.45-3.88 14.5 1.46 7.06 12.36 17.91 26.43 33.5 42.62 3.19 3.32 8.06 4.38 12.34 2.7l18.97-7.48 20.76 15.85c23.88 18.24 52.24 29.72 82.09 33.24l7.53.88c5.75.68 10.07 5.55 10.07 11.33z" fill="#ffe5c2"/></g></g><path d="m183.618 126.023c7.476 12.36 21.424 30.447 37.932 46.637 3.378 3.32 8.534 4.38 13.066 2.7l16.713-6.224c2.108-.785 4.469-.467 6.294.849l19.062 13.744c25.286 18.24 55.316 29.72 86.923 33.24l5.968.659-.114-12.825c0-5.78-4.32-10.65-10.07-11.33l-7.53-.88c-29.85-3.52-58.21-15-82.09-33.24l-20.76-15.85-18.97 7.48c-4.28 1.68-9.15.62-12.34-2.7-15.59-16.19-26.44-30.26-33.5-42.62-2.796-4.895-9.232-5.922-13.414-2.507 4.319 8.135 10.539 19.078 12.83 22.867z" fill="#fed2a4"/><g><g id="XMLID_494_"><g><path d="m369.007 494.443h-238.567c-4.162 0-6.637-4.657-4.306-8.105 4.458-6.596 10.192-12.27 16.9-16.675l49.36-32.41.76.56 17.16 9.56c6.11 3.4 12.54 5.96 19.15 7.66l39.13.34c7.09-1.7 14.01-4.36 20.54-8l17.16-9.56.83-.52 49.29 32.37c6.708 4.405 12.442 10.079 16.9 16.675 2.33 3.449-.145 8.105-4.307 8.105z" fill="#a7eedc"/></g></g></g><g><path d="m177.858 479.624 42.14-27.669c-3.3-1.304-6.536-2.829-9.685-4.581l-17.16-9.56-.76-.56-49.36 32.41c-6.708 4.405-12.442 10.079-16.9 16.675-2.331 3.448.144 8.105 4.307 8.105h31.84c4.25-5.805 9.51-10.836 15.578-14.82z" fill="#86e8d0"/></g></g><path d="m262.676 375.696c10.886-5.131 18.422-16.199 18.422-29.031v-11.283c0-17.718-14.364-32.082-32.082-32.082-17.718 0-32.082 14.364-32.082 32.082v11.283c0 12.832 7.537 23.9 18.422 29.031z" fill="#f1b0a2"/><path d="m270.938 486.896-9.247-124.443c-.493-6.636-6.021-11.769-12.676-11.769-6.655 0-12.183 5.133-12.676 11.769l-9.247 124.443c-.303 4.076 2.923 7.55 7.01 7.55h29.825c4.089 0 7.314-3.474 7.011-7.55z" fill="#fef0ae"/></g></svg>