<svg id="Capa_1" enable-background="new 0 0 497.021 497.021" height="512" viewBox="0 0 497.021 497.021" width="512" xmlns="http://www.w3.org/2000/svg"><g><path d="m277.799 367.92h-63.4l-31.21-16.11h-.01l-38.53-29.11c-.06-.04-.11-.08-.16-.13-7.6-5.88-9.08-16.8-3.27-24.48 3.45-4.58 8.71-6.98 14.03-6.98 3.69 0 7.42 1.15 10.59 3.55l17.35 13.12z" fill="#ffe5c2"/><path d="m223.824 354.092s-69.86-45.3-69.91-45.35c-4.967-3.843-7.298-9.858-6.711-15.695-2.276 1.168-4.34 2.861-5.984 5.043-5.81 7.68-4.33 18.6 3.27 24.48.05.05.1.09.16.13l38.53 29.11h.01l31.21 16.11h63.4l-21.754-13.828z" fill="#fed2a4"/><path d="m251.126 349.132v-233.647-48.758h-67.934v48.758 236.326 29.005h67.934z" fill="#a6e7f0"/><g><g id="XMLID_510_"><g><path d="m263.47 56.573h-87.987l-16.194 18.877v21.7c0 10.13 8.2 18.34 18.33 18.34h74.99c10.13 0 18.34-8.21 18.34-18.34v-21.7z" fill="#e1d3ce"/><path d="m202.155 95.47c-10.13 0-18.33-8.21-18.33-18.34v-20.557h-8.342l-16.194 18.877v21.7c0 10.13 8.2 18.34 18.33 18.34h74.99c10.13 0 18.34-8.21 18.34-18.34v-1.68z" fill="#cdbfba"/><path d="m270.949 25.43v50.02h-111.66v-22.427c0-3.426-2.777-6.203-6.203-6.203h-97.685c-2.713 0-4.912-2.199-4.912-4.912v-36.996c0-2.713 2.199-4.912 4.912-4.912h190.118c14.045 0 25.43 11.385 25.43 25.43z" fill="#f3eae6"/></g></g><path d="m183.825 75.45v-29.03c0-10.836-8.784-19.62-19.62-19.62h-113.716v15.108c0 2.713 2.199 4.912 4.912 4.912h97.685c3.426 0 6.203 2.777 6.203 6.203v22.427z" fill="#efe2dd"/><g><path d="m222.04 208.23c-4.142 0-7.5-3.357-7.5-7.5v-50.375c0-4.143 3.358-7.5 7.5-7.5s7.5 3.357 7.5 7.5v50.375c0 4.143-3.358 7.5-7.5 7.5z" fill="#6bd9e7"/></g><g><path d="m211.644 314.477c-4.142 0-7.5-3.357-7.5-7.5v-15.87c0-4.143 3.358-7.5 7.5-7.5s7.5 3.357 7.5 7.5v15.87c0 4.143-3.358 7.5-7.5 7.5z" fill="#6bd9e7"/></g><g fill="#a6e7f0"><path d="m335.869 189.832c-8.109 2.577-25.834-2.923-36.084-6.596-4.03-1.444-5.579-6.317-3.122-9.823 6.248-8.917 17.545-23.641 25.654-26.219 11.774-3.742 24.353 2.769 28.095 14.543 3.743 11.774-2.769 24.353-14.543 28.095z"/><path d="m323.944 264.597c-5.753-.346-15.618-8.14-21.202-12.959-2.195-1.895-1.987-5.352.419-6.97 6.121-4.115 16.849-10.67 22.602-10.324 8.354.502 14.719 7.682 14.217 16.036-.503 8.354-7.682 14.719-16.036 14.217z"/><path d="m109.603 208.788c6.875 2.954 22.862-.333 32.149-2.666 3.651-.917 5.426-5.049 3.578-8.329-4.7-8.343-13.32-22.202-20.195-25.156-9.983-4.289-21.553.326-25.842 10.309s.327 21.552 10.31 25.842z"/></g></g><path d="m91.772 337.98-25.94-19.64c-9.25-7-22.18-6.43-30.77 1.37-5.26 4.78-7.91 11.31-7.91 17.86 0 6.2 2.38 12.42 7.17 17.15l101.95 100.74c7.37 7.28 17.3 11.36 27.66 11.36h169.25l34.447 28.726c1.983 1.654 4.83 1.767 6.938.276l93.58-66.178c2.884-2.04 2.937-6.3.105-8.411l-53.015-39.516c-12.892-9.609-28.231-15.38-44.261-16.645-21.097-1.666-51.342-2.527-75.681 2.829h-16.984-63.4l-69.75-45.22c-.06-.04-.11-.08-.16-.13l-25.93-19.59c-9.78-7.4-23.71-5.46-31.11 4.33-3.03 4-4.49 8.7-4.49 13.37.001 6.519 2.861 12.969 8.301 17.319" fill="#ffe5c2"/><path d="m87.885 307.4c-2.975 3.977-4.414 8.632-4.414 13.26 0 5.852 2.311 11.643 6.716 15.914.458.426.917.852 1.415 1.248l71.824 57.156c6.173 4.913 15.164.894 15.887-6.702z" fill="#fed2a4"/><g><path d="m368.008 450.484c-6.344-4.751-14.056-7.319-21.982-7.319h-161.132c-10.61 0-20.78-4.172-28.329-11.617l-104.414-103.024c-4.051-3.994-6.41-9.058-7.113-14.261-3.789.931-7.398 2.802-10.45 5.574-5.26 4.78-7.91 11.31-7.91 17.86 0 6.2 2.38 12.42 7.17 17.15l101.95 100.74c7.37 7.28 17.3 11.36 27.66 11.36h169.25l34.447 28.726c1.983 1.654 4.83 1.767 7.123.446l28.177-20.019z" fill="#fed2a4"/></g></g><g id="XMLID_853_"><path d="m428.723 391.766-16.95-12.788c-24.429-18.431-54.198-28.402-84.8-28.402h-55.185-80.346c-15.501 0-28.067 12.566-28.067 28.067 0 15.501 12.566 28.067 28.067 28.067h74.26 126.507l26.65 6.173c12.532 2.902 20.133-13.369 9.864-21.117z" fill="#ffe5c2"/></g><path d="m310.411 406.71c0-7.721-6.259-13.98-13.98-13.98h-5.698-73.646c-15.411 0-28.409-12.163-28.676-27.572-.092-5.321 1.305-10.307 3.79-14.58h-.759c-15.501 0-28.067 12.566-28.067 28.067 0 15.501 12.566 28.066 28.066 28.066h74.26 44.71z" fill="#fed2a4"/></svg>