<svg id="Capa_1" enable-background="new 0 0 497.19 497.19" height="512" viewBox="0 0 497.19 497.19" width="512" xmlns="http://www.w3.org/2000/svg"><g><g><g><g id="XMLID_856_"><g><path d="m279.407 80.83c0-14.64 11.87-26.5 26.51-26.5 7.32 0 13.94 2.96 18.74 7.76 4.79 4.8 7.76 11.42 7.76 18.74v82.91 204.18l-26.5 36.84v83.556c0 4.901-3.973 8.874-8.874 8.874h-175.12c-5.123 0-9.275-4.153-9.275-9.275v-107.085l7.74-35.31v-145.92-141.195c0-14.505 11.432-26.726 25.934-27.029 7.544-.157 14.393 2.841 19.306 7.754 4.79 4.8 7.76 11.43 7.76 18.75v-30.835c0-14.524 11.459-26.756 25.98-27.04 7.53-.147 14.354 2.849 19.27 7.765 4.8 4.79 7.76 11.42 7.76 18.74v24.28c0-14.64 11.87-26.51 26.51-26.51 7.32 0 13.95 2.97 18.74 7.77 4.79 4.79 7.76 11.42 7.76 18.74v30.04z" fill="#ffe5c2"/></g></g></g><path d="m182.165 275.002-8.532-7.699c-4.158-3.752-4.41-10.191-.558-14.256l9.4-9.921c8.229-8.674 12.761-20.036 12.761-31.996 0-9.956-3.117-19.468-9.008-27.501-4.608-6.288-10.695-11.236-17.591-14.506-7.007-3.323-11.598-10.243-11.598-17.998v-93.245c0-7.527 3.148-14.319 8.184-19.145-4.941-4.734-11.73-7.582-19.175-7.352-14.402.445-25.662 12.661-25.662 27.07v141.148 145.92l-7.74 35.31v107.486c0 4.901 3.973 8.874 8.874 8.874h27.78v-60.691c0-7.83 5.1-14.648 12.522-17.141 28.195-9.47 48.625-36.196 48.625-67.428v-13.311c0-24.215-10.308-47.404-28.282-63.618z" fill="#fed2a4"/><g id="XMLID_764_"><g><path d="m190.447 351.93c0 28.044-22.595 50.852-50.638 51.115l-27.162.255-21.84-14.71c-13.48-9.08-21.56-24.26-21.56-40.52v-78.37c0-19.09 8.81-37.13 23.87-48.86l39.31-30.63c11.79-9.18 28.84-6.81 37.67 5.24 3.44 4.69 5.14 10.19 5.14 15.68 0 6.59-2.45 13.15-7.27 18.23l-23.278 24.567c-3.976 4.196-3.716 10.844.576 14.716l23.502 21.207c13.8 12.45 21.68 30.17 21.68 48.77z" fill="#ffe5c2"/></g></g><path d="m122.507 388.59c-13.48-9.08-21.56-24.26-21.56-40.52v-78.37c0-19.09 8.81-37.13 23.87-48.86l39.31-30.63c.148-.115.309-.221.459-.333-9.307-6.953-22.501-7.188-32.159.332l-39.31 30.63c-15.06 11.73-23.87 29.77-23.87 48.86v78.37c0 16.26 8.08 31.44 21.56 40.52l21.84 14.71 27.162-.255c1.303-.012 2.589-.089 3.866-.197z" fill="#fed2a4"/><path d="m313.295 177.931-75.845 40.597c-12.68 6.786-20.558 19.938-20.558 34.32v89.005c0 19.577 5.48 38.702 15.848 55.309 10.368 16.605 25.145 29.927 42.733 38.522 9.647 4.714 19.912 8.204 30.444 10.405v-41.33l26.5-36.84v-194.784c-6.648 0-13.26 1.659-19.122 4.796z" fill="#fed2a4"/><path d="m284.255 417.716c-28.983-14.164-47.362-43.604-47.362-75.862v-89.005c0-6.98 3.842-13.393 9.995-16.687l75.845-40.597c6.05-3.238 13.319-3.238 19.369 0l75.845 40.597c6.154 3.294 9.995 9.707 9.995 16.687v89.005c0 32.258-18.38 61.698-47.362 75.862-30.39 14.852-65.934 14.852-96.325 0z" fill="#a7eedc"/><path d="m322.017 417.715c-28.983-14.164-47.362-43.604-47.362-75.862v-89.005c0-6.98 3.842-13.394 9.995-16.687l66.649-35.674-9.197-4.923c-6.05-3.238-13.319-3.238-19.369 0l-75.845 40.597c-6.154 3.294-9.995 9.708-9.995 16.688v89.005c0 32.259 18.38 61.698 47.362 75.862 21.02 10.273 44.521 13.438 67.061 9.5-10.049-1.756-19.928-4.92-29.299-9.501z" fill="#86e8d0"/><path d="m374.994 291.409h-22.99v-22.99c0-1.637-1.327-2.964-2.964-2.964h-33.244c-1.637 0-2.964 1.327-2.964 2.964v22.99h-22.99c-1.637 0-2.964 1.327-2.964 2.964v33.244c0 1.637 1.327 2.964 2.964 2.964h22.99v22.99c0 1.637 1.327 2.964 2.964 2.964h33.244c1.637 0 2.964-1.327 2.964-2.964v-22.99h22.99c1.637 0 2.964-1.327 2.964-2.964v-33.244c0-1.637-1.327-2.964-2.964-2.964z" fill="#faf7f7"/></g><g fill="#fed2a4"><path d="m197.134 31.575c0-9.263 3.493-18.184 9.782-24.984l3.922-4.232c-3.333-1.513-7.042-2.359-10.941-2.359-14.617 0-26.472 11.833-26.508 26.442v134.679c13.114 0 23.745-10.631 23.745-23.745z"/><path d="m279.415 161.122c13.114 0 23.745-10.631 23.745-23.745v-59.662c0-8.333 2.835-16.384 7.981-22.869-1.689-.337-3.435-.517-5.224-.517-14.542 0-26.345 11.704-26.503 26.208z"/><path d="m226.414 161.122c13.114 0 23.745-10.631 23.745-23.745v-84.125c0-9.263 3.493-18.184 9.782-24.984l2.185-2.344c-2.867-1.063-5.982-1.644-9.219-1.644-14.412 0-26.13 11.505-26.493 25.829z"/></g></g></svg>