<svg id="Capa_1" enable-background="new 0 0 496.487 496.487" height="512" viewBox="0 0 496.487 496.487" width="512" xmlns="http://www.w3.org/2000/svg"><g><path d="m232.752 16h30.983v102.141h-30.983z" fill="#f3eae6"/><path d="m274.607 157.005h-51.727v-53.228c0-3.665 2.971-6.636 6.636-6.636h38.455c3.665 0 6.636 2.971 6.636 6.636z" fill="#f9f3f1"/><path d="m296.305 152.9c0-7.121-5.773-12.894-12.894-12.894h-69.335c-7.121 0-12.894 5.773-12.894 12.894v81.931h95.123z" fill="#f3eae6"/><path d="m227.045 169.232c0-7.121 5.773-12.894 12.894-12.894h56.366v-3.439c0-7.121-5.773-12.894-12.894-12.894h-69.335c-7.121 0-12.894 5.773-12.894 12.894v81.931h25.863z" fill="#efe2dd"/><g><path d="m408.063 309.947v-9.37c0-68.33-55.4-123.72-123.73-123.72h-72.18c-68.33 0-123.73 55.39-123.73 123.72v9.37l22.003 26.508v91.347l-22.003 19.215v41.07c0 4.64 3.76 8.4 8.4 8.4h302.84c4.64 0 8.4-3.76 8.4-8.4v-41.07l-25.067-14.189v-89.043z" fill="#a6e7f0"/><path d="m380.919 128.781c0 12.271-9.948 22.219-22.219 22.219s-22.219-9.948-22.219-22.219c0-7.523 9.142-21.161 16.216-30.588 3.914-5.216 11.837-4.831 15.256.722 5.781 9.389 12.966 22.533 12.966 29.866z" fill="#a6e7f0"/><path d="m263.773 226.849v128.572h-32.059v-128.572-33.193h32.059z" fill="#6bd9e7"/><path d="m280.22 176.856h-68.066c-68.33 0-123.73 55.39-123.73 123.72v9.37l15.891 17.153v103.283l-15.891 16.634v41.07c0 4.64 3.76 8.4 8.4 8.4h68.066c-4.64 0-8.4-3.76-8.4-8.4v-187.51c0-68.329 55.4-123.72 123.73-123.72z" fill="#6bd9e7"/><g><circle cx="147.937" cy="449.679" fill="#2ed1e2" r="22.567"/></g><g id="XMLID_858_"><g><path d="m88.423 309.947h319.64v137.07h-319.64z" fill="#f9f3f1"/></g></g><circle cx="248.243" cy="378.479" fill="#a7eedc" r="74.2"/><path d="m279.521 361.742h-14.541v-14.541c0-1.887-1.53-3.417-3.417-3.417h-26.639c-1.887 0-3.417 1.53-3.417 3.417v14.541h-14.541c-1.887 0-3.417 1.53-3.417 3.417v26.639c0 1.887 1.53 3.417 3.417 3.417h14.541v14.541c0 1.887 1.53 3.417 3.417 3.417h26.639c1.887 0 3.417-1.53 3.417-3.417v-14.541h14.541c1.887 0 3.417-1.53 3.417-3.417v-26.639c0-1.887-1.53-3.417-3.417-3.417z" fill="#faf7f7"/><path d="m280.811 176.853h-64.136l5.37 42.41c.477 3.764 3.679 6.587 7.473 6.587h38.449c3.794 0 6.997-2.822 7.473-6.587z" fill="#6bd9e7"/><circle cx="342.38" cy="249.057" fill="#6bd9e7" r="16.943"/><circle cx="157.1" cy="251.773" fill="#2ed1e2" r="16.943"/><g><path d="m308.81 218.751h-4.408c-4.143 0-7.5-3.357-7.5-7.5s3.357-7.5 7.5-7.5h4.408c4.143 0 7.5 3.357 7.5 7.5s-3.358 7.5-7.5 7.5z" fill="#6bd9e7"/></g><g><path d="m301.154 284.11h-3.712c-4.143 0-7.5-3.357-7.5-7.5s3.357-7.5 7.5-7.5h3.712c4.143 0 7.5 3.357 7.5 7.5s-3.358 7.5-7.5 7.5z" fill="#6bd9e7"/></g><g><path d="m199.244 287.818h-4.176c-4.142 0-7.5-3.357-7.5-7.5s3.358-7.5 7.5-7.5h4.176c4.142 0 7.5 3.357 7.5 7.5s-3.358 7.5-7.5 7.5z" fill="#6bd9e7"/></g><g><path d="m342.38 478.934h-5.905c-4.143 0-7.5-3.357-7.5-7.5s3.357-7.5 7.5-7.5h5.905c4.143 0 7.5 3.357 7.5 7.5s-3.357 7.5-7.5 7.5z" fill="#6bd9e7"/></g><g><path d="m369.965 54.239h-22.532c-3.167 0-5.734-2.567-5.734-5.734v-13.889c0-.34-.276-.616-.616-.616h-133.221c-3.689 0-6.68-2.991-6.68-6.68v-20.64c0-3.689 2.991-6.68 6.68-6.68h133.221c19.118 0 34.616 15.498 34.616 34.616v13.889c0 3.167-2.567 5.734-5.734 5.734z" fill="#f9f3f1"/></g></g><path d="m88.423 309.947h68.066v137.07h-68.066z" fill="#f3eae6"/></g></svg>