<svg id="Capa_1" enable-background="new 0 0 496.643 496.643" height="512" viewBox="0 0 496.643 496.643" width="512" xmlns="http://www.w3.org/2000/svg"><g><path d="m419.499 389.523v20.691l36.222 29.892c10.801 8.914 17.057 22.186 17.057 36.191v13.434c0 3.818-3.095 6.913-6.913 6.913h-144.222c-3.818 0-6.913-3.095-6.913-6.913v-13.434c0-14.005 6.255-27.277 17.057-36.191l36.222-29.892v-20.691-38.946h50.964z" fill="#ffe5c2"/><path d="m419.398 382.015h-27.652v-31.438h-23.736v38.946 20.691l-36.222 29.892c-10.801 8.914-17.057 22.186-17.057 36.191v13.434c0 3.818 3.095 6.913 6.913 6.913h23.736c-3.818 0-6.912-3.095-6.912-6.913v-13.434c0-14.005 6.255-27.277 17.057-36.191l29.038-23.963c.011-.009.023-.019.034-.028 2.21-1.833 4.969-2.828 7.839-2.735.57.019 1.143.028 1.718.028 9.121 0 17.731-2.209 25.346-6.099v-17.786z" fill="#fed2a4"/><path d="m128.633 388.202v20.691l36.222 29.892c10.801 8.914 17.057 22.186 17.057 36.191v13.434c0 3.818-3.095 6.913-6.913 6.913h-144.222c-3.818 0-6.913-3.095-6.913-6.913v-13.434c0-14.005 6.255-27.277 17.057-36.191l36.222-29.892v-20.691-38.946h50.964z" fill="#ffe5c2"/><path d="m128.532 380.671h-27.652v-31.416h-23.736v38.946 20.691l-36.222 29.892c-10.802 8.914-17.057 22.187-17.057 36.191v13.434c0 3.818 3.095 6.913 6.913 6.913h23.736c-3.817 0-6.912-3.095-6.912-6.913v-13.434c0-14.005 6.255-27.277 17.057-36.191l27.755-22.905c3.04-2.509 6.873-3.799 10.815-3.794h.06c9.121 0 17.731-2.209 25.346-6.099v-17.786z" fill="#fed2a4"/><g><path d="m284.082 407.192 48.013 28.379c20.881 12.342 33.691 34.795 33.691 59.05 0 1.117-.905 2.022-2.022 2.022h-231.139c-1.117 0-2.022-.905-2.022-2.022 0-24.256 12.81-46.708 33.691-59.05l48.013-28.379 23.458-12.366h28.658z" fill="#a6e7f0"/></g><path d="m252.265 394.825h-16.5l-23.458 12.366-48.013 28.379c-20.881 12.342-33.691 34.794-33.691 59.05 0 1.117.905 2.022 2.021 2.022h32.2c4.681-16.869 15.716-31.568 31.189-40.714l48.013-28.379 8.239-4.343z" fill="#6bd9e7"/><path d="m285.375 397.454c0 20.534-16.646 37.18-37.18 37.18-20.534 0-37.18-16.646-37.18-37.18v-91.562h74.361v91.562z" fill="#ffe5c2"/><path d="m401.09 265.793c21.661 0 34.244-24.503 21.623-42.107l-152.404-212.582c-10.597-14.782-32.572-14.81-43.206-.055l-153.225 212.581c-12.684 17.598-.109 42.163 21.583 42.163z" fill="#cdbfba"/><path d="m140.333 223.63 141.55-196.383-11.573-16.144c-10.597-14.782-32.572-14.81-43.206-.055l-153.226 212.582c-12.684 17.598-.109 42.163 21.583 42.163h66.455c-21.692 0-34.267-24.565-21.583-42.163z" fill="#b9acac"/><path d="m270.306 181.852h-44.951c-4.737-6.438-12.273-10.312-20.427-10.312-5.702 0-11.304 1.955-15.781 5.513l-.278.222c-16.871 13.403-26.547 33.449-26.547 54.998v33.521h172.398v-19.528c0-35.519-28.896-64.414-64.414-64.414z" fill="#b9acac"/><path d="m388.318 227.199-135.238-188.64c-2.163-3.017-6.648-3.023-8.818-.011l-135.967 188.64c-2.589 3.592-.022 8.605 4.405 8.605h271.205c4.421 0 6.989-5.001 4.413-8.594z" fill="#fef0ae"/><path d="m253.08 38.559c-2.163-3.017-6.648-3.022-8.818-.011l-135.967 188.64c-2.589 3.591-.022 8.605 4.405 8.605h22.775c.533-4.167 2.096-8.33 4.858-12.163l123.044-170.708z" fill="#fee97d"/><path d="m333.855 235.793c-5.018-30.553-31.597-53.941-63.549-53.941h-44.951c-4.737-6.438-12.273-10.312-20.427-10.312-5.702 0-11.304 1.955-15.781 5.513l-.278.222c-16.871 13.403-26.547 33.449-26.547 54.998v3.521h171.533z" fill="#fee97d"/><path d="m264.18 174.188 4.899-58.903c.417-5.014-3.54-9.315-8.572-9.315h-24.626c-5.032 0-8.989 4.3-8.572 9.315l4.899 58.903 3.574 36.189h25.972z" fill="#b9acac"/><g><path d="m314.72 265.074v-18.809c0-24.529-19.885-44.414-44.414-44.414h-56.665l-3.964-7.461c-1.575-2.964-5.453-3.773-8.081-1.685l-.286.227c-11.997 9.532-18.988 24.017-18.988 39.34v32.801l3.406 30.576h124.964z" fill="#cdbfba"/><path d="m248.52 397.015c13.265 0 25.785-3.218 36.854-8.882v-28.903h-52.912v-53.338h-21.449v90.858c0 20.453 16.22 37.604 36.672 37.881 3.911.053 7.704-.505 11.254-1.573-15.304-4.604-26.477-18.799-26.477-35.604 0-1.067.966-1.857 2.017-1.671 4.562.805 9.252 1.232 14.041 1.232z" fill="#fed2a4"/><path d="m248.521 382.015c-36.561 0-66.199-29.638-66.199-66.199v-50.742c44.209-13.535 88.342-13.583 132.398 0v50.742c-.001 36.561-29.639 66.199-66.199 66.199z" fill="#ffe5c2"/><path d="m211.014 315.816v-57.63c-9.56 1.665-19.124 3.959-28.692 6.888v50.742c0 36.561 29.638 66.199 66.198 66.199 4.928 0 9.791-.547 14.412-1.569-29.66-6.556-51.918-32.998-51.918-64.63z" fill="#fed2a4"/><path d="m394.153 398.407c-22.602 0-40.925-18.323-40.925-40.925v-20.907c0-22.602 18.323-40.925 40.925-40.925 22.602 0 40.925 18.323 40.925 40.925v20.907c0 22.602-18.323 40.925-40.925 40.925z" fill="#ffe5c2"/><path d="m103.287 397.086c-22.602 0-40.925-18.323-40.925-40.925v-20.907c0-22.602 18.323-40.925 40.925-40.925 22.602 0 40.925 18.323 40.925 40.925v20.907c0 22.602-18.323 40.925-40.925 40.925z" fill="#ffe5c2"/><g fill="#fed2a4"><path d="m376.964 357.482v-20.907c0-18.474 12.266-34.083 29.08-39.171-3.757-1.137-7.763-1.754-11.891-1.754-22.602 0-40.925 18.323-40.925 40.925v20.907c0 22.603 18.323 40.925 40.925 40.925 4.128 0 8.145-.615 11.902-1.752-16.814-5.088-29.091-20.699-29.091-39.173z"/><path d="m86.098 356.161v-20.907c0-18.474 12.263-34.089 29.076-39.177-3.757-1.137-7.759-1.748-11.887-1.748-22.602 0-40.925 18.323-40.925 40.925v20.907c0 22.603 18.323 40.925 40.925 40.925 4.128 0 8.134-.617 11.891-1.754-16.814-5.088-29.08-20.697-29.08-39.171z"/></g></g></g></svg>