<svg id="Capa_1" enable-background="new 0 0 504.813 504.813" height="512" viewBox="0 0 504.813 504.813" width="512" xmlns="http://www.w3.org/2000/svg"><g><path d="m183.266 411.806h73.568v77.075h-73.568z" fill="#e1d3ce"/><path d="m252.44 322.662h-89.906l-27.573 29.278v58.05h129v-58.05z" fill="#f3eae6"/><g><path d="m199.463 149.784c-4.142 0-7.5-3.357-7.5-7.5v-134.784c0-4.143 3.358-7.5 7.5-7.5s7.5 3.357 7.5 7.5v134.784c0 4.143-3.358 7.5-7.5 7.5z" fill="#f9f3f1"/></g><path d="m262.061 161.91-32.04-43.58c-2.8-3.8-7.24-6.05-11.96-6.05h-37.2c-4.72 0-9.16 2.25-11.95 6.05l-32.05 43.58c-1.23 1.68-1.9 3.72-1.9 5.8v101.41l19.127 27.8h91.8l18.073-27.8v-101.41c0-2.08-.66-4.12-1.9-5.8z" fill="#fef0ae"/><path d="m213.764 322.662h-51.23l-27.573 29.278v58.05h51.23v-58.05z" fill="#efe2dd"/><path d="m186.191 167.71c0-2.08.67-4.12 1.9-5.8l32.05-43.58c1.321-1.799 3.044-3.242 4.96-4.273-2.131-1.145-4.554-1.777-7.039-1.777h-37.2c-4.72 0-9.16 2.25-11.95 6.05l-32.05 43.58c-1.23 1.68-1.9 3.72-1.9 5.8v101.41l19.127 27.8h51.23l-19.127-27.8v-101.41z" fill="#fee97d"/><path d="m134.961 269.12h129v82.82h-129z" fill="#e1d3ce"/><path d="m134.961 269.12h51.23v82.82h-51.23z" fill="#cdbfba"/><g><path d="m119.946 396.988c-6.975 0-12.63 5.654-12.63 12.629v12.503c0 6.975 5.654 12.63 12.63 12.63h166.07v-37.762z" fill="#f9f3f1"/><path d="m153.854 422.12v-12.503c0-6.975 5.654-12.629 12.63-12.629h-46.537c-6.975 0-12.63 5.654-12.63 12.629v12.503c0 6.975 5.654 12.63 12.63 12.63h46.537c-6.976 0-12.63-5.655-12.63-12.63z" fill="#f3eae6"/><path d="m140.985 504.813c-5.706 0-10.331-4.625-10.331-10.331v-11.202c0-5.706 4.625-10.331 10.331-10.331h115.849v19.582c0 6.783-5.499 12.282-12.282 12.282z" fill="#f9f3f1"/><path d="m171.568 494.481v-11.202c0-5.706 4.625-10.331 10.331-10.331h-40.914c-5.706 0-10.331 4.625-10.331 10.331v11.202c0 5.706 4.625 10.331 10.331 10.331h40.914c-5.706.001-10.331-4.625-10.331-10.331z" fill="#f3eae6"/><path d="m364.391 308.931 11.525 8.048c13.523 9.443 21.58 24.896 21.58 41.389v114.444c0 17.673-14.327 32.001-32.001 32.001h-102.634c-17.673 0-32.001-14.327-32.001-32.001v-114.444c0-16.493 8.057-31.946 21.58-41.389l11.525-8.048 22.051-16.008h59.627z" fill="#a6e7f0"/><path d="m268.874 358.047c.103-16.165 13.475-29.116 29.641-29.116h62.644c7.813 0 15.064-2.566 20.914-6.885-1.898-1.831-3.96-3.533-6.157-5.067l-11.525-8.047-18.748-16.008h-21.613-32.465-5.549l-22.051 16.008-11.524 8.047c-13.523 9.443-21.581 24.896-21.581 41.39v114.444c0 17.673 14.327 32 32 32h38.013c-17.673 0-32.001-14.327-32.001-32v-114.445c.001-.107.001-.214.002-.321z" fill="#6bd9e7"/><path d="m361.159 308.931h-94.363c-8.421 0-15.248-6.827-15.248-15.248v-23.075c0-8.421 6.827-15.248 15.248-15.248h94.363c8.421 0 15.248 6.827 15.248 15.248v23.075c0 8.421-6.827 15.248-15.248 15.248z" fill="#f9f3f1"/><path d="m289.275 293.683v-23.075c0-8.421 6.827-15.248 15.248-15.248h-37.726c-8.421 0-15.248 6.827-15.248 15.248v23.075c0 8.421 6.827 15.248 15.248 15.248h37.726c-8.422 0-15.248-6.827-15.248-15.248z" fill="#f3eae6"/><path d="m355.794 453.849h-83.633c-3.75 0-6.79-3.04-6.79-6.79v-54.411c0-3.75 3.04-6.79 6.79-6.79h83.633c3.75 0 6.79 3.04 6.79 6.79v54.411c0 3.75-3.04 6.79-6.79 6.79z" fill="#f9f3f1"/></g></g></svg>