<svg id="Capa_1" enable-background="new 0 0 496.904 496.904" height="512" viewBox="0 0 496.904 496.904" width="512" xmlns="http://www.w3.org/2000/svg"><g><g><path d="m357.808 488.297h-165.487c-4.143 0-7.5-3.357-7.5-7.5s3.357-7.5 7.5-7.5h165.487c4.143 0 7.5 3.357 7.5 7.5s-3.357 7.5-7.5 7.5z" fill="#efe2dd"/></g><g><path d="m330.25 447.342h-119.646c-4.143 0-7.5-3.357-7.5-7.5s3.357-7.5 7.5-7.5h119.646c4.143 0 7.5 3.357 7.5 7.5s-3.358 7.5-7.5 7.5z" fill="#efe2dd"/></g><g><path d="m354.517 23.607h-163.695c-4.143 0-7.5-3.357-7.5-7.5s3.357-7.5 7.5-7.5h163.695c4.143 0 7.5 3.357 7.5 7.5s-3.357 7.5-7.5 7.5z" fill="#efe2dd"/></g><g><path d="m336.292 64.563h-129.972c-4.143 0-7.5-3.357-7.5-7.5s3.357-7.5 7.5-7.5h129.973c4.143 0 7.5 3.357 7.5 7.5s-3.358 7.5-7.501 7.5z" fill="#efe2dd"/></g><g><path d="m339.712 322.309h-134.355c-4.143 0-7.5-3.357-7.5-7.5s3.357-7.5 7.5-7.5h134.355c4.143 0 7.5 3.357 7.5 7.5s-3.357 7.5-7.5 7.5z" fill="#efe2dd"/></g><g><path d="m368.748 278.578h-187.889c-4.143 0-7.5-3.357-7.5-7.5s3.357-7.5 7.5-7.5h187.889c4.143 0 7.5 3.357 7.5 7.5s-3.358 7.5-7.5 7.5z" fill="#efe2dd"/></g><g><path d="m346.219 189.596h-143.925c-4.143 0-7.5-3.357-7.5-7.5s3.357-7.5 7.5-7.5h143.925c4.143 0 7.5 3.357 7.5 7.5s-3.357 7.5-7.5 7.5z" fill="#efe2dd"/></g><g><path d="m365.359 233.326h-181.438c-4.143 0-7.5-3.357-7.5-7.5s3.357-7.5 7.5-7.5h181.438c4.143 0 7.5 3.357 7.5 7.5s-3.358 7.5-7.5 7.5z" fill="#efe2dd"/></g><g><path d="m226.901 137.614 21.019 26.975 74.268-71.929-21.02-26.974z" fill="#f79595"/><g><path d="m222.076 455.111c-5.663 5.484-8.91 13.15-8.91 21.033v3.76c0 9.389-7.611 17-17 17-9.389 0-17-7.611-17-17v-3.76c0-17.036 7.019-33.604 19.256-45.456l97.096-94.038 20.919-20.26c18.43-17.849 28.637-41.766 28.778-67.399.144-26.163-10.89-51.152-29.684-69.354l-117.11-113.42c-12.237-11.852-19.256-28.42-19.256-45.457v-3.76c0-9.389 7.611-17 17-17 9.389 0 17 7.611 17 17v3.76c0 7.883 3.247 15.549 8.91 21.033l118.015 114.299c25.307 24.51 39.209 57.435 39.125 92.678-.084 35.121-14.921 68.601-40.149 93.035l-19.113 18.511z" fill="#a6e7f0"/></g><g><path d="m368.748 96.055c-4.143 0-7.5-3.357-7.5-7.5v-49.556c0-4.143 3.357-7.5 7.5-7.5s7.5 3.357 7.5 7.5v49.556c0 4.142-3.358 7.5-7.5 7.5z" fill="#5de1c4"/></g><g><path d="m393.525 71.276h-49.555c-4.143 0-7.5-3.357-7.5-7.5s3.357-7.5 7.5-7.5h49.555c4.143 0 7.5 3.357 7.5 7.5s-3.358 7.5-7.5 7.5z" fill="#5de1c4"/></g><g><path d="m386.268 88.797c-1.919 0-3.839-.732-5.304-2.196l-35.041-35.041c-2.929-2.93-2.929-7.678 0-10.607 2.93-2.928 7.678-2.928 10.607 0l35.041 35.041c2.929 2.93 2.929 7.678 0 10.607-1.464 1.463-3.384 2.196-5.303 2.196z" fill="#5de1c4"/></g><g><path d="m351.227 88.797c-1.919 0-3.839-.732-5.304-2.196-2.929-2.93-2.929-7.678 0-10.607l35.041-35.041c2.93-2.928 7.678-2.928 10.607 0 2.929 2.93 2.929 7.678 0 10.607l-35.041 35.041c-1.464 1.463-3.384 2.196-5.303 2.196z" fill="#5de1c4"/></g><circle cx="368.748" cy="63.777" fill="#86e8d0" r="15.471"/><g><path d="m368.748 468.757c-4.143 0-7.5-3.357-7.5-7.5v-49.555c0-4.143 3.357-7.5 7.5-7.5s7.5 3.357 7.5 7.5v49.555c0 4.142-3.358 7.5-7.5 7.5z" fill="#5de1c4"/></g><g><path d="m393.525 443.979h-49.555c-4.143 0-7.5-3.357-7.5-7.5s3.357-7.5 7.5-7.5h49.555c4.143 0 7.5 3.357 7.5 7.5s-3.358 7.5-7.5 7.5z" fill="#5de1c4"/></g><g><path d="m386.268 461.5c-1.919 0-3.839-.732-5.304-2.196l-35.041-35.041c-2.929-2.93-2.929-7.678 0-10.607 2.93-2.928 7.678-2.928 10.607 0l35.041 35.041c2.929 2.93 2.929 7.678 0 10.607-1.464 1.464-3.384 2.196-5.303 2.196z" fill="#5de1c4"/></g><g><path d="m351.227 461.5c-1.919 0-3.839-.732-5.304-2.196-2.929-2.93-2.929-7.678 0-10.607l35.041-35.041c2.93-2.928 7.678-2.928 10.607 0 2.929 2.93 2.929 7.678 0 10.607l-35.041 35.041c-1.464 1.464-3.384 2.196-5.303 2.196z" fill="#5de1c4"/></g><circle cx="368.748" cy="436.48" fill="#86e8d0" r="15.471"/><g><path d="m140.623 295.866c-4.143 0-7.5-3.357-7.5-7.5v-74.486c0-4.143 3.357-7.5 7.5-7.5s7.5 3.357 7.5 7.5v74.486c0 4.143-3.358 7.5-7.5 7.5z" fill="#5de1c4"/></g><g><path d="m177.866 258.623h-74.486c-4.143 0-7.5-3.357-7.5-7.5s3.357-7.5 7.5-7.5h74.486c4.143 0 7.5 3.357 7.5 7.5s-3.358 7.5-7.5 7.5z" fill="#5de1c4"/></g><g><path d="m166.958 284.958c-1.919 0-3.839-.732-5.304-2.196l-52.67-52.67c-2.929-2.93-2.929-7.678 0-10.607 2.93-2.928 7.678-2.928 10.607 0l52.67 52.67c2.929 2.93 2.929 7.678 0 10.607-1.465 1.464-3.385 2.196-5.303 2.196z" fill="#5de1c4"/></g><g><path d="m114.288 284.958c-1.919 0-3.839-.732-5.304-2.196-2.929-2.93-2.929-7.678 0-10.607l52.67-52.67c2.93-2.928 7.678-2.928 10.607 0 2.929 2.93 2.929 7.678 0 10.607l-52.67 52.67c-1.465 1.464-3.384 2.196-5.303 2.196z" fill="#5de1c4"/></g><circle cx="140.623" cy="251.123" fill="#86e8d0" r="23.254"/></g></g><g fill="#f79595"><path d="m231.477 316.39c-18.43-17.849-28.637-41.767-28.778-67.399-.144-26.164 10.89-51.152 29.684-69.354l15.531-15.042-21.014-26.98-19.078 18.478c-25.307 24.51-39.209 57.435-39.125 92.678.083 35.121 14.921 68.601 40.149 93.035l116.99 113.307c5.663 5.484 8.91 13.15 8.91 21.033v3.76c0 9.389 7.611 17 17 17s17-7.611 17-17v-3.76c0-17.036-7.019-33.604-19.256-45.456z"/><path d="m351.748 0c-9.389 0-17 7.611-17 17v3.76c0 7.883-3.247 15.549-8.91 21.033l-24.669 23.892 21.02 26.975 27.303-26.443c12.237-11.852 19.256-28.42 19.256-45.457v-3.76c0-9.389-7.612-17-17-17z"/></g></svg>