<svg id="Capa_1" enable-background="new 0 0 497.904 497.904" height="512" viewBox="0 0 497.904 497.904" width="512" xmlns="http://www.w3.org/2000/svg"><g><path d="m322.438 445.25c0 29.08-23.574 52.654-52.654 52.654h-200.487c-29.08 0-52.654-23.574-52.654-52.654v-392.596c0-29.08 23.574-52.654 52.654-52.654h200.488c29.08 0 52.654 23.574 52.654 52.654v392.596z" fill="#cdbfba"/><path d="m83.636 445.25v-392.596c0-29.08 23.574-52.654 52.654-52.654h-66.993c-29.08 0-52.654 23.574-52.654 52.654v392.596c0 29.08 23.574 52.654 52.654 52.654h66.993c-29.08 0-52.654-23.574-52.654-52.654z" fill="#b9acac"/><path d="m322.438 106.751h-74.151c-24.832 0-45.035 20.202-45.035 45.034v113.514c0 24.832 20.203 45.034 45.035 45.034h19.483l1.104 2.169c4.561 8.955 13.638 14.519 23.688 14.519 9.852 0 18.845-5.404 23.471-14.104l1.373-2.583h5.031v-203.583z" fill="#b9acac"/><path d="m292.443 445.253c0 12.511-10.142 22.653-22.653 22.653h-200.489c-12.512 0-22.654-10.143-22.654-22.654v-392.596c0-12.512 10.143-22.654 22.654-22.654h16.117c2.117 0 4.09 1.072 5.241 2.848l11.719 18.072c1.509 2.328 4.094 3.732 6.868 3.732h120.595c2.774 0 5.359-1.405 6.868-3.732l11.721-18.072c1.152-1.776 3.125-2.848 5.241-2.848h16.117c12.512 0 22.654 10.143 22.654 22.654v392.597z" fill="#a6e7f0"/><path d="m83.64 52.647c0-7.814 1.702-15.23 4.755-21.898-.904-.493-1.915-.755-2.977-.755h-16.117c-12.512 0-22.654 10.143-22.654 22.654v392.596c0 12.512 10.143 22.654 22.654 22.654l19.447.009c-3.276-6.862-5.108-14.552-5.108-22.663z" fill="#6bd9e7"/><path d="m292.438 327.016v-220.265h-44.15c-24.832 0-45.035 20.202-45.035 45.034v113.514c0 24.832 20.203 45.034 45.035 45.034h19.483l1.104 2.169c4.542 8.917 13.563 14.468 23.563 14.514z" fill="#6bd9e7"/><g><path d="m206.043 35.5h-73.77c-4.143 0-7.5-3.357-7.5-7.5s3.357-7.5 7.5-7.5h73.77c4.143 0 7.5 3.357 7.5 7.5s-3.358 7.5-7.5 7.5z" fill="#b9acac"/></g><path d="m456.226 126.75h-207.938c-13.826 0-25.035 11.208-25.035 25.035v113.514c0 13.826 11.208 25.035 25.035 25.035h31.741l6.669 13.092c2.418 4.746 9.177 4.805 11.677.102l7.015-13.194h150.837c13.826 0 25.035-11.209 25.035-25.035v-113.513c-.001-13.827-11.209-25.036-25.036-25.036z" fill="#fef0ae"/><g><path d="m355.271 270.633c-4.143 0-7.5-3.357-7.5-7.5v-108.15c0-4.143 3.357-7.5 7.5-7.5s7.5 3.357 7.5 7.5v108.149c0 4.143-3.357 7.501-7.5 7.501z" fill="#f37c7c"/></g><g><path d="m317.035 254.795c-1.919 0-3.839-.732-5.304-2.196-2.929-2.93-2.929-7.678 0-10.607l76.473-76.474c2.93-2.928 7.678-2.928 10.607 0 2.929 2.93 2.929 7.678 0 10.607l-76.473 76.474c-1.464 1.464-3.384 2.196-5.303 2.196z" fill="#f37c7c"/></g><g><path d="m409.346 216.558h-108.149c-4.143 0-7.5-3.357-7.5-7.5s3.357-7.5 7.5-7.5h108.149c4.143 0 7.5 3.357 7.5 7.5s-3.357 7.5-7.5 7.5z" fill="#f37c7c"/></g><g><path d="m393.508 254.795c-1.92 0-3.839-.732-5.304-2.196l-76.473-76.474c-2.929-2.93-2.929-7.678 0-10.607 2.931-2.929 7.679-2.927 10.607 0l76.473 76.474c2.929 2.93 2.929 7.678 0 10.607-1.465 1.464-3.384 2.196-5.303 2.196z" fill="#f37c7c"/></g><circle cx="355.271" cy="209.058" fill="#f79595" r="41.571"/><g><path d="m343.692 205.901h-3.188c-4.143 0-7.5-3.357-7.5-7.5s3.357-7.5 7.5-7.5h3.188c4.143 0 7.5 3.357 7.5 7.5s-3.357 7.5-7.5 7.5z" fill="#f37c7c"/></g><g><path d="m366.914 227.685h-3.433c-4.143 0-7.5-3.357-7.5-7.5s3.357-7.5 7.5-7.5h3.433c4.143 0 7.5 3.357 7.5 7.5s-3.358 7.5-7.5 7.5z" fill="#f37c7c"/></g><path d="m193.107 396.849h-33.133v24.698c0 9.149 7.417 16.567 16.567 16.567 9.149 0 16.567-7.417 16.567-16.567v-24.698z" fill="#fee97d"/><path d="m228.729 400.662-3.068-5.49-4.394-32.471c-3.029-22.384-22.139-39.082-44.727-39.082-22.588 0-41.698 16.698-44.727 39.082l-4.394 32.471-3.068 5.49c-2.55 4.564.749 10.187 5.977 10.187h92.424c5.229 0 8.528-5.623 5.977-10.187z" fill="#fef0ae"/><g><path d="m109.294 334.725c-4.143 0-7.5-3.357-7.5-7.5 0-13.956 11.354-25.311 25.311-25.311 4.143 0 7.5 3.357 7.5 7.5s-3.357 7.5-7.5 7.5c-5.686 0-10.311 4.625-10.311 10.311 0 4.142-3.358 7.5-7.5 7.5z" fill="#fef0ae"/></g><g><path d="m76.891 334.725c-4.143 0-7.5-3.357-7.5-7.5 0-31.822 25.89-57.712 57.713-57.712 4.143 0 7.5 3.357 7.5 7.5s-3.357 7.5-7.5 7.5c-23.552 0-42.713 19.16-42.713 42.712 0 4.142-3.357 7.5-7.5 7.5z" fill="#fef0ae"/></g></g></svg>